<?xml version="1.0" standalone="no"?>
<!DOCTYPE svg PUBLIC "-//W3C//DTD SVG 1.1//EN" "http://www.w3.org/Graphics/SVG/1.1/DTD/svg11.dtd" >
<svg>
<metadata>
Created by FontForge 20090622 at Wed Jun 22 23:38:36 2016
 By deploy user
Copyright (c) 2015 by Studio Kmzero. All rights reserved.
</metadata>
<defs>
<font id="CocoGothic-Light" horiz-adv-x="0" >
  <font-face 
    font-family="Coco Gothic"
    font-weight="300"
    font-stretch="normal"
    units-per-em="2000"
    panose-1="2 0 5 3 2 0 0 2 0 3"
    ascent="1600"
    descent="-400"
    x-height="980"
    cap-height="1485"
    bbox="-318 -551 2519 2025"
    underline-thickness="100"
    underline-position="-100"
    unicode-range="U+0020-U+FB01"
  />
<missing-glyph horiz-adv-x="627" 
 />
    <glyph glyph-name="ff" unicode="ff" horiz-adv-x="1234" 
d="M1132 983q17 0 28 -9.5t11 -30.5v-26q0 -20 -11 -31.5t-28 -11.5h-178v-837q0 -19 -12.5 -29t-29.5 -10h-37q-20 0 -29.5 11t-9.5 28v837h-124h-4h-371v-837q0 -19 -12.5 -29t-29.5 -10h-37q-20 0 -29.5 11t-9.5 28v837h-124q-40 0 -40 43v26q0 40 40 40h124v190
q0 75 21 133.5t61 99.5t97.5 62.5t129.5 21.5q20 0 30.5 -12t10.5 -31v-34q0 -17 -11.5 -28t-26.5 -11q-91 0 -142.5 -52.5t-51.5 -152.5v-186h369h6h124v190q0 75 21 133.5t61 99.5t97.5 62.5t129.5 21.5q20 0 30.5 -12t10.5 -31v-34q0 -17 -11.5 -28t-26.5 -11
q-91 0 -142.5 -52.5t-51.5 -152.5v-186h178z" />
    <glyph glyph-name="fi" unicode="fi" horiz-adv-x="1052" 
d="M776 874h-439v-837q0 -19 -12.5 -29t-29.5 -10h-37q-20 0 -29.5 11t-9.5 28v837h-124q-40 0 -40 43v26q0 40 40 40h124v190q0 75 21 133.5t61 99.5t97.5 62.5t129.5 21.5q20 0 30.5 -12t10.5 -31v-34q0 -17 -11.5 -28t-26.5 -11q-91 0 -142.5 -52.5t-51.5 -152.5v-186
h518q17 0 27 -10.5t10 -27.5v-909q0 -36 -37 -36h-41q-38 0 -38 36v838zM740 1265q0 19 7.5 36t20 30t29.5 20t36 7q39 0 66 -27t27 -66q0 -19 -7 -36t-20 -29.5t-30 -19.5t-36 -7t-36 7t-29.5 19.5t-20 29.5t-7.5 36z" />
    <glyph glyph-name=".notdef" horiz-adv-x="627" 
 />
    <glyph glyph-name="C" unicode="C" horiz-adv-x="1410" 
d="M1329 1342q18 -11 20.5 -25.5t-7.5 -26.5l-27 -34q-13 -17 -26.5 -18.5t-41.5 18.5q-86 63 -183 98.5t-202 35.5q-92 0 -176 -24t-156.5 -67.5t-131.5 -103.5t-101 -132t-65 -153t-23 -166q0 -86 24.5 -168.5t68 -155t103.5 -133t131 -104.5t151 -68.5t164 -24.5
q51 0 105.5 10t107.5 29t103.5 46.5t92.5 62.5q15 11 31.5 8.5t30.5 -24.5l15 -24q8 -14 6.5 -32t-19.5 -30q-38 -29 -80.5 -54t-88.5 -45q-141 -59 -299 -59q-104 0 -201.5 27t-182 77t-154.5 119.5t-119.5 155t-77 183.5t-27.5 204q0 104 27 201.5t77 182t119.5 154
t155 119t183.5 77t204 27.5q155 0 295 -60q48 -21 91 -46t83 -57z" />
    <glyph glyph-name="D" unicode="D" horiz-adv-x="1491" 
d="M159 1448q0 36 33 38h471q155 -2 290 -60.5t235.5 -159t158 -235.5t57.5 -290q0 -103 -26.5 -198t-75.5 -177.5t-117 -149.5t-151.5 -115t-179 -74.5t-198.5 -26.5h-459q-3 0 -9.5 1.5t-13 5.5t-11 9.5t-4.5 14.5v1417zM662 113q88 0 169 23t151 65t127 100.5t97 129
t62 150.5t22 166q0 135 -50.5 249.5t-137.5 198t-202 130.5t-244 47h-382v-1259h388z" />
    <glyph glyph-name="E" unicode="E" horiz-adv-x="1272" 
d="M1161 1486q38 0 38 -38v-40q0 -17 -10 -27.5t-29 -10.5h-886v-536h716q17 0 27.5 -9t10.5 -29v-41q0 -17 -9.5 -27t-28.5 -10h-716v-603h901q38 0 38 -37v-42q0 -36 -37 -36h-985q-14 0 -23 9t-9 26v1414q0 3 1 5t1 4q3 28 35 28h965z" />
    <glyph glyph-name="F" unicode="F" horiz-adv-x="1254" 
d="M1149 1486q39 0 39 -38v-40q0 -17 -10.5 -27.5t-28.5 -10.5h-875v-600h168t185 -0.5t185 -0.5h169q17 0 27 -8.5t10 -28.5v-41q0 -17 -9.5 -27t-27.5 -10h-707v-619q0 -35 -38 -35h-41q-36 0 -36 35v1414q0 17 8.5 27t27.5 10h954z" />
    <glyph glyph-name="H" unicode="H" horiz-adv-x="1534" 
d="M1251 1450q0 16 9.5 26t26.5 10h41q17 0 27.5 -9.5t10.5 -26.5v-1414q0 -36 -38 -36h-41q-36 0 -36 36v667h-977v-667q0 -36 -38 -36h-41q-36 0 -36 36v1414q0 16 9 26t27 10h42q17 0 27 -10t10 -26v-634h977v634z" />
    <glyph glyph-name="I" unicode="I" horiz-adv-x="436" 
d="M161 1450q0 36 37 36h41q18 0 27.5 -9.5t9.5 -26.5v-1414q0 -36 -37 -36h-41q-37 0 -37 36v1414z" />
    <glyph glyph-name="J" unicode="J" horiz-adv-x="795" 
d="M520 1450q0 17 8.5 26.5t27.5 9.5h42q37 0 37 -36v-1129q0 -74 -28 -136t-75.5 -107t-110 -70t-132.5 -25q-76 0 -144.5 25t-116.5 74q-13 15 -13 28q0 6 3 11t8 11l36 37q9 9 20 9q2 0 3 -0.5t3 -0.5l10 -5l24.5 -21t38.5 -25t54 -21t72 -9q51 0 93.5 19t73 50.5
t48 72.5t18.5 85v1127z" />
    <glyph glyph-name="K" unicode="K" horiz-adv-x="1428" 
d="M275 46q0 -46 -47 -46h-24q-44 0 -44 46v1395q0 18 11.5 31t32.5 13h27q18 0 31 -12t13 -32v-832l796 845q28 31 51 31h110q37 0 11 -26q-2 5 -2 3.5t2 -6.5l-561 -587l697 -829q33 -40 -7 -40h-92q-11 0 -21 8t-23 23l-631 757l-330 -348v-394z" />
    <glyph glyph-name="L" unicode="L" horiz-adv-x="1148" 
d="M1065 114q17 0 27 -9.5t10 -27.5v-41q0 -17 -10 -26.5t-27 -9.5h-869q-17 0 -27 9t-10 27v1414q0 16 9.5 26t28.5 10h41q36 0 36 -36v-1336h791z" />
    <glyph glyph-name="M" unicode="M" horiz-adv-x="1772" 
d="M1540 1447l66 -704.5l67 -704.5v-2q0 -36 -36 -36h-42q-36 0 -38 37l-112 1227l-508 -1131q-5 -12 -18.5 -19.5t-22.5 -7.5h-26q-15 0 -23 3.5t-18 23.5l-254.5 565.5l-254.5 565.5l-112 -1227q0 -38 -37 -38h-42q-18 0 -27 11.5t-9 28.5l132 1408q2 20 15 29t27 9h4h62
q17 -3 27 -25l522 -1170l522 1169q5 13 16 19.5t24.5 8t28.5 1t27 -0.5q18 0 28.5 -9.5t11.5 -23.5v-7v0z" />
    <glyph glyph-name="P" unicode="P" horiz-adv-x="1246" 
d="M159 1439q0 20 13 33t33 13h474q96 0 180 -36.5t146.5 -99t99 -146.5t36.5 -180t-36.5 -180t-99 -146.5t-146 -99t-178.5 -36.5h-408v-515q0 -46 -46 -46h-24q-44 0 -44 46v1393zM1028 1023q0 73 -27.5 137t-74.5 112t-111 75.5t-136 27.5h-406v-704h406q72 0 136 27.5
t111 75.5t74.5 112t27.5 137z" />
    <glyph glyph-name="R" unicode="R" horiz-adv-x="1329" 
d="M770 1486q97 -1 181.5 -38t147 -100.5t98.5 -148t36 -180.5q0 -71 -20 -136t-56.5 -120t-87 -98.5t-111.5 -70.5l251 -550q5 -12 5 -18q0 -8 -6 -17t-19 -9h-70q-18 0 -26 19l-246 545q-20 -5 -40.5 -7.5t-46.5 -2.5h-487v-518q0 -36 -36 -36h-43q-36 0 -36 36v1417
q6 18 13 25.5t23 7.5h576zM712 669q42 0 82.5 1t79.5 14q4 2 6 2q52 18 96 50t75.5 75.5t49 96.5t17.5 111q0 72 -27 136.5t-74.5 112.5t-111.5 76t-138 28h-494v-703h439z" />
    <glyph glyph-name="S" unicode="S" horiz-adv-x="1283" 
d="M105 267q20 20 33 31t33 11q11 0 19 -7t13 -14q42 -47 92.5 -83.5t107 -61.5t115.5 -38t117 -13q81 0 160.5 18t142.5 57.5t102 101.5t39 150q0 51 -19.5 90.5t-53.5 69t-79 51t-95.5 37.5t-103.5 28.5l-103 23.5q-124 28 -216.5 63t-153.5 81t-91 105t-30 136
q0 92 36.5 166t103.5 126t162 80t212 28q131 0 247.5 -44.5t208.5 -135.5q13 -13 19.5 -20.5t6.5 -15.5t-10 -18.5t-30 -29.5l-15 -13t-12 -5q-13 0 -35 19q-35 30 -73.5 57t-84.5 48t-101.5 33.5t-123.5 12.5q-98 0 -171 -22.5t-122 -61.5t-73.5 -91t-24.5 -110
q0 -44 16 -79t44.5 -62t67 -48t83 -37.5t93.5 -29.5t98 -24l120.5 -30t122.5 -37t113.5 -50t94 -69t64 -93t23.5 -123q0 -110 -44 -193t-120 -139t-178.5 -84.5t-218.5 -28.5q-76 0 -149 13.5t-139.5 43t-125.5 75t-108 108.5q-7 8 -11 15t-4 16q0 8 9 16z" />
    <glyph glyph-name="T" unicode="T" horiz-adv-x="1267" 
d="M1156 1486q17 0 27.5 -9t12.5 -27v-41q0 -17 -10 -28t-30 -11h-464v-1333q0 -37 -37 -37h-41q-37 0 -37 37v1333h-468q-36 0 -36 39v41q0 17 9.5 26.5t26.5 9.5h1047z" />
    <glyph glyph-name="A" unicode="A" horiz-adv-x="1457" 
d="M79 34l28.5 74.5l28.5 69.5l162 390l123 294l91 217l67 159.5l50.5 120.5l42.5 101q5 13 13.5 21t24.5 8h29q17 0 25 -8t14 -19l590 -1416q0 -2 1.5 -8.5t1.5 -10.5q0 -22 -31 -27h-43q-2 0 -4 -0.5t-4 -0.5q-26 0 -37 29l-143 345h-770l-71.5 -173l-70.5 -174
q-10 -26 -35 -26q-6 0 -10 1h-43q-31 3 -31 25q0 5 1 8zM725 1311l-169 -412l-169 -412h675z" />
    <glyph glyph-name="U" unicode="U" horiz-adv-x="1500" 
d="M259 595q0 -106 36.5 -198.5t102 -160.5t156 -107.5t198.5 -39.5q110 0 201 39.5t156 108t101 160.5t36 198v855q0 16 10 26t28 10h38q17 0 28 -9.5t11 -26.5v-870q-1 -131 -49 -241.5t-130.5 -191t-193 -126t-236.5 -45.5q-84 0 -162 21.5t-145.5 61.5t-123 95.5
t-95 123t-61.5 145.5t-22 162v865q0 14 9 25t26 11h44q14 0 25.5 -10t11.5 -26v-855z" />
    <glyph glyph-name="V" unicode="V" horiz-adv-x="1385" 
d="M690 185l77.5 188.5l89 214l94.5 228l94.5 229l89.5 217.5l80 195q11 28 37 28h52q31 -4 31 -29q0 -2 -0.5 -9t-2.5 -9l-588 -1412q-5 -11 -12 -19t-27 -8h-29q-16 0 -25 7.5t-15 21.5l-585 1398q-2 4 -5 13.5t-3 20.5q0 20 30 25h44q17 0 26.5 -4.5t17.5 -21.5
l79.5 -195l90.5 -218l95.5 -229.5l95 -228.5l89.5 -214.5z" />
    <glyph glyph-name="W" unicode="W" horiz-adv-x="2060" 
d="M1213 1462q3 5 10.5 14t22.5 9h48q23 -1 28.5 -8.5t-4.5 -30.5l-234 -560l147.5 -355l147.5 -354l531 1282q6 14 14 21.5t22 6.5h8h47q20 -3 24.5 -13t-0.5 -26l-592 -1420q-3 -9 -8 -15q-5 -5 -12.5 -9.5t-18.5 -4.5h-30q-18 0 -27.5 8t-11.5 21l-301 717l-299 -717
q-5 -17 -16 -23t-24 -6h-27q-17 0 -26 8.5t-13 20.5l-591 1417q0 3 -1.5 8.5t-1.5 9.5q0 19 28 23h57q23 0 35 -28l264 -640.5l266 -640.5z" />
    <glyph glyph-name="X" unicode="X" horiz-adv-x="1240" 
d="M618 838l407 602q19 28 34 36t40 8h38q32 0 34 -10.5t-19 -42.5l-469 -689l475 -701q28 -42 -12 -42h-52q-36 0 -56 31l-420 617l-420 -617q-20 -31 -56 -31h-52q-40 0 -12 42l475 701l-469 689q-21 32 -19 42.5t34 10.5h38q25 0 40 -8t34 -36z" />
    <glyph glyph-name="Y" unicode="Y" horiz-adv-x="1196" 
d="M67 1428q-14 25 -6 41t33 16h35q11 0 18.5 -1.5t14 -6t13.5 -14.5t16 -26l400 -671l414 684q22 35 50 35h49q46 0 19 -46l-473 -786v-607q0 -46 -46 -46h-24q-44 0 -44 46v599z" />
    <glyph glyph-name="Z" unicode="Z" horiz-adv-x="1278" 
d="M1150 115q37 0 37 -37v-40q0 -17 -10 -27.5t-27 -10.5h-1064q-26 0 -32.5 16.5t-6.5 41.5v28.5t12 25.5l971 1258h-910q-38 0 -38 38v42q0 36 38 36h1033q16 0 27 -10t11 -27v-47q0 -18 -10 -28l-969 -1259h938z" />
    <glyph glyph-name="bar" unicode="|" horiz-adv-x="502" 
d="M160 1514q0 18 11 31t33 13h24q18 0 32 -12t14 -32v-1923q0 -46 -46 -46h-24q-44 0 -44 46v1923z" />
    <glyph glyph-name="brokenbar" unicode="&#xa6;" horiz-adv-x="497" 
d="M189 1484q0 16 9.5 26t27.5 10h41q16 0 27 -9.5t11 -26.5v-768q0 -36 -38 -36h-41q-37 0 -37 36v768zM189 385q0 16 9.5 26.5t27.5 10.5h41q16 0 27 -10t11 -27v-772q0 -36 -38 -36h-41q-37 0 -37 36v772z" />
    <glyph glyph-name="bracketleft" unicode="[" horiz-adv-x="497" 
d="M160 1695q0 15 9 24t24 9h267q15 0 24.5 -9t9.5 -24v-48q0 -35 -34 -35h-184v-1754h184q14 0 24 -9t10 -25v-48q-1 -33 -34 -33h-267q-15 0 -24 8t-9 25v1919z" />
    <glyph glyph-name="bracketright" unicode="]" horiz-adv-x="497" 
d="M337 -227q0 -34 -33 -34h-265q-32 0 -35 34v48q0 15 10.5 24.5t24.5 9.5h183v1753h-183q-35 0 -35 36v47q0 15 10 24t25 9h265q33 0 33 -33v-1918z" />
    <glyph glyph-name="braceleft" unicode="{" horiz-adv-x="600" 
d="M612 1731q19 0 31.5 -11t12.5 -33v-26q0 -20 -12 -32t-32 -12q-44 -7 -81.5 -28t-65 -52t-43.5 -71t-16 -84v-500q0 -17 -5.5 -36.5t-16.5 -40t-27.5 -40t-38.5 -35.5q42 -26 65 -67.5t23 -79.5v-508q0 -46 16 -86.5t43.5 -72t65 -52t81.5 -27.5q19 0 31.5 -11t12.5 -33
v-26q0 -20 -12 -32t-32 -12q-68 6 -126.5 35.5t-101.5 76t-68 108t-25 132.5v464q0 23 -12 47t-31.5 43.5t-43.5 31.5t-47 12h-22q-20 0 -32 12t-12 32v27q0 21 13 32.5t31 11.5h18q29 0 54 11t44 30t29.5 44.5t10.5 54.5v454q0 69 25 130t68 107.5t101.5 76t126.5 35.5z
" />
    <glyph glyph-name="underscore" unicode="_" horiz-adv-x="903" 
d="M895 -121q17 0 27 -9t10 -27v-42q0 -17 -10 -27.5t-27 -10.5h-871q-37 0 -37 38v42q0 36 37 36h871z" />
    <glyph glyph-name="endash" unicode="&#x2013;" horiz-adv-x="1342" 
d="M1141 609q17 0 27 -9t10 -27v-42q0 -17 -10 -27.5t-27 -10.5h-940q-38 0 -38 38v42q0 36 38 36h940z" />
    <glyph glyph-name="bullet" unicode="&#x2022;" horiz-adv-x="453" 
d="M114 557q0 23 9 43.5t24.5 35.5t36 24t43.5 9t43.5 -9t35.5 -24t24 -35.5t9 -43.5t-9 -43.5t-24 -35.5t-35.5 -24t-43.5 -9t-43.5 9t-36 24t-24.5 35.5t-9 43.5z" />
    <glyph glyph-name="asciicircum" unicode="^" horiz-adv-x="977" 
d="M467 1647q3 3 9.5 6.5t11.5 3.5q6 -1 11.5 -4.5t9.5 -6.5l145 -145.5l145 -144.5l24 -26q7 -9 7 -17q-1 -8 -5 -13t-9 -10l-29 -28q-5 -5 -12 -8.5t-15 -3.5t-20 10l-251 254l-251 -255q-9 -9 -19 -9q-15 0 -29 12l-35 34q-6 7 -6 17q0 7 4.5 13l8.5 11z" />
    <glyph glyph-name="backslash" unicode="\" horiz-adv-x="930" 
d="M829 42q5 -15 5 -21q0 -21 -29 -21h-42q-34 0 -48 31l-546 1401q-8 19 -8 33q0 11 9 15.5t30 4.5h29q24 0 37 -8t24 -36z" />
    <glyph glyph-name="asciitilde" unicode="~" horiz-adv-x="1042" 
d="M831 647q6 3 13 3t18 -6l41 -33q11 -9 11 -21q0 -8 -6 -21q-45 -72 -106.5 -103.5t-127.5 -31.5q-41 0 -79 13.5t-76 37.5q-20 12 -38.5 25t-38 23t-39.5 16.5t-41 6.5q-25 0 -49 -7.5t-43 -24.5q-9 -8 -17.5 -19.5t-18 -22t-19.5 -18.5t-21 -8t-23 8t-23 18.5t-18 20.5
t-7 14q0 8 7 20t13 18q42 56 91.5 85t112.5 33h33q35 -2 71 -15.5t70 -35.5l58 -38q26 -14 49 -23.5t49 -9.5q52 0 91 33q6 6 15 16.5l18 21t17 18t13 7.5z" />
    <glyph glyph-name="braceright" unicode="}" horiz-adv-x="600" 
d="M15 1731q68 -6 126.5 -35.5t102 -76t68 -107.5t24.5 -130v-454q0 -29 11 -54.5t29.5 -44.5t44 -30t54.5 -11h18q18 0 31 -11.5t13 -32.5v-27q0 -20 -12 -32t-32 -12h-22q-23 0 -47 -12t-43.5 -31.5t-32 -43.5t-12.5 -47v-464q0 -71 -24.5 -132.5t-68 -108t-102 -76
t-126.5 -35.5q-20 0 -32 12t-12 32v26q0 22 13 33t31 11q44 7 82 27.5t65.5 52t43.5 72t16 86.5v508q0 38 23 79.5t65 67.5q-22 16 -38.5 35.5t-27.5 40t-16.5 40t-5.5 36.5v500q0 44 -16 84t-43.5 71t-65.5 52t-82 28q-20 0 -32 12t-12 32v26q0 22 13 33t31 11z" />
    <glyph glyph-name="Euro" unicode="&#x20ac;" horiz-adv-x="1488" 
d="M712 930q18 0 31 -11t13 -33v-24q0 -18 -12 -32t-32 -14h-616q-46 0 -46 46v24q0 44 46 44h616zM715 651q18 0 31 -11t13 -33v-24q0 -18 -12 -32t-32 -14h-616q-46 0 -46 46v24q0 44 46 44h616zM1389 1342q18 -11 20.5 -25.5t-7.5 -26.5l-27 -34q-13 -17 -26.5 -18.5
t-41.5 18.5q-86 63 -183 98.5t-202 35.5q-92 0 -176 -24t-156.5 -67.5t-131.5 -103.5t-101 -132t-65 -153t-23 -166q0 -86 24.5 -168.5t68 -155t103.5 -133t131 -104.5t151 -68.5t164 -24.5q51 0 105.5 10t107.5 29t103.5 46.5t92.5 62.5q15 11 31.5 8.5t30.5 -24.5l15 -24
q8 -14 6.5 -32t-19.5 -30q-38 -29 -80.5 -54t-88.5 -45q-141 -59 -299 -59q-105 0 -202 27t-181.5 77t-154.5 119.5t-119.5 155t-77 183.5t-27.5 204q0 104 27 201.5t77 182t119.5 154t155 119t183.5 77t204 27.5q155 0 295 -60q48 -21 91 -46t83 -57z" />
    <glyph glyph-name="space" unicode=" " horiz-adv-x="627" 
 />
    <glyph glyph-name="grave" unicode="`" horiz-adv-x="517" 
d="M352 1214q16 -38 -21 -38h-41q-17 0 -30 7.5t-23 30.5l-100 234q-15 36 21 36h42q37 0 52 -36z" />
    <glyph glyph-name="ellipsis" unicode="&#x2026;" horiz-adv-x="1297" 
d="M141 72q0 19 7.5 36t20 29.5t29.5 20t36 7.5t36 -7.5t30 -20t20 -29.5t7 -36t-7 -36t-20 -29.5t-30 -20t-36 -7.5t-36 7.5t-29.5 20t-20 29.5t-7.5 36zM531 72q0 19 7 36t19.5 29.5t29.5 20t36 7.5q20 0 37 -7.5t29.5 -20t19.5 -29.5t7 -36t-7 -36t-19.5 -29.5t-29.5 -20
t-37 -7.5q-19 0 -36 7.5t-29.5 20t-19.5 29.5t-7 36zM908 72q0 19 7.5 36t20 29.5t29.5 20t36 7.5t36 -7.5t30 -20t20 -29.5t7 -36t-7 -36t-20 -29.5t-30 -20t-36 -7.5t-36 7.5t-29.5 20t-20 29.5t-7.5 36z" />
    <glyph glyph-name="quoteleft" unicode="&#x2018;" horiz-adv-x="477" 
d="M293 1276q0 -19 -7 -35.5t-19.5 -28.5t-29 -19t-34.5 -7q-45 0 -67.5 30.5t-22.5 76.5q0 48 9 85t22 62t27.5 37.5t25.5 12.5q8 0 16 -6l20 -16q8 -8 8 -18q0 -6 -5 -12.5t-10.5 -15t-10.5 -19.5t-5 -27v-10h1l12 -3q29 -7 49.5 -31.5t20.5 -55.5z" />
    <glyph glyph-name="quoteright" unicode="&#x2019;" horiz-adv-x="471" 
d="M135 1409q0 38 26.5 63.5t63.5 25.5q44 0 67 -30t23 -77q0 -48 -9 -85t-22.5 -62t-28 -37.5t-24.5 -12.5q-8 0 -15 6l-20 16q-9 9 -9 18q0 7 5 13.5t10.5 14.5t10.5 19t5 28v10q-17 0 -32 8t-26 20.5t-18 28.5t-7 33z" />
    <glyph glyph-name="quotedblleft" unicode="&#x201c;" horiz-adv-x="748" 
d="M343 1276q0 -19 -7 -35.5t-19.5 -28.5t-29 -19t-34.5 -7q-45 0 -67.5 30.5t-22.5 76.5q0 48 9 85t22 62t27.5 37.5t25.5 12.5q8 0 16 -6l20 -16q8 -8 8 -18q0 -6 -5 -12.5t-10.5 -15t-10.5 -19.5t-5 -27v-10h1l12 -3q29 -7 49.5 -31.5t20.5 -55.5zM598 1276
q0 -19 -7 -35.5t-19 -28.5t-28.5 -19t-34.5 -7q-45 0 -67.5 30.5t-22.5 76.5q0 48 9 85t22 62t27.5 37.5t25.5 12.5q7 0 15 -6l20 -16q8 -8 8 -18q0 -7 -5 -14l-10.5 -15t-10.5 -19t-5 -26v-10h1l13 -3q29 -7 49 -31.5t20 -55.5z" />
    <glyph glyph-name="quotedblright" unicode="&#x201d;" horiz-adv-x="697" 
d="M378 1411q0 19 7 35.5t19.5 28.5t29 19t34.5 7q45 0 67.5 -30.5t22.5 -76.5q0 -48 -9 -85t-22 -62t-27.5 -37.5t-25.5 -12.5q-9 0 -16 6l-20 16q-8 8 -8 18q0 6 5 12.5t10.5 15t10.5 19.5t5 27v10h-1l-12 3q-29 7 -49.5 31.5t-20.5 55.5zM123 1411q0 19 7 35.5t19 28.5
t28.5 19t34.5 7q45 0 67.5 -30.5t22.5 -76.5q0 -48 -9 -85t-22 -62t-27.5 -37.5t-25.5 -12.5q-8 0 -15 6l-20 16q-8 8 -8 18q0 7 5 13.5t10.5 15t10.5 19.5t5 26v10h-1l-13 3q-29 7 -49 31.5t-20 55.5z" />
    <glyph glyph-name="sterling" unicode="&#xa3;" horiz-adv-x="1201" 
d="M608 759q32 0 32 -31v-52q0 -31 -32 -31h-329v-530h801q31 0 31 -31v-52q0 -32 -31 -32h-885q-30 0 -30 29v616h-55q-30 0 -30 31v52q0 31 30 31h55v225q0 111 42.5 205.5t116 163.5t172 108t210.5 39q47 0 95 -9.5t94 -27t89 -41.5t79 -54q8 -5 10.5 -14t-2.5 -17
l-35 -53q-9 -15 -21 -15q-8 0 -18 8l-20 16q-55 44 -125.5 70.5t-146.5 26.5q-88 0 -165.5 -30.5t-135.5 -85t-91.5 -129.5t-33.5 -163v-223h329z" />
    <glyph glyph-name="dagger" unicode="&#x2020;" horiz-adv-x="854" 
d="M359 1451q0 16 9.5 26t28.5 10h36q17 0 27 -9.5t10 -26.5v-837h263q16 0 26 -9.5t10 -27.5v-38q0 -17 -9.5 -27t-26.5 -10h-263v-855q0 -37 -37 -37h-36q-38 0 -38 37v855h-263q-37 0 -37 37v38q0 37 37 37h263v837z" />
    <glyph glyph-name="daggerdbl" unicode="&#x2021;" horiz-adv-x="884" 
d="M743 367q16 0 26 -9.5t10 -27.5v-38q0 -17 -9.5 -27t-26.5 -10h-263v-608q0 -37 -37 -37h-36q-38 0 -38 37v608h-263q-37 0 -37 37v38q0 37 37 37h263v367h-263q-37 0 -37 37v38q0 37 37 37h263v605q0 16 9.5 26t28.5 10h36q17 0 27 -9.5t10 -26.5v-605h263q16 0 26 -9.5
t10 -27.5v-38q0 -17 -9.5 -27t-26.5 -10h-263v-367h263z" />
    <glyph glyph-name="florin" unicode="&#x192;" horiz-adv-x="618" 
d="M24 -392q-19 0 -31.5 11.5t-12.5 32.5v27q0 20 12 31t32 13q43 2 81 23t65.5 53.5t43.5 73.5t16 85v957h-160q-20 0 -32 14t-12 32v25q0 21 13 32.5t31 11.5h160v132q0 69 25 130t69 107.5t103 76t127 35.5q18 0 31 -11t13 -33v-24q0 -18 -12 -32t-32 -14
q-45 -6 -83.5 -26t-66.5 -51.5t-43.5 -72t-15.5 -85.5v-132h179q18 0 31 -11.5t13 -32.5v-25q0 -18 -12 -32t-32 -14h-179v-957q0 -70 -25 -131t-68 -107.5t-102 -75.5t-126 -36z" />
    <glyph glyph-name="trademark" unicode="&#x2122;" horiz-adv-x="1348" 
d="M101 1470q0 6 6 11.5t16 5.5h416q22 0 22 -17v-75q0 -8 -5.5 -14t-16.5 -6h-152v-477q0 -7 -5.5 -13.5t-12.5 -6.5h-75q-5 0 -12 6.5t-7 13.5v477h-152q-10 0 -16 6t-6 14v75zM596 1470q0 6 4.5 11.5t12.5 5.5h113q14 0 17 -13l132 -383l134 383q2 7 8.5 10t11.5 3h108
q7 0 13.5 -5.5t6.5 -11.5l28 -575q0 -17 -22 -17h-72q-18 0 -18 17l-24 403l-123 -378q-4 -8 -6.5 -12t-9.5 -4h-68q-9 0 -15 16l-123 378l-25 -403q0 -17 -19 -17h-75q-18 0 -18 17z" />
    <glyph glyph-name="tilde" unicode="&#x2dc;" horiz-adv-x="707" 
d="M88 1201q-9 -6 -17 -6q-11 0 -19.5 6.5t-15 15t-10 15.5t-3.5 8q0 6 8 17q40 56 82 79.5t96 23.5q28 0 55.5 -11.5t53.5 -28.5l51 -33q35 -22 68 -22h5q24 2 42 14.5t32 27l26 26t23 11.5q9 0 18 -5.5t16.5 -13t12 -15t4.5 -11.5q0 -5 -4.5 -12.5t-6.5 -9.5
q-37 -53 -80 -75.5t-94 -22.5q-28 0 -56.5 11t-54.5 28l-46 30q-16 11 -33 18t-36 7q-43 0 -71 -25q-4 -4 -10.5 -11.5l-13.5 -15.5t-13 -14t-9 -6z" />
    <glyph glyph-name="circumflex" unicode="&#x2c6;" horiz-adv-x="748" 
d="M348 1507q23 22 51 -4l217 -219q14 -11 13 -27.5t-13 -27.5l-13 -13q-13 -14 -28.5 -13t-26.5 11l-176 174l-174 -174q-11 -12 -27 -12t-27 12l-18 17q-13 14 -11.5 28t11.5 25z" />
    <glyph glyph-name="yen" unicode="&#xa5;" horiz-adv-x="1192" 
d="M527 449v135h-252q-46 0 -46 46v24q0 44 46 44h204l-421 730q-9 15 -9 28q0 29 36 29h35q11 0 18.5 -1.5t14 -6t13.5 -14.5t16 -26l400 -698l414 711q20 35 50 35h49q29 0 29 -19q0 -9 -10 -27l-430 -741h207q18 0 31 -11t13 -33v-24q0 -18 -12 -32t-32 -14h-250v-135
h250q18 0 31 -11t13 -33v-24q0 -18 -12 -32t-32 -14h-250v-289q0 -46 -46 -46h-24q-44 0 -44 46v289h-252q-46 0 -46 46v24q0 44 46 44h252z" />
    <glyph glyph-name="emdash" unicode="&#x2014;" horiz-adv-x="1672" 
d="M1473 609q17 0 27.5 -9t10.5 -27v-42q0 -17 -10.5 -27t-27.5 -10h-1271q-38 0 -38 37v42q0 36 38 36h1271z" />
    <glyph glyph-name="guilsinglright" unicode="&#x203a;" horiz-adv-x="867" 
d="M213 13q-12 -12 -29 -12q-18 0 -32 14l-18 18q-6 6 -10 15t-4 18q0 17 12 29l464 464l-464 466q-12 13 -12 32q0 8 3 16t11 16l16 15q8 7 16.5 11.5t18.5 3.5q16 0 28 -12l517 -515q16 -16 16 -32q0 -14 -11 -25z" />
    <glyph glyph-name="N" unicode="N" horiz-adv-x="1563" 
d="M1284 1452q2 34 36 34h45q34 0 34 -32v-1421q-2 -33 -37 -33h-47q-20 0 -33 16l-1008 1277v-1257q0 -36 -37 -36h-42q-36 0 -36 36v1413q0 16 8 26t25 10h63q11 0 19 -10l246 -310l258.5 -324.5l259 -324.5l246.5 -310v1246z" />
    <glyph glyph-name="acute" unicode="&#xb4;" horiz-adv-x="497" 
d="M308 1448q15 36 52 36h42q36 0 21 -36l-100 -234q-10 -23 -23 -30.5t-30 -7.5h-41q-37 0 -21 38z" />
    <glyph glyph-name="dieresis" unicode="&#xa8;" horiz-adv-x="884" 
d="M153 1249q0 36 25.5 61.5t61.5 25.5q38 0 63 -25.5t25 -61.5t-25 -61.5t-63 -25.5q-36 0 -61.5 25.5t-25.5 61.5zM517 1250q0 36 25.5 61.5t61.5 25.5q37 0 62 -25.5t25 -61.5t-25 -61.5t-62 -25.5q-36 0 -61.5 25.5t-25.5 61.5z" />
    <glyph glyph-name="mu" unicode="&#xb5;" horiz-adv-x="1140" 
d="M571 -18q-49 0 -92.5 12t-81 33.5t-69 51.5t-56.5 65v-492q0 -17 -10 -27t-27 -10h-41q-19 0 -28.5 10t-9.5 27v1291q0 36 38 36h42q36 0 36 -36v-557q1 -61 25.5 -114.5t65 -93t94 -62.5t114.5 -23h4q61 0 116 23t96.5 62.5t66.5 93t27 115.5v557q0 36 37 36h41
q39 0 39 -36v-905q0 -15 -4 -23t-14 -11.5t-27.5 -4t-44.5 -0.5q-23 0 -23 22l-4 133q-25 -36 -58 -67.5t-72.5 -54.5t-85 -37t-94.5 -14z" />
    <glyph glyph-name="periodcentered" unicode="&#xb7;" horiz-adv-x="455" 
d="M144 554q0 19 7.5 36t20 30t29.5 20t36 7q39 0 66 -27t27 -66q0 -19 -7 -36t-20 -29.5t-30 -19.5t-36 -7t-36 7t-29.5 19.5t-20 29.5t-7.5 36z" />
    <glyph glyph-name="cedilla" unicode="&#xb8;" horiz-adv-x="557" 
d="M171 20q0 37 29 37h41q17 0 22 -14t5 -28v-18q0 -12 -0.5 -28.5t1 -32t6.5 -26t15 -10.5q54 -21 80 -59.5t26 -108.5q0 -32 -9.5 -62.5t-29.5 -56.5t-51 -46.5t-74 -32.5q-5 -2 -12 -3t-14 -1q-10 0 -18 7.5t-14 18.5t-9 22.5t-3 20.5q0 11 6.5 18t16.5 9q57 7 83 37
t26 69q0 27 -9 41.5t-23 23t-29.5 14.5t-29.5 17.5t-23 31t-9 55.5v105z" />
    <glyph glyph-name="degree" unicode="&#xb0;" horiz-adv-x="651" 
d="M324 1275q49 0 91.5 -18.5t74.5 -50.5t50.5 -75t18.5 -92q0 -51 -18.5 -94t-50.5 -74.5t-75 -49.5t-91 -18q-49 0 -92 18t-75 49.5t-50.5 74.5t-18.5 94q0 49 18.5 92t50.5 75t75 50.5t92 18.5zM324 1198q-34 0 -63 -12.5t-50.5 -34.5t-33.5 -50.5t-12 -61.5
q0 -34 12 -63t33.5 -50.5t50.5 -33.5t63 -12q33 0 62 12t50.5 33.5t34 50.5t12.5 63q0 33 -12.5 61.5t-34 50.5t-50.5 34.5t-62 12.5z" />
    <glyph glyph-name="dotaccent" unicode="&#x2d9;" horiz-adv-x="517" 
d="M155 1268q0 19 7.5 36t20 30t29.5 20t36 7q39 0 66 -27t27 -66q0 -19 -7 -36t-20 -29.5t-30 -19.5t-36 -7t-36 7t-29.5 19.5t-20 29.5t-7.5 36z" />
    <glyph glyph-name="breve" unicode="&#x2d8;" horiz-adv-x="653" 
d="M331 1229q-47 1 -86.5 18t-68.5 44.5t-45.5 63.5t-16.5 75q0 14 8 26.5t25 12.5h34q18 0 25.5 -11.5t7.5 -26.5q0 -18 7.5 -36.5t22.5 -33.5t36.5 -24.5t48.5 -10.5q28 0 50.5 9.5t38 24.5t23.5 34t8 37q0 15 7.5 26.5t25.5 11.5h34q17 0 25 -12.5t8 -26.5
q0 -39 -16.5 -75t-45.5 -63.5t-69 -44.5t-86 -18l-1 1v-1v0z" />
    <glyph glyph-name="ogonek" unicode="&#x2db;" horiz-adv-x="554" 
d="M382 -85q0 -35 -9 -55t-23 -31.5t-29.5 -17.5t-29.5 -14.5t-23 -23t-9 -41.5q0 -39 26 -69t83 -37q10 -2 16.5 -9t6.5 -18q0 -9 -3 -20.5t-9 -22.5t-14 -18.5t-18 -7.5q-7 0 -14 1t-12 3q-43 12 -74 32.5t-51 46.5t-29.5 56.5t-9.5 62.5q0 70 26 108.5t80 59.5
q10 0 15 10.5t6.5 26t1 32t-0.5 28.5v18q0 14 5 28t22 14h41q29 0 29 -37v-105z" />
    <glyph glyph-name="IJ" unicode="&#x132;" horiz-adv-x="877" 
d="M159 1450q0 36 37 36h42q17 0 26.5 -9.5t9.5 -26.5v-1414q0 -36 -36 -36h-42q-37 0 -37 36v1414zM601 1450q0 17 8.5 26.5t26.5 9.5h43q36 0 36 -36v-1479q0 -74 -28 -136t-75 -107t-109.5 -70t-132.5 -25q-76 0 -145 25t-117 75q-5 6 -9 13t-4 15q0 7 9 19t20.5 22.5
t22.5 18.5t16 8q11 0 21 -10q12 -12 28 -25t38.5 -23.5t51.5 -17.5t66 -7q51 0 93 19t73 51t48 73t19 85v1476z" />
    <glyph glyph-name="plusminus" unicode="&#xb1;" horiz-adv-x="994" 
d="M553 316q0 -17 -9 -27.5t-27 -10.5h-41q-17 0 -28 10t-11 28v264h-262q-37 0 -37 37v42q0 37 37 37h262v262q0 38 39 38h41q36 0 36 -38v-262h265q17 0 27 -9t10 -28v-42q0 -17 -10 -27t-27 -10h-265v-264zM175 0q-37 0 -37 37v42q0 37 37 37h643q17 0 27 -9.5t10 -27.5
v-42q0 -17 -10 -27t-27 -10h-643z" />
    <glyph glyph-name="fraction" unicode="&#x2044;" horiz-adv-x="988" 
d="M790 1441q16 28 29.5 36t38.5 8h29q36 0 36 -16q-1 -6 -3.5 -15.5t-9.5 -21.5l-754 -1401q-19 -31 -53 -31h-42q-26 0 -26 16q0 9 9 26z" />
    <glyph glyph-name="dotlessi" unicode="&#x131;" horiz-adv-x="434" 
d="M160 943q0 17 10.5 27t27.5 10h41q18 0 27.5 -10.5t9.5 -26.5v-907q0 -36 -36 -36h-41q-39 0 -39 36v907z" />
    <glyph glyph-name="guillemotright" unicode="&#xbb;" horiz-adv-x="1382" 
d="M693 13q-11 -12 -28 -12q-19 0 -33 14l-18 18q-13 13 -13 33q0 18 11 29l464 464l-464 466q-12 15 -12 32q0 8 3 16t11 16l16 15q8 7 16.5 11.5t18.5 3.5q16 0 28 -12l517 -515q17 -17 17 -32q0 -13 -12 -25zM235 13q-11 -12 -28 -12q-19 0 -33 14l-18 18q-13 13 -13 33
q0 18 11 29l464 464l-464 466q-12 15 -12 32q0 8 3 16t11 16l16 15q8 7 16.5 11.5t18.5 3.5q16 0 28 -12l517 -515q17 -17 17 -32q0 -13 -12 -25z" />
    <glyph glyph-name="guillemotleft" unicode="&#xab;" horiz-adv-x="1379" 
d="M154 535q-12 12 -12 25q0 15 17 32l517 515q12 12 28 12q10 1 18.5 -3.5t16.5 -11.5l16 -15q8 -8 11 -16t3 -16q0 -17 -12 -32l-464 -466l464 -464q11 -11 11 -29q0 -20 -13 -33l-18 -18q-14 -14 -33 -14q-18 0 -28 12zM612 535q-12 12 -12 25q0 15 17 32l517 515
q12 12 28 12q10 1 18.5 -3.5t16.5 -11.5l16 -15q8 -8 11 -16t3 -16q0 -17 -12 -32l-464 -466l464 -464q11 -11 11 -29q0 -20 -13 -33l-18 -18q-14 -14 -33 -14q-18 0 -28 12z" />
    <glyph glyph-name="minus" unicode="&#x2212;" horiz-adv-x="1029" 
d="M842 609q17 0 27.5 -9t10.5 -27v-42q0 -17 -10.5 -27t-27.5 -10h-640q-38 0 -38 37v42q0 36 38 36h640z" />
    <glyph glyph-name="figuredash" unicode="&#x2012;" horiz-adv-x="1051" 
d="M842 609q17 0 27.5 -9t10.5 -27v-42q0 -17 -10.5 -27t-27.5 -10h-640q-38 0 -38 37v42q0 36 38 36h640z" />
    <glyph glyph-name="uni00AD" unicode="&#xad;" horiz-adv-x="1057" 
d="M858 594q18 0 31 -11t13 -33v-24q0 -18 -12 -32t-32 -14h-616q-46 0 -46 46v24q0 44 46 44h616z" />
    <glyph glyph-name="onedotenleader" unicode="&#x2024;" horiz-adv-x="594" 
d="M146 72q0 19 7 36t19.5 29.5t29.5 20t36 7.5q20 0 37 -7.5t29.5 -20t19.5 -29.5t7 -36t-7 -36t-19.5 -29.5t-29.5 -20t-37 -7.5q-19 0 -36 7.5t-29.5 20t-19.5 29.5t-7 36z" />
    <glyph glyph-name="twodotenleader" unicode="&#x2025;" horiz-adv-x="915" 
d="M145 72q0 19 7.5 36t20 29.5t29.5 20t36 7.5t36 -7.5t30 -20t20 -29.5t7 -36t-7 -36t-20 -29.5t-30 -20t-36 -7.5t-36 7.5t-29.5 20t-20 29.5t-7.5 36zM560 72q0 19 7 36t19.5 29.5t29.5 20t36 7.5q20 0 37 -7.5t29.5 -20t19.5 -29.5t7 -36t-7 -36t-19.5 -29.5t-29.5 -20
t-37 -7.5q-19 0 -36 7.5t-29.5 20t-19.5 29.5t-7 36z" />
    <glyph glyph-name="exclamdbl" unicode="&#x203c;" horiz-adv-x="990" 
d="M162 1450q0 36 37 36h41q37 0 37 -36v-1018q0 -37 -37 -37h-41q-37 0 -37 37v1018zM127 72q0 19 7 36t19.5 29.5t29.5 20t36 7.5q20 0 37 -7.5t29.5 -20t19.5 -29.5t7 -36t-7 -36t-19.5 -29.5t-29.5 -19.5t-37 -7q-19 0 -36 7t-29.5 19.5t-19.5 29.5t-7 36zM605 1450
q0 36 37 36h42q36 0 36 -36v-1018q0 -37 -36 -37h-42q-37 0 -37 37v1018zM570 72q0 19 7.5 36t20 29.5t29.5 20t36 7.5t36 -7.5t30 -20t20 -29.5t7 -36t-7 -36t-20 -29.5t-30 -19.5t-36 -7t-36 7t-29.5 19.5t-20 29.5t-7.5 36z" />
    <glyph glyph-name="twosuperior" unicode="&#xb2;" horiz-adv-x="836" 
d="M104 670q-11 0 -18.5 7.5t-7.5 18.5v52q0 6 3 14l372 367q33 32 44.5 58.5t11.5 58.5q0 31 -13 58t-35.5 47t-52 31.5t-63.5 11.5q-33 0 -62.5 -12.5t-51.5 -33.5t-34.5 -49.5t-12.5 -60.5t-6 -40t-26 -8h-51q-11 1 -17 5t-6 19v24q0 56 21.5 103t58 81t85 53t102.5 19
q56 0 106 -17.5t87.5 -49.5t59 -77t21.5 -101q0 -55 -21.5 -100t-53.5 -77l-306 -298h369q11 0 18.5 -5t7.5 -19v-54q0 -10 -7.5 -18t-18.5 -8h-503z" />
    <glyph glyph-name="threesuperior" unicode="&#xb3;" horiz-adv-x="757" 
d="M47 918q0 12 4.5 18.5t16.5 6.5h59q22 0 22 -24q0 -32 12.5 -60.5t34 -50t50 -34t60.5 -12.5t61 12.5t50.5 34t34.5 50t13 60.5t-13 61t-34.5 50.5t-50.5 34.5t-61 13q-24 0 -24 23v53q0 24 25 24q22 1 41.5 9.5t34.5 23t23.5 34t8.5 41.5t-8.5 42t-23 35t-34.5 23.5
t-43 8.5t-42 -8.5t-33.5 -23.5t-22.5 -35t-8 -42q0 -14 -5 -19t-17 -5h-61q-20 0 -20 25q0 43 16.5 81.5t45 67t66.5 45t81 16.5t81.5 -16.5t66.5 -45t44.5 -67t16.5 -81.5q0 -45 -17.5 -84t-47.5 -68q53 -35 84.5 -91.5t31.5 -125.5q0 -54 -20.5 -101t-55.5 -82
t-82.5 -55.5t-101.5 -20.5t-101 20.5t-82 55.5t-55.5 82t-20.5 101z" />
    <glyph glyph-name="onesuperior" unicode="&#xb9;" horiz-adv-x="469" 
d="M248 1487q26 0 26 -24v-769q0 -24 -25 -24h-56q-25 0 -25 24v676l-68 -32q-15 -6 -22 -2t-7 14v65q0 18 20 27l98 45h59z" />
    <glyph glyph-name="ordmasculine" unicode="&#xba;" horiz-adv-x="1023" 
d="M111 1138q0 77 29 144t79 117t117.5 79t144.5 29q76 0 143.5 -29t117 -79t78.5 -117t29 -144q0 -81 -30 -149t-80.5 -117t-117.5 -76t-140 -27q-77 0 -144.5 29t-117.5 79t-79 117t-29 144zM214 1138q0 -56 21 -104t57 -84t84.5 -56.5t103.5 -20.5t103.5 20.5t84 56.5
t56 84t20.5 104q0 54 -20.5 102.5t-56 84.5t-84 57t-103.5 21t-103.5 -21t-84.5 -57t-57 -84.5t-21 -102.5z" />
    <glyph glyph-name="ordfeminine" unicode="&#xaa;" horiz-adv-x="1023" 
d="M774 1456q0 29 29 29h51q11 0 19.5 -8.5t8.5 -20.5v-660q0 -24 -20 -24l-4 -4h-73q-28 0 -28 28v91q-35 -62 -100 -97t-151 -35q-77 0 -144.5 29t-118 79t-80 118t-29.5 145q0 78 29.5 145.5t80 118t118 79.5t144.5 29q91 0 156 -38.5t101 -106.5zM255 1126
q0 -53 20 -98.5t54.5 -79t80 -53t96.5 -19.5q52 0 97 19t78.5 52t53.5 77.5t22 95.5v6q0 51 -19.5 97t-53.5 80t-80 54t-98 20q-51 0 -96.5 -20t-80 -54t-54.5 -80t-20 -97z" />
    <glyph glyph-name="onequarter" unicode="&#xbc;" horiz-adv-x="1364" 
d="M736 135q-14 0 -21 6t-8.5 15t1.5 19t9 18l183 292l182 292q8 11 16 24.5t23 13.5h56q25 -1 25 -35v-539h67q29 0 29 -29v-50q0 -27 -29 -27h-67v-109q0 -28 -28 -28h-49q-28 0 -28 28v109h-361zM1097 241v367l-118.5 -183.5l-118.5 -183.5h237zM337 1487q26 0 26 -24
v-769q0 -24 -25 -24h-56q-25 0 -25 24v676l-68 -32q-5 -2 -8.5 -3t-6.5 -1q-14 0 -14 16v65q0 18 20 27l98 45h59zM951 1441q16 28 29.5 36t38.5 8h29q36 0 36 -16q-1 -6 -3.5 -15.5t-9.5 -21.5l-754 -1401q-19 -31 -53 -31h-42q-26 0 -26 16q0 9 9 26z" />
    <glyph glyph-name="onehalf" unicode="&#xbd;" horiz-adv-x="1426" 
d="M277 1487q26 0 26 -24v-769q0 -24 -25 -24h-56q-25 0 -25 24v676l-68 -32q-15 -6 -22 -2t-7 14v65q0 18 20 27l98 45h59zM797 0q-11 0 -18.5 7.5t-7.5 18.5v52q0 6 3 14l372 367q33 32 44.5 58.5t11.5 58.5q0 31 -13 58t-35.5 47t-52 31.5t-63.5 11.5q-33 0 -62.5 -12.5
t-51.5 -33.5t-34.5 -49.5t-12.5 -60.5t-6 -40t-26 -8h-51q-11 1 -17 5t-6 19v24q0 56 21.5 103t58 81t85 53t102.5 19q56 0 106 -17.5t87.5 -49.5t59 -77t21.5 -101q0 -55 -21.5 -100t-53.5 -77l-306 -298h369q11 0 18.5 -5t7.5 -19v-54q0 -10 -7.5 -18t-18.5 -8h-503z
M891 1441q16 28 29.5 36t38.5 8h29q32 0 35.5 -10.5t-12.5 -42.5l-754 -1401q-19 -31 -53 -31h-42q-40 0 -17 42z" />
    <glyph glyph-name="threequarters" unicode="&#xbe;" horiz-adv-x="1446" 
d="M78 935q0 12 4.5 18.5t16.5 6.5h59q22 0 22 -24q0 -32 12.5 -60.5t34 -50t50 -34t60.5 -12.5t61 12.5t50.5 34t34.5 50t13 60.5t-13 61t-34.5 50.5t-50.5 34.5t-61 13q-24 0 -24 23v53q0 24 25 24q22 1 41.5 9.5t34.5 23t23.5 34t8.5 41.5t-8.5 42t-23 35t-34.5 23.5
t-43 8.5t-42 -8.5t-33.5 -23.5t-22.5 -35t-8 -42q0 -14 -5 -19t-17 -5h-61q-20 0 -20 25q0 43 16.5 81.5t45 67t66.5 45t81 16.5t81.5 -16.5t66.5 -45t44.5 -67t16.5 -81.5q0 -45 -17.5 -84t-47.5 -68q53 -35 84.5 -91.5t31.5 -125.5q0 -54 -20.5 -101t-55.5 -82
t-82.5 -55.5t-101.5 -20.5t-101 20.5t-82 55.5t-55.5 82t-20.5 101zM779 137q-14 0 -21 6t-8.5 15t1.5 19t9 18l183 292l182 292q8 11 16 24.5t23 13.5h56q25 -1 25 -35v-539h67q29 0 29 -29v-50q0 -27 -29 -27h-67v-109q0 -28 -28 -28h-49q-28 0 -28 28v109h-361zM1140 243
v367l-118.5 -183.5l-118.5 -183.5h237zM1061 1441q16 28 29.5 36t38.5 8h29q36 0 36 -16q-1 -6 -3.5 -15.5t-9.5 -21.5l-754 -1401q-19 -31 -53 -31h-42q-26 0 -26 16q0 9 9 26z" />
    <glyph glyph-name="logicalnot" unicode="&#xac;" horiz-adv-x="1162" 
d="M933 398q0 -18 -11.5 -31t-32.5 -13h-24q-19 0 -33 12t-14 32v273h-545q-46 0 -46 46v24q0 44 46 44h616q18 0 31 -11t13 -33v-343z" />
    <glyph glyph-name="divide" unicode="&#xf7;" horiz-adv-x="903" 
d="M776 547q17 0 27.5 -10t10.5 -27v-42q0 -18 -10.5 -27t-27.5 -9h-640q-38 0 -38 36v42q0 37 38 37h640zM368 74q0 19 7 36t19.5 29.5t29.5 20t36 7.5q20 0 37 -7.5t29.5 -20t19.5 -29.5t7 -36t-7 -36t-19.5 -29.5t-29.5 -19.5t-37 -7q-19 0 -36 7t-29.5 19.5t-19.5 29.5
t-7 36zM368 906q0 19 7 36t19.5 29.5t29.5 20t36 7.5q20 0 37 -7.5t29.5 -20t19.5 -29.5t7 -36t-7 -36t-19.5 -29.5t-29.5 -20t-37 -7.5q-19 0 -36 7.5t-29.5 20t-19.5 29.5t-7 36z" />
    <glyph glyph-name="zerosuperior" unicode="&#x2070;" horiz-adv-x="988" 
d="M495 1505q83 0 157 -32t129.5 -87.5t88 -130t32.5 -159.5q0 -84 -32 -157.5t-87.5 -128.5t-130 -87t-159.5 -32q-83 0 -157 31.5t-129.5 86.5t-88 129.5t-32.5 159.5q0 83 32 157t87.5 129.5t130 88t159.5 32.5zM497 1412q-64 0 -120.5 -24.5t-98.5 -66.5t-66.5 -98.5
t-24.5 -120.5t24.5 -120t66.5 -98t98 -66t119 -24q64 0 121 24.5t99.5 66t67 97t24.5 118.5q0 65 -24.5 122t-66.5 99t-98.5 66.5t-120.5 24.5z" />
    <glyph glyph-name="perthousand" unicode="&#x2030;" horiz-adv-x="2644" 
d="M99 1146q0 80 30 150.5t82.5 122.5t122.5 82t150 30t150 -30t122.5 -82t82.5 -122.5t30 -150.5t-30 -150t-82.5 -122.5t-122.5 -82.5t-150 -30t-150 30t-122.5 82.5t-82.5 122.5t-30 150zM187 1146q0 -63 23 -117t63 -94t94 -63t117 -23t116.5 23t93.5 63t62.5 94
t22.5 117t-22.5 116.5t-62.5 93.5t-93.5 62.5t-116.5 22.5t-117 -22.5t-94 -62.5t-63 -93.5t-23 -116.5zM848 367q0 80 30 150.5t82 122.5t122.5 82t150.5 30t150 -30t122.5 -82t82.5 -122.5t30 -150.5t-30 -150t-82.5 -122.5t-122.5 -82.5t-150 -30t-150.5 30t-122.5 82.5
t-82 122.5t-30 150zM936 367q0 -63 23 -117t62.5 -94t94 -63t117.5 -23t116.5 23t93 63t62 94t22.5 117t-22.5 117t-62 93.5t-93 62t-116.5 22.5t-117.5 -22.5t-94 -62t-62.5 -93.5t-23 -117zM1209 1441q11 28 23.5 36t37.5 8h29q32 0 37 -10.5t-6 -42.5l-872 -1401
q-14 -31 -48 -31h-42q-40 0 -24 42zM1734 367q0 80 30 150.5t82 122.5t122.5 82t150.5 30t150 -30t122.5 -82t82.5 -122.5t30 -150.5t-30 -150t-82.5 -122.5t-122.5 -82.5t-150 -30t-150.5 30t-122.5 82.5t-82 122.5t-30 150zM1822 367q0 -63 23 -117t62.5 -94t94 -63
t117.5 -23t116.5 23t93 63t62 94t22.5 117t-22.5 117t-62 93.5t-93 62t-116.5 22.5t-117.5 -22.5t-94 -62t-62.5 -93.5t-23 -117z" />
    <glyph glyph-name="multiply" unicode="&#xd7;" horiz-adv-x="933" 
d="M288 384q-13 -13 -30 -14t-31 14l-18 18q-14 11 -15 30t13 34l178 176l-176 176q-33 33 0 66l18 17q30 31 63 -2l174 -176l178 178q33 30 66 0l18 -17q31 -31 -2 -64l-178 -178l180 -179q11 -13 13 -29.5t-13 -31.5l-18 -18q-13 -13 -31.5 -14.5t-31.5 12.5l-181 178z
" />
    <glyph glyph-name="currency" unicode="&#xa4;" horiz-adv-x="1078" 
d="M153 235q0 18 16 33l53 54q-38 52 -57 110.5t-19 120.5q0 60 18 117t56 109q-14 13 -26 25.5l-26 26.5q-6 6 -11 15t-5 18t5 18.5t12.5 17t16.5 12t17 4.5q9 0 17.5 -5t15.5 -11l26 -26.5t26 -25.5q53 42 114.5 63.5t124.5 21.5q61 0 119.5 -20t109.5 -58l46 46h-1
q13 15 33 15q7 0 16.5 -4.5t17 -11.5t13 -16t5.5 -18t-5 -17t-12 -16q-11 -12 -21.5 -22t-21.5 -22q42 -52 62.5 -113t20.5 -124t-21 -126t-62 -115l43 -44q15 -14 15 -33q0 -8 -4.5 -16.5t-11.5 -16t-15.5 -12.5t-17.5 -5q-20 0 -34 15l-45 46q-52 -39 -110.5 -59
t-115.5 -20q-66 0 -127.5 22t-112.5 65l-53 -54q-14 -15 -34 -15q-9 0 -17.5 5t-16 12.5t-12 16.5t-4.5 17zM322 757q-44 -43 -64 -95.5t-20 -108.5q0 -60 23 -113t63 -93t92.5 -63.5t111.5 -23.5q58 0 110 23t92 62.5t63.5 92.5t23.5 113q0 59 -23 112t-62.5 92.5
t-92.5 62.5t-113 23q-57 0 -109.5 -21t-94.5 -63z" />
    <glyph glyph-name="copyright" unicode="&#xa9;" horiz-adv-x="1756" 
d="M1148 1107q14 -11 14 -24q0 -6 -7 -19.5t-17 -28t-20 -25t-17 -10.5q-8 0 -20 9q-45 32 -94.5 49.5t-104.5 17.5q-71 0 -132 -27t-106.5 -72.5t-71.5 -106.5t-26 -129q0 -69 27 -130t72.5 -106.5t106 -72.5t127.5 -27q49 0 95 13.5t88 42.5q11 5 21 13t19 8q11 0 22 -14
q4 -8 10.5 -17.5t12.5 -19.5t10 -18.5t4 -14.5t-3 -12t-11 -11q-57 -42 -124 -64t-142 -22q-93 0 -175.5 35.5t-143.5 97t-96.5 143.5t-35.5 176q0 93 36 175.5t98 144t144.5 97t176.5 35.5q75 0 140.5 -22.5t122.5 -63.5zM102 743q0 104 27 201t76.5 181.5t119 154
t154.5 119.5t182 77.5t203 27.5q104 0 201 -27.5t181.5 -77t154.5 -119t119.5 -154.5t77 -183t27.5 -203q0 -104 -27.5 -201t-77 -181t-119 -153.5t-154.5 -119t-182.5 -77t-202.5 -27.5q-104 0 -201 27t-181.5 76.5t-154 119t-119 154.5t-77 182t-27.5 203zM244 584
q22 -108 80 -199.5t141 -158t186.5 -104.5t216.5 -38q93 0 178 25.5t158 71t132 108t101 136.5t64.5 156t22.5 167q0 95 -25 180t-69 157t-105.5 129.5t-134 98t-154.5 62.5t-167 22q-146 0 -265.5 -55t-205 -145t-132.5 -205t-47 -235q0 -43 6 -86.5t19 -86.5z" />
    <glyph glyph-name="registered" unicode="&#xae;" horiz-adv-x="1756" 
d="M607 319q-11 0 -19.5 5t-8.5 23v796q0 35 34 35h321q59 -1 110 -24t88.5 -62t59 -90t21.5 -109q0 -41 -10.5 -78t-30 -69.5t-46 -59t-59.5 -45.5l138 -286l4.5 -9t2.5 -10q0 -6 -7 -11.5t-30 -5.5h-44q-12 0 -21.5 6.5t-16.5 15t-11.5 17.5t-6.5 14l-56 120.5l-57 120.5
q-17 -2 -33.5 -3.5t-33.5 -1.5h-208v-261q0 -16 -8.5 -22t-18.5 -6h-53zM1103 893q0 35 -13 67t-36 57t-54.5 39.5t-68.5 14.5h-244v-353h244q36 0 67.5 14t54.5 38t36.5 55.5t13.5 67.5zM102 743q0 104 27 201t76.5 181.5t119 154t154.5 119.5t182 77.5t203 27.5
q104 0 201 -27.5t181.5 -77t154.5 -119t119.5 -154.5t77 -183t27.5 -203q0 -104 -27.5 -201t-77 -181t-119 -153.5t-154.5 -119t-182.5 -77t-202.5 -27.5q-104 0 -201 27t-181.5 76.5t-154 119t-119 154.5t-77 182t-27.5 203zM244 584q22 -108 80 -199.5t141 -158
t186.5 -104.5t216.5 -38q93 0 178 25.5t158 71t132 108t101 136.5t64.5 156t22.5 167q0 95 -25 180t-69 157t-105.5 129.5t-134 98t-154.5 62.5t-167 22q-146 0 -265.5 -55t-205 -145t-132.5 -205t-47 -235q0 -43 6 -86.5t19 -86.5z" />
    <glyph glyph-name="B" unicode="B" horiz-adv-x="1357" 
d="M781 1486q82 0 153.5 -29t124.5 -80t83.5 -120.5t30.5 -151.5q0 -101 -47 -183t-125 -133q54 -22 99.5 -61t79 -89t52 -109t18.5 -121q0 -81 -30.5 -154.5t-83 -129.5t-124.5 -90t-154 -35h-666q-28 2 -31 29v1419q0 31 25 33q3 5 8 5h587zM1134 408q0 58 -23 113
t-61.5 98t-90 68.5t-108.5 25.5h-575v-600h582q-1 0 -1 -1q57 2 107.5 26t88 64.5t59.5 93.5t22 112zM1058 1104q0 59 -21.5 108t-59 84.5t-88 55.5t-109.5 20h-504v-546h504q58 0 109 21.5t88.5 59t59 88t21.5 109.5z" />
    <glyph glyph-name="caron" unicode="&#x2c7;" horiz-adv-x="737" 
d="M126 1406q-10 11 -11.5 25t11.5 28l18 17q11 12 27 12t27 -12l174 -174l176 174q11 10 26.5 11t28.5 -13l13 -13q12 -11 13 -27.5t-13 -27.5l-217 -219q-28 -26 -51 -4z" />
    <glyph glyph-name="G" unicode="G" horiz-adv-x="1452" 
d="M862 1385q-91 0 -174.5 -24t-155 -66.5t-130 -102t-99.5 -131.5t-63.5 -153.5t-22.5 -167.5q0 -89 23.5 -171.5t65.5 -154t101 -130t131 -100.5t153.5 -65t169.5 -23q114 0 211 35.5t166 87.5v402q0 37 37 37h42q17 0 27 -9.5t10 -27.5v-448q0 -3 -1.5 -8.5t-4.5 -11
t-7.5 -10t-11.5 -4.5q-97 -75 -215.5 -116.5t-253.5 -41.5q-105 0 -202.5 27t-181.5 76.5t-153.5 118.5t-118.5 153.5t-76 182t-27 202.5q0 104 27 201.5t76.5 182t118.5 154t153.5 119.5t182 77.5t202.5 27.5q154 0 294 -60q48 -21 91 -46t83 -57q18 -11 20.5 -25.5
t-7.5 -26.5l-27 -34q-13 -17 -26.5 -18.5t-41.5 18.5q-86 63 -183 97t-202 34z" />
    <glyph glyph-name="quotesinglbase" unicode="&#x201a;" horiz-adv-x="528" 
d="M133 66q0 38 26 63.5t63 25.5q45 0 67.5 -30t22.5 -77q0 -48 -9 -84.5t-22 -61.5t-27.5 -37.5t-25.5 -12.5q-8 0 -15 6l-20 16q-8 8 -8 18q0 7 5 13.5t10.5 15t10.5 19.5t5 26v10h-1l-13 3q-29 7 -49 31t-20 56z" />
    <glyph glyph-name="quotedblbase" unicode="&#x201e;" horiz-adv-x="732" 
d="M411 82q0 19 7 35.5t19.5 28.5t29 19t34.5 7q45 0 67.5 -30.5t22.5 -76.5q0 -48 -9 -85t-22 -62t-27.5 -37.5t-25.5 -12.5q-9 0 -16 6l-20 16q-8 8 -8 18q0 6 5 12.5t10.5 15t10.5 19.5t5 27v10h-1l-12 3q-29 7 -49.5 31.5t-20.5 55.5zM156 82q0 19 7 35.5t19 28.5
t28.5 19t34.5 7q45 0 67.5 -30.5t22.5 -76.5q0 -48 -9 -85t-22 -62t-27.5 -37.5t-25.5 -12.5q-8 0 -15 6l-20 16q-8 8 -8 18q0 7 5 13.5t10.5 15t10.5 19.5t5 26v10h-1l-13 3q-29 7 -49 31.5t-20 55.5z" />
    <glyph glyph-name="guilsinglleft" unicode="&#x2039;" horiz-adv-x="862" 
d="M130 535q-12 12 -12 25q0 16 16 32l517 515q12 12 29 12q20 0 35 -15l15 -15q15 -15 15 -33q0 -16 -12 -31l-465 -466l465 -464q11 -13 11 -29q0 -9 -3.5 -18t-10.5 -15l-17 -18q-8 -8 -16.5 -10.5t-16.5 -3.5q-17 0 -29 12z" />
    <glyph glyph-name="germandbls" unicode="&#xdf;" horiz-adv-x="1153" 
d="M160 1128q2 87 35.5 158.5t88.5 123t128 80t155 28.5q84 0 158.5 -28.5t131 -79.5t89 -122t32.5 -157q0 -45 -11 -87.5t-30.5 -80t-45 -68t-55.5 -50.5q120 -58 183 -165t63 -247q0 -104 -39 -193.5t-107 -155.5t-159.5 -103.5t-196.5 -37.5q-21 0 -33.5 5t-19 13
t-8 19.5t-1.5 23.5t1 23t7 19.5t19 14t37 5.5q68 0 135 26t120.5 74t87 115t33.5 150q0 81 -23 146t-71 110t-121.5 69.5t-173.5 24.5q-16 0 -30.5 7.5t-14.5 29.5v43q0 23 13 31t30 8h11q57 0 107 13.5t87.5 41.5t59 71t21.5 103q0 62 -21.5 112t-60 85t-91 54t-115.5 19
q-64 0 -117.5 -24t-92 -68t-60 -105.5t-21.5 -136.5l1 -1414q0 -36 -36 -36h-41q-39 0 -39 36z" />
    <glyph glyph-name="at.001" horiz-adv-x="1896" 
d="M1014 -426q-121 0 -235 31.5t-214 90t-183 140.5t-143 183t-93 218.5t-33 246.5q0 120 31 234.5t88 216.5t138.5 187t181.5 147t217.5 96.5t247.5 34.5q109 0 211 -26t191 -75.5t162.5 -120.5t125.5 -161t81 -196.5t29 -227.5q0 -119 -21.5 -214.5t-68 -163
t-118.5 -103.5t-172 -36q-33 0 -62 6.5t-51.5 23t-38 44t-21.5 69.5q-24 -39 -57.5 -72.5t-74.5 -58.5t-89 -39t-101 -14q-92 0 -171.5 36t-138 97.5t-92.5 144t-34 176.5q0 92 34 174.5t93 144t138.5 97.5t170.5 36q107 0 189 -52.5t130 -140.5q2 26 5.5 52t5.5 53
q1 16 3.5 30.5t8.5 25.5t17 17.5t29 6.5q16 0 24 -9.5t8 -20.5v-602q0 -44 8.5 -68t21.5 -35.5t27 -14t26 -2.5q72 0 122 29.5t81.5 83.5t45.5 129.5t14 167.5q0 150 -51.5 277.5t-143 221.5t-216.5 147t-273 53q-112 0 -215.5 -28.5t-192.5 -81t-162 -126.5t-125 -164.5
t-80.5 -195t-28.5 -218.5q0 -108 29 -209t82 -189.5t126 -161t161.5 -124.5t188.5 -80.5t206 -28.5t204.5 28.5t195.5 85.5q10 5 20 5q5 0 14.5 -9t18.5 -20.5t16 -24t7 -20.5t-4.5 -14.5t-11.5 -10.5q-105 -63 -219.5 -96t-239.5 -33zM937 828q-68 0 -128 -27t-104.5 -73
t-70.5 -108t-26 -131q0 -71 26 -133t70.5 -108t104.5 -72.5t128 -26.5t127.5 26.5t104 72.5t70 108t25.5 133q0 69 -25.5 131t-70 108t-104 73t-127.5 27z" />
    <glyph glyph-name="O" unicode="O" horiz-adv-x="1706" 
d="M89 741q0 105 27 202.5t76.5 182t119 154.5t154.5 119.5t182 77t203 27.5q104 0 201.5 -27.5t182 -77t154 -119t119 -154.5t77 -183t27.5 -203t-27.5 -202t-77 -181.5t-119 -153.5t-154 -118.5t-182 -76.5t-202.5 -27t-202.5 27t-182 76.5t-154 119t-119 154t-76.5 181.5
t-27 202zM206 742q0 -134 50.5 -251t138 -204.5t205 -138t251.5 -50.5q89 0 171 23t153.5 65t130.5 100.5t101 130t65 154t23 171.5q0 133 -51 250t-138.5 204.5t-204.5 138.5t-250 51q-89 0 -171.5 -23t-154.5 -65t-130.5 -101t-100.5 -130.5t-65 -154t-23 -170.5z" />
    <glyph glyph-name="Q" unicode="Q" horiz-adv-x="1706" 
d="M98 741q0 105 27 202.5t76.5 182t119 154.5t154 119.5t182 77t202.5 27.5t202 -27.5t181.5 -77t154.5 -119t119.5 -154.5t77 -183t27.5 -203q0 -100 -25 -193t-70.5 -174.5t-109.5 -149.5t-142 -118.5t-168.5 -81.5t-188.5 -38v-233q-1 -37 -38 -37h-41q-36 0 -36 38v232
q-148 10 -276.5 73t-223.5 164.5t-149.5 234.5t-54.5 284zM215 742q0 -134 50.5 -251t138 -204.5t204.5 -138t251 -50.5q133 0 250.5 50.5t205 138t138 204.5t50.5 251q0 88 -23 170.5t-65 154t-101 130.5t-130.5 101t-153.5 65t-171 23t-171.5 -23t-154 -65t-130 -101
t-100.5 -130.5t-65 -154t-23 -170.5z" />
    <glyph glyph-name="a" unicode="a" horiz-adv-x="1188" 
d="M1044 34q0 -17 -11 -26.5t-30 -9.5h-32q-40 0 -40 40v174q-18 -56 -53 -99.5t-82.5 -73.5t-105.5 -46t-123 -16q-102 0 -190 40t-152.5 109t-101.5 162t-37 199t36.5 199.5t101 163.5t152.5 110t191 40q66 0 125.5 -17t107.5 -48t82 -73.5t49 -93.5l4 171q1 20 10 30.5
t29 10.5h29q18 0 29.5 -10.5t11.5 -30.5v-905zM930 486q0 82 -26.5 155t-74.5 128t-115 87t-147 32q-81 0 -148.5 -32t-116 -86.5t-76 -127.5t-27.5 -155t27.5 -154.5t76.5 -126.5t116.5 -85.5t147.5 -31.5q79 0 146 31t115 84.5t75 126t27 155.5z" />
    <glyph glyph-name="b" unicode="b" horiz-adv-x="1186" 
d="M157 1445q0 18 11.5 28.5t32.5 10.5h29q21 0 32 -10.5t11 -28.5v-676q23 48 57 90t79 73.5t102.5 49.5t126.5 18q98 0 183.5 -40t149.5 -109.5t100.5 -162.5t36.5 -199q0 -107 -36.5 -200t-100.5 -162t-149.5 -109t-183.5 -40q-88 0 -151 21t-106.5 51t-69 62t-38.5 55
v-125q0 -41 -44 -41h-30q-42 0 -42 41v1403zM266 488q0 -82 29 -155t79 -127.5t116 -86t140 -31.5t140 31.5t115.5 86t78 127.5t28.5 155t-28.5 155t-78 127.5t-115.5 86t-140 31.5t-140 -31.5t-116 -86t-79 -127.5t-29 -155z" />
    <glyph glyph-name="d" unicode="d" horiz-adv-x="1188" 
d="M1058 42q0 -41 -42 -41h-30q-44 0 -44 41v125q-13 -23 -38.5 -55t-69 -62t-106.5 -51t-151 -21q-98 0 -183.5 40t-149.5 109t-100.5 162t-36.5 200q0 106 36.5 199t100.5 162.5t149.5 109.5t183.5 40q69 0 126.5 -18t102.5 -49.5t79 -73.5t57 -90v676q0 18 11 28.5
t32 10.5h29q21 0 32.5 -10.5t11.5 -28.5v-1403zM949 488q0 82 -29 155t-79 127.5t-116 86t-140 31.5t-140 -31.5t-115.5 -86t-78 -127.5t-28.5 -155t28.5 -155t78 -127.5t115.5 -86t140 -31.5t140 31.5t116 86t79 127.5t29 155z" />
    <glyph glyph-name="e" unicode="e" horiz-adv-x="1096" 
d="M575 -22q-100 2 -187.5 43t-152.5 110t-102.5 160.5t-37.5 196.5q0 106 37 199.5t101.5 163t150 109.5t183.5 40q93 0 176.5 -39t146.5 -105.5t99.5 -156.5t36.5 -192q0 -37 -22.5 -48.5t-56.5 -11.5h-736q4 -75 34.5 -139.5t79.5 -112.5t113 -76t136 -30h3
q85 0 159.5 33.5t129.5 89.5q13 14 28.5 13.5t26.5 -15.5l16 -21q14 -19 14.5 -35.5t-24.5 -33.5q-69 -66 -158.5 -104t-192.5 -38h-1zM564 887q-65 0 -123.5 -26t-104.5 -71.5t-77.5 -107t-43.5 -132.5h697q-9 70 -40.5 131.5t-78 107.5t-106 72t-123.5 26z" />
    <glyph glyph-name="f" unicode="f" horiz-adv-x="617" 
d="M515 983q17 0 28 -9.5t11 -30.5v-26q0 -20 -11 -31.5t-28 -11.5h-178v-837q0 -19 -12.5 -29t-29.5 -10h-37q-20 0 -29.5 11t-9.5 28v837h-124q-40 0 -40 43v26q0 40 40 40h124v190q0 75 21 133.5t61 99.5t97.5 62.5t129.5 21.5q20 0 30.5 -12t10.5 -31v-34
q0 -17 -11.5 -28t-26.5 -11q-91 0 -142.5 -52.5t-51.5 -152.5v-186h178z" />
    <glyph glyph-name="g" unicode="g" horiz-adv-x="1190" 
d="M1054 214v-3v-49v-24t-1 -24q0 -129 -39.5 -224.5t-105.5 -158.5t-153 -94.5t-181 -31.5q-78 0 -140 19t-120 51h1q-13 7 -19 12.5t-6 14.5q0 5 6 15t13.5 21l14.5 20.5t9 12.5q6 9 13.5 11t16.5 0t19 -7.5t22 -10.5q38 -17 80.5 -29t84.5 -12q70 0 136.5 24t118 71.5
t82.5 118.5t31 164v100q-20 -53 -56.5 -95t-85.5 -70.5t-107 -43.5t-121 -15q-102 0 -190 40t-152.5 109t-101.5 162t-37 199t36.5 199.5t101 163.5t152.5 110t191 40q66 0 127 -17t110.5 -48t85.5 -73.5t51 -93.5l4 171q1 20 10 30.5t29 10.5h29q18 0 29.5 -10.5
t11.5 -30.5v-725zM940 486q0 82 -28 155t-78 128t-118.5 87t-148.5 32q-81 0 -148.5 -32t-116 -86.5t-76 -127.5t-27.5 -155t27.5 -154.5t76.5 -126.5t116.5 -85.5t147.5 -31.5q79 0 147.5 31t118.5 84.5t78.5 126t28.5 155.5z" />
    <glyph glyph-name="h" unicode="h" horiz-adv-x="1123" 
d="M874 591q-5 58 -25.5 111.5t-56 94t-84.5 64.5t-112 24q-60 0 -117 -22t-101.5 -61t-72 -91.5t-30.5 -113.5v-562q0 -36 -37 -36h-42q-37 0 -37 36v1412q0 17 9.5 27.5t27.5 10.5h41q17 0 27.5 -10.5t10.5 -27.5v-613q24 36 59 66.5t77.5 52.5t90.5 34.5t98 12.5
q90 0 162 -34t123 -92.5t78 -137t27 -167.5v-534q0 -18 -10.5 -27t-27.5 -9h-41q-18 0 -27.5 8t-9.5 28v556z" />
    <glyph glyph-name="i" unicode="i" horiz-adv-x="435" 
d="M159 945q0 37 38 37h41q17 0 27 -10t10 -27v-909q0 -36 -37 -36h-41q-38 0 -38 36v909zM123 1265q0 19 7.5 36t20 30t29.5 20t36 7q39 0 66 -27t27 -66q0 -19 -7 -36t-20 -29.5t-30 -19.5t-36 -7t-36 7t-29.5 19.5t-20 29.5t-7.5 36z" />
    <glyph glyph-name="j" unicode="j" horiz-adv-x="437" 
d="M159 942q0 40 41 40h34q20 0 30.5 -11t10.5 -29v-988q-1 -63 -24.5 -119.5t-64 -98.5t-95 -66.5t-117.5 -24.5q-22 0 -34.5 9.5t-12.5 29.5v33q0 20 12.5 29.5t29.5 9.5h3q42 1 76 17t59 43.5t38.5 63.5t13.5 77v985zM124 1265q0 19 7.5 36t20 30t29.5 20t36 7
q39 0 66 -27t27 -66q0 -19 -7 -36t-20 -29.5t-30 -19.5t-36 -7t-36 7t-29.5 19.5t-20 29.5t-7.5 36z" />
    <glyph glyph-name="k" unicode="k" horiz-adv-x="1067" 
d="M276 538l196 191l196 192l13.5 13.5l10 10t10 9.5l13.5 12q10 8 19 12.5t21 4.5h69q13 0 19.5 -8.5t6.5 -16.5q0 -6 -5.5 -14.5t-14 -17.5t-17 -17l-14.5 -14l-275 -268l494 -581q18 -21 15.5 -33.5t-28.5 -12.5h-82q-13 0 -24.5 8.5t-19.5 20.5l-437 515l-166 -159v-349
q0 -36 -38 -36h-41q-37 0 -37 36v1411q0 17 9.5 27.5t27.5 10.5h41q17 0 27.5 -10.5t10.5 -27.5v-909v0z" />
    <glyph glyph-name="l" unicode="l" horiz-adv-x="435" 
d="M159 1449q0 37 38 37h42q17 0 26.5 -10t9.5 -27v-1413q0 -36 -36 -36h-42q-38 0 -38 36v1413z" />
    <glyph glyph-name="m" unicode="m" horiz-adv-x="1691" 
d="M275 36q0 -36 -37 -36h-41q-38 0 -38 36v916q0 14 8 23t23 9h59q21 0 23 -22l3 -119q22 31 49.5 58.5t61.5 47.5t73.5 32t85.5 12q57 0 107 -15.5t91.5 -43t73.5 -65t53 -82.5q21 46 52 84.5t70.5 66t87.5 42.5t103 15q71 0 132.5 -25t109 -68.5t77.5 -102.5t38 -128
q6 -53 6 -105v-526q0 -20 -11 -30t-29 -10h-36q-41 0 -41 39v580q-1 54 -19.5 102t-51.5 83t-79 55.5t-100 20.5q-47 0 -90 -16t-77.5 -44t-58 -67t-32.5 -84q-5 -24 -8 -49t-3 -51v-529q0 -40 -38 -40h-40q-38 0 -38 39v583q-1 54 -21.5 101t-55 82t-80.5 55t-100 20
t-102 -20.5t-83.5 -56.5t-56 -84t-20.5 -103v-580z" />
    <glyph glyph-name="n" unicode="n" horiz-adv-x="1128" 
d="M276 36q0 -36 -37 -36h-41q-38 0 -38 36v916q0 14 8 23t23 9h59q9 0 15.5 -6t7.5 -16l3 -136q25 37 59 69t75 55.5t87.5 37t97.5 13.5q86 0 159.5 -32t127.5 -88t85 -131.5t31 -161.5v-548q0 -20 -10.5 -30t-28.5 -10h-41q-20 0 -28 9.5t-8 29.5v551q-1 62 -25 116
t-64.5 94t-94.5 63t-115 23q-60 0 -114.5 -22t-96.5 -60.5t-67.5 -91t-28.5 -113.5v-563z" />
    <glyph glyph-name="o" unicode="o" horiz-adv-x="1130" 
d="M70 488q0 106 37.5 199.5t103.5 163t156.5 109.5t196.5 40q107 0 198 -40t157.5 -109.5t104 -163t37.5 -199.5t-37.5 -199t-104.5 -162.5t-158 -109.5t-197 -40q-105 0 -195.5 40t-157 109.5t-104 162.5t-37.5 199zM184 488q0 -82 28.5 -154.5t79.5 -127t121 -86
t153 -31.5q82 0 152 31.5t121 86t80 127t29 154.5t-29 155t-80 127.5t-121 86t-152 31.5q-83 0 -153 -31.5t-121 -86t-79.5 -127.5t-28.5 -155z" />
    <glyph glyph-name="p" unicode="p" horiz-adv-x="1182" 
d="M147 945q0 41 42 41h30q44 0 44 -41v-125q13 22 38.5 54.5t69 62.5t106.5 51t151 21q98 0 183.5 -40t149.5 -109t100.5 -162.5t36.5 -199.5t-36.5 -199t-100.5 -162.5t-149.5 -109.5t-183.5 -40q-69 0 -126.5 18t-102.5 49.5t-79 73.5t-57 90v-567q0 -18 -11 -28.5
t-32 -10.5h-29q-21 0 -32.5 10.5t-11.5 28.5v1294zM256 499q0 -82 29 -155t79 -127.5t116 -86t140 -31.5t140 31.5t115.5 86t78 127.5t28.5 155t-28.5 155t-78 127.5t-115.5 86t-140 31.5t-140 -31.5t-116 -86t-79 -127.5t-29 -155z" />
    <glyph glyph-name="q" unicode="q" horiz-adv-x="1176" 
d="M1036 -349q0 -18 -11.5 -28.5t-32.5 -10.5h-29q-21 0 -32 10.5t-11 28.5v567q-23 -48 -57 -90t-79 -73.5t-102.5 -49.5t-126.5 -18q-98 0 -183.5 40t-149.5 109.5t-100.5 162.5t-36.5 199t36.5 199.5t100.5 162.5t149.5 109t183.5 40q88 0 151 -21t106.5 -51t69 -62.5
t38.5 -54.5v125q0 41 44 41h30q42 0 42 -41v-1294zM927 499q0 82 -29 155t-79 127.5t-116 86t-140 31.5t-140 -31.5t-115.5 -86t-78 -127.5t-28.5 -155t28.5 -155t78 -127.5t115.5 -86t140 -31.5t140 31.5t116 86t79 127.5t29 155z" />
    <glyph glyph-name="r" unicode="r" horiz-adv-x="803" 
d="M152 935q0 46 44 46h22q49 0 49 -46v-40v-64q14 36 39.5 66.5t59 52t75 33.5t88.5 12q30 0 67 -8t69.5 -21t54.5 -29.5t22 -33.5q0 -10 -6 -23t-14.5 -25t-17.5 -20t-15 -8q-8 0 -12.5 0.5t-10.5 4.5q-29 18 -67 33t-77 15q-56 0 -102.5 -25.5t-80 -68t-53 -97
t-19.5 -112.5l1 -541q0 -36 -37 -36h-9h-32q-38 0 -38 36v10v889z" />
    <glyph glyph-name="s" unicode="s" horiz-adv-x="850" 
d="M612 778q-32 52 -85 84t-121 32q-42 0 -77.5 -12t-61 -33.5t-40 -51.5t-14.5 -66t18 -62.5t46 -45.5t61 -32t63 -21l29 -8q155 -36 236 -113t81 -186q0 -68 -28 -121t-76 -89t-110.5 -55t-131.5 -19q-57 0 -110 13t-97 38.5t-76.5 64t-48.5 88.5q-6 14 0 27.5t21 20.5
l38 17q17 7 29 1t18 -20l5 -10q16 -32 42 -56.5t57 -41t63 -25t59 -8.5q35 0 75.5 10t75 31t57.5 54t23 78q0 42 -22.5 74t-58 55.5t-79 39t-85.5 25.5q-56 13 -108 37t-92 58.5t-63.5 79t-23.5 100.5q0 61 22 111.5t62 86.5t96.5 55.5t125.5 19.5q103 0 182 -42t132 -135
q7 -14 5 -27t-17 -23l-35 -21q-29 -18 -46 2q-4 4 -7 9t-8 12z" />
    <glyph glyph-name="t" unicode="t" horiz-adv-x="606" 
d="M496 102q17 0 29.5 -9.5t12.5 -29.5v-33q0 -23 -13.5 -31t-33.5 -8h-30q-51 0 -95 11t-76 41t-50.5 82t-18.5 134v613h-138q-20 0 -29.5 8t-9.5 28v37q0 20 9.5 28t29.5 8h138v295q0 30 33 35l50 7q20 0 27 -12t7 -30v-295h173q18 0 28.5 -9t10.5 -29v-33
q0 -20 -10.5 -29t-28.5 -9h-173v-586q0 -53 7 -87.5t22 -54.5t37.5 -29.5t54.5 -12.5h37z" />
    <glyph glyph-name="u" unicode="u" horiz-adv-x="1095" 
d="M120 939q0 20 11 30.5t29 10.5h40q21 0 29 -10t8 -30v-556q1 -62 25 -115t65.5 -92.5t96 -62t116.5 -22.5q61 0 115.5 23t95.5 62.5t65.5 93t25.5 115.5v557q0 37 37 37h41q39 0 39 -37v-907q0 -17 -10.5 -26.5t-27.5 -9.5h-33q-19 0 -28 10t-9 26l-9 117
q-25 -38 -57.5 -70t-71.5 -55.5t-85 -37t-97 -13.5q-85 0 -160 32t-130.5 88t-88 131t-32.5 161v550z" />
    <glyph glyph-name="v" unicode="v" horiz-adv-x="956" 
d="M803 968q7 15 27 15h64q17 0 24.5 -8.5t-3.5 -36.5l-380 -909q-6 -15 -15 -22t-26 -7h-30q-17 0 -26 7t-15 22l-380 909q-11 28 -3.5 36.5t24.5 8.5h64q20 0 27 -15l324 -782z" />
    <glyph glyph-name="w" unicode="w" horiz-adv-x="1521" 
d="M1338 968q7 15 27 15h64q17 0 24.5 -8.5t-3.5 -36.5l-380 -909q-6 -15 -15 -22t-26 -7h-30q-17 0 -26 7t-15 22l-215 513l-214 -513q-6 -15 -15 -22t-26 -7h-30q-17 0 -26 7t-15 22l-380 909q-11 28 -3.5 36.5t24.5 8.5h64q20 0 27 -15l324 -782l324 782q7 15 27 15h64
q17 0 24.5 -8.5t-3.5 -36.5l-104 -248l209 -504z" />
    <glyph glyph-name="x" unicode="x" horiz-adv-x="845" 
d="M165 42q-17 -23 -32.5 -32.5t-38.5 -9.5h-26q-50 0 -13 68l303 451l-270 405q-17 26 -11.5 41.5t37.5 15.5h18q28 0 41.5 -8.5t28.5 -33.5l220 -325l231 339q12 14 24.5 21t32.5 7h18q35 0 43.5 -11t-6.5 -37l-279 -414l317 -473q13 -25 10.5 -35.5t-28.5 -10.5h-37
q-35 0 -57 29l-269 398z" />
    <glyph glyph-name="y" unicode="y" horiz-adv-x="979" 
d="M386 -363q-16 -29 -53 -29h-32q-22 0 -31.5 13t-1.5 36l156 372l-376 904q-10 26 -1 38t32 12h42q18 0 26 -9t16 -24l328 -785l320 790q15 28 53 28h32q22 0 31.5 -12.5t1.5 -35.5z" />
    <glyph glyph-name="z" unicode="z" horiz-adv-x="974" 
d="M116 0q-21 0 -34.5 13t-13.5 33v33q0 5 2 13t7 16l649 759h-608q-46 0 -46 48v20q0 46 46 46h715q22 0 35.5 -13t13.5 -33v-35q0 -14 -2 -20t-7 -13l-642 -753h607q20 0 33 -11.5t13 -34.5v-22q0 -18 -13 -32t-33 -14h-722z" />
    <glyph glyph-name="c" unicode="c" horiz-adv-x="1016" 
d="M855 213q16 14 29 14q6 0 13 -3t13 -11l26 -34q8 -11 8 -19q1 -8 -6 -16.5t-21 -22.5q-70 -66 -155.5 -104.5t-188.5 -38.5q-107 0 -197 40t-156 110t-103 163t-37 200q0 106 37 199.5t103 163t156 109.5t197 40q97 0 180 -33.5t151 -93.5q11 -8 21 -19.5t10 -23.5
t-9 -22l-21 -27q-9 -11 -15.5 -16.5t-14.5 -5.5q-13 0 -28 15q-54 53 -122.5 83.5t-149.5 30.5q-83 0 -152.5 -31.5t-120 -86t-79 -127.5t-28.5 -155q0 -83 28.5 -155.5t79 -127.5t120 -86.5t152.5 -31.5q40 0 78.5 9.5t74.5 26.5t68 39t59 48z" />
    <glyph glyph-name="a.end" horiz-adv-x="1094" 
d="M224 805q-18 2 -31 7q-11 5 -20.5 13t-9.5 24q0 8 6.5 18.5t15.5 18.5q72 60 160 95.5t185 35.5q74 0 146 -25.5t128.5 -76.5t91.5 -127.5t35 -178.5v-580q0 -29 -28 -29h-48q-32 0 -32 29l-3 160q-23 -44 -53 -83.5t-70.5 -69.5t-94.5 -47.5t-126 -17.5q-95 0 -163.5 28
t-112 73.5t-64 103t-20.5 117.5q0 53 20.5 104t64.5 90.5t113.5 64t168.5 24.5h339q0 68 -21 128t-60.5 104.5t-96 70.5t-126.5 26q-72 0 -126 -18t-99 -49l-11 -8.5l-15 -11.5t-16.5 -11t-14.5 -8q-8 0 -12 6zM826 476q-86 0 -170.5 -0.5t-170.5 -0.5q-64 0 -112 -13.5
t-80.5 -37.5t-48.5 -58t-16 -75q0 -36 12 -73.5t41 -68.5t77 -50.5t120 -19.5q64 0 126 23t111.5 71t80 123t30.5 180z" />
    <glyph glyph-name="oslash" unicode="&#xf8;" horiz-adv-x="1130" 
d="M182 491q0 -83 31.5 -155.5t86.5 -127.5t127.5 -86.5t155.5 -31.5q82 0 155 31.5t127.5 86.5t86 127.5t31.5 155.5q0 82 -31.5 155t-86 127.5t-127.5 86t-155 31.5q-83 0 -155.5 -31.5t-127.5 -86t-86.5 -127.5t-31.5 -155zM70 491q0 106 40 199.5t109.5 163t162.5 109.5
t199 40q75 0 144 -21l38 99q10 23 20.5 30t32.5 7h24q27 0 32 -9t-5 -36l-50 -128q61 -32 112 -79t87.5 -105.5t56.5 -127t20 -142.5q0 -107 -40 -200t-109.5 -163t-163 -110t-199.5 -40q-35 0 -69 5t-67 14l-48 -125q-11 -27 -41 -27h-36q-17 0 -23 9t2 27l57 149
q-63 31 -116 78.5t-90.5 107t-58.5 129.5t-21 146z" />
    <glyph glyph-name="kgreenlandic" unicode="&#x138;" horiz-adv-x="1096" 
d="M276 538l196 191l196 192l13.5 13.5l10 10t10 9.5l13.5 12q10 8 19 12.5t21 4.5h69q13 0 19.5 -8.5t6.5 -16.5q0 -6 -5.5 -14.5t-14 -17.5t-17 -17l-14.5 -14l-275 -268l494 -581q18 -21 15.5 -33.5t-28.5 -12.5h-82q-13 0 -24.5 8.5t-19.5 20.5l-437 515l-166 -159v-349
q0 -36 -38 -36h-41q-37 0 -37 36v910q0 17 9.5 27.5t27.5 10.5h41q17 0 27.5 -10.5t10.5 -27.5v-408v0z" />
    <glyph glyph-name="ae" unicode="&#xe6;" horiz-adv-x="1881" 
d="M1382 -20q-58 0 -112 14t-102 39.5t-89 61t-72 79.5v-138q0 -17 -11 -26.5t-29 -9.5h-32q-40 0 -40 40v174q-21 -51 -56.5 -94t-82 -74.5t-104 -49t-122.5 -17.5q-102 0 -190 40t-152.5 109t-101 162t-36.5 199t36.5 199.5t101 163.5t152.5 110t190 40q66 0 123 -17.5
t103 -48.5t81 -73.5t58 -92.5l3 171q0 41 40 41h29q18 0 29 -10.5t11 -30.5v-135q62 88 155.5 141t205.5 53q93 0 176.5 -39t146.5 -105.5t99.5 -156.5t36.5 -192q0 -26 -12.5 -39t-31.5 -17.5t-43 -4t-46 0.5h-681q7 -76 37.5 -141.5t79.5 -113.5t114 -75.5t141 -27.5h7
q83 2 155 37t126 89q13 14 27 13t28 -15l22 -33q8 -15 5 -30.5t-21 -26.5q-69 -66 -159 -104.5t-193 -38.5zM893 488q0 82 -26.5 155t-74.5 128t-114.5 87t-147.5 32t-148 -32t-116 -86.5t-76 -127.5t-27 -155t27.5 -154.5t76 -126.5t116 -85.5t147.5 -31.5q79 0 146 31
t115 84.5t75 126t27 155.5zM1364 887q-69 0 -125.5 -26.5t-100.5 -72t-75 -107t-47 -131.5h696q-9 70 -40 131.5t-78 107.5t-106 72t-124 26z" />
    <glyph glyph-name="cyrbreve" unicode="&#xf6d4;" horiz-adv-x="650" 
 />
    <glyph glyph-name="hungarumlaut" unicode="&#x2dd;" horiz-adv-x="949" 
d="M306 1443q8 18 22.5 26.5t32.5 8.5h64q14 0 19 -3.5t5 -11.5q0 -10 -6 -20l-104 -215q-8 -17 -18 -27.5t-30 -10.5h-64q-29 0 -29 20q0 3 1.5 8t3.5 10zM627 1443q16 35 55 35h62q14 0 19 -3.5t5 -11.5q0 -5 -1 -10t-3 -10l-104 -215q-10 -17 -19.5 -27.5t-30.5 -10.5
h-64q-29 0 -29 20q0 6 7 18z" />
    <glyph glyph-name="ring" unicode="&#x2da;" horiz-adv-x="518" 
d="M234 1522q39 0 72.5 -14.5t59 -40t40 -59t14.5 -71.5q0 -39 -14.5 -73t-40 -58.5t-59 -39t-72.5 -14.5t-73 14.5t-58.5 39t-39 58.5t-14.5 73q0 38 14.5 71.5t39 59t58.5 40t73 14.5zM127 1337q0 -46 30.5 -76.5t76.5 -30.5q22 0 41.5 8t34 22.5t22.5 34t8 42.5
q0 22 -8 41.5t-22.5 34t-34 22.5t-41.5 8q-23 0 -42.5 -8t-34 -22.5t-22.5 -34t-8 -41.5z" />
    <glyph glyph-name="OE" unicode="&#x152;" horiz-adv-x="2596" 
d="M2453 1485q18 0 31 -11t13 -33v-24q0 -18 -12 -32t-32 -14h-860v-561h690q18 0 31 -11.5t13 -32.5v-25q0 -18 -12 -32t-32 -14h-690v-581h882q18 0 31 -11t13 -33v-24q0 -18 -12 -32t-32 -14h-953q-44 0 -44 44v297q-51 -81 -120 -148t-153 -115t-180 -74t-199 -26
q-104 0 -201.5 27t-182 77t-154.5 119.5t-119.5 155t-77 183.5t-27.5 204q0 104 27 201.5t77 182t119.5 154t155 119t183.5 77t204 27.5q102 0 197 -26t178.5 -74t152.5 -115t120 -149v300q0 18 11.5 31t32.5 13h931zM507 1298q-119 -70 -197.5 -173t-112.5 -222.5
t-20 -246.5t81 -245q44 -73 105 -132t133.5 -100.5t154 -64t166 -23t169 22t163.5 71.5q69 39 125 92t98 115.5t68.5 132t37.5 143.5v180q-17 117 -78 223q-45 78 -106.5 137.5t-134.5 100t-154 61t-165 20t-168.5 -23t-164.5 -68.5z" />
    <glyph glyph-name="AE" unicode="&#xc6;" horiz-adv-x="2299" 
d="M1254 0q-21 0 -31 13t-9 31l1 327h-741l-241 -319q-32 -52 -84 -52h-46q-50 0 -18 47l1087 1394q8 15 23.5 29.5t33.5 14.5h955q18 0 31 -11t13 -33v-24q0 -18 -12 -32t-32 -14h-857l-1 -561h688q18 0 31 -11.5t13 -32.5v-25q0 -18 -12 -32t-32 -14h-685l-1 -581h878
q18 0 31 -11t13 -33v-24q0 -18 -12 -32t-32 -14h-928h-3h-21zM563 488h651v836z" />
    <glyph glyph-name="Eth" unicode="&#xd0;" horiz-adv-x="1480" 
d="M489 789q15 0 26.5 -9t11.5 -29v-31q0 -15 -11 -27.5t-27 -12.5h-423q-41 0 -41 40v31q0 38 41 38h423zM159 1448q0 36 33 38h471q155 -2 290 -60.5t235.5 -159t158 -235.5t57.5 -290q0 -103 -26.5 -198t-75.5 -177.5t-117 -149.5t-151.5 -115t-179 -74.5t-198.5 -26.5
h-459q-3 0 -9.5 1.5t-13 5.5t-11 9.5t-4.5 14.5v1417zM662 113q88 0 169 23t151 65t127 100.5t97 129t62 150.5t22 166q0 135 -50.5 249.5t-137.5 198t-202 130.5t-244 47h-382v-1259h388z" />
    <glyph glyph-name="exclam" unicode="!" horiz-adv-x="497" 
d="M162 1450q0 36 37 36h41q37 0 37 -36v-1018q0 -37 -37 -37h-41q-37 0 -37 37v1018zM127 72q0 19 7 36t19.5 29.5t29.5 20t36 7.5q20 0 37 -7.5t29.5 -20t19.5 -29.5t7 -36t-7 -36t-19.5 -29.5t-29.5 -19.5t-37 -7q-19 0 -36 7t-29.5 19.5t-19.5 29.5t-7 36z" />
    <glyph glyph-name="quotedbl" unicode="&#x22;" horiz-adv-x="832" 
d="M160 1448q0 37 37 37h42q36 0 36 -37v-318q0 -22 -10 -29.5t-27 -7.5h-41q-37 0 -37 37v318zM420 1448q0 37 36 37h42q36 0 36 -37v-318q0 -22 -10 -29.5t-27 -7.5h-41q-36 0 -36 37v318z" />
    <glyph glyph-name="numbersign" unicode="#" horiz-adv-x="1109" 
d="M708 1450q1 16 10.5 26t27.5 10h42q17 0 26 -9.5t9 -26.5l-30 -387h147q15 0 24 -8.5t9 -22.5v-62q0 -9 -9 -16t-19 -7h-156l-33 -397h147q17 0 27.5 -9t10.5 -27v-41q0 -17 -10.5 -28t-27.5 -11h-151l-16 -199l-16 -199q-3 -36 -39 -36h-42q-19 0 -26.5 8.5t-7.5 27.5
l16 199l16 199h-288l-16 -199l-16 -199q-3 -36 -40 -36h-41q-19 0 -26.5 8.5t-7.5 27.5l16 199l16 199h-134q-37 0 -37 39v41q0 36 37 36h138l33 397h-134q-38 0 -38 38v42q0 36 38 36h138l30 387q1 16 9.5 26t28.5 10h41q17 0 26.5 -9.5t9.5 -26.5l-30 -387h288zM353 550
h288l33 397h-288z" />
    <glyph glyph-name="ampersand" unicode="&#x26;" horiz-adv-x="1654" 
d="M640 547q43 23 88.5 37t91.5 14q20 0 41.5 -2.5t46.5 -10.5l328 -89q16 -5 32.5 -6.5t31.5 -1.5q35 0 68 12t60 33t47.5 50t29.5 64q11 29 36 29q10 0 19 -4l25 -10q13 -5 21 -13.5t8 -19.5q0 -14 -4 -25q-16 -51 -46 -93.5t-70 -73.5t-88.5 -48.5t-102.5 -17.5
q-7 0 -22 1.5t-31 3.5t-29.5 4t-17.5 4l-103 27q-9 -90 -51.5 -169.5t-108.5 -139t-151 -94t-178 -34.5q-100 0 -187.5 34t-153 94.5t-103 144.5t-37.5 184q0 69 18.5 131.5t52.5 115t82.5 94.5t107.5 71q-71 45 -113.5 118t-42.5 168q0 78 30 143.5t81.5 112t119.5 72.5
t145 26t145 -26t119 -72.5t80.5 -112t29.5 -143.5q0 -19 -10 -31.5t-31 -12.5h-27q-25 0 -35.5 12t-10.5 32q0 56 -19.5 101t-54 77t-82.5 49t-104 17t-104 -17t-83.5 -49t-56 -77t-20.5 -101t19.5 -98.5t53.5 -72.5t80 -46t100 -19h11q19 0 31.5 -10t12.5 -32v-22
q0 -25 -12 -35.5t-32 -10.5q-77 0 -144 -26t-117 -72.5t-79 -111t-29 -140.5q0 -77 29 -140t79 -109t117 -71t144 -25q73 0 140 28t118.5 76.5t83.5 113t35 138.5l-126 33q-20 3 -39 3q-30 0 -60.5 -6.5t-63.5 -23.5q-10 -5 -15.5 -8.5t-18.5 -3.5q-24 0 -35 24l-12 25
q-6 13 -6 24q0 24 28 36z" />
    <glyph glyph-name="quotesingle" unicode="'" horiz-adv-x="528" 
d="M166 1448q0 36 37 36h42q36 0 36 -36v-318q0 -23 -10 -30.5t-27 -7.5h-41q-37 0 -37 38v318z" />
    <glyph glyph-name="parenleft" unicode="(" horiz-adv-x="497" 
d="M439 1742q9 -5 19.5 -12t19.5 -15t14.5 -16.5t5.5 -14.5q0 -12 -7 -20q-130 -207 -196.5 -441t-66.5 -487q0 -254 66.5 -487.5t196.5 -441.5q2 -3 4 -7l3 -11q0 -7 -7 -17.5t-18 -20.5t-24 -17.5t-25 -7.5q-8 0 -15 6t-14 16t-13.5 21l-12.5 22q-123 210 -189 447.5
t-66 497.5t66 496.5t189 447.5l12 21t12.5 20.5t15 16t18.5 6.5q7 0 12 -2z" />
    <glyph glyph-name="parenright" unicode=")" horiz-adv-x="497" 
d="M76 1742q4 2 12 2q17 0 28 -17l22 -34q127 -214 194.5 -454t67.5 -503t-67.5 -503.5t-194.5 -453.5l-21.5 -35t-26.5 -18q-8 0 -20 5.5t-24 14t-20.5 18.5t-8.5 19q0 5 1.5 12t4.5 12q130 209 197 442.5t67 486.5q0 251 -67 486.5t-197 441.5q-3 4 -4.5 11t-1.5 12
q0 9 6 16.5t15 14.5t19 13z" />
    <glyph glyph-name="asterisk" unicode="*" horiz-adv-x="983" 
d="M290 873q-9 15 -9 28q0 21 27 36l20 11q13 9 26 9q21 0 35 -24l97 -170l99 170q7 12 16.5 18t19.5 6q12 0 26 -9l20 -11q26 -15 26 -36q0 -13 -9 -28l-99 -169h216q18 0 31 -11t13 -33v-24q0 -18 -12 -32t-32 -14h-214l113 -192q6 -9 6 -21q0 -11 -5.5 -21t-18.5 -15
l-20 -13q-11 -7 -26 -7q-10 0 -19.5 4.5t-15.5 15.5l-115 194l-112 -194q-7 -11 -16.5 -15.5t-19.5 -4.5q-15 0 -26 7l-19 13q-13 5 -18.5 14.5t-5.5 20.5q0 13 6 22l110 192h-200q-46 0 -46 46v24q0 44 46 44h204z" />
    <glyph glyph-name="plus" unicode="+" horiz-adv-x="900" 
d="M506 328q0 -18 -11 -31t-33 -13h-24q-18 0 -32 12t-14 32v251h-249q-46 0 -46 46v24q0 44 46 44h249v251q0 46 46 46h24q44 0 44 -46v-251h253q18 0 31 -11t13 -33v-24q0 -18 -12 -32t-32 -14h-253v-251z" />
    <glyph glyph-name="comma" unicode="," horiz-adv-x="528" 
d="M128 70q0 42 28 69.5t68 27.5q48 0 72.5 -32.5t24.5 -82.5q0 -52 -9.5 -91t-23.5 -65.5t-29.5 -40t-27.5 -13.5q-6 0 -14 4.5t-15.5 11t-12.5 14t-5 13.5q0 7 5 14l11.5 16t11.5 20.5t5 28.5v10q-36 6 -62.5 32t-26.5 64z" />
    <glyph glyph-name="hyphen" unicode="-" horiz-adv-x="1034" 
d="M842 608q17 0 27.5 -9t10.5 -27v-42q0 -17 -10.5 -27t-27.5 -10h-640q-38 0 -38 37v42q0 36 38 36h640z" />
    <glyph glyph-name="period" unicode="." horiz-adv-x="528" 
d="M122 72q0 19 7 36t19.5 29.5t29.5 20t36 7.5q20 0 37 -7.5t29.5 -20t19.5 -29.5t7 -36t-7 -36t-19.5 -29.5t-29.5 -20t-37 -7.5q-19 0 -36 7.5t-29.5 20t-19.5 29.5t-7 36z" />
    <glyph glyph-name="slash" unicode="/" horiz-adv-x="836" 
d="M615 1441q11 28 24 36t38 8h28q21 0 30 -4.5t9 -15.5q-1 -6 -2.5 -14t-5.5 -19l-546 -1401q-12 -31 -48 -31h-42q-29 0 -29 21q0 8 5 21z" />
    <glyph glyph-name="zero.001" horiz-adv-x="1707" 
d="M880 1505q104 0 201 -27t181.5 -77t154 -119.5t119.5 -155t77.5 -183.5t27.5 -204q0 -104 -27 -201t-77 -181.5t-119.5 -154t-154.5 -119.5t-183 -77.5t-204 -27.5q-104 0 -201 27t-181.5 77t-154.5 119.5t-120 155t-77.5 183.5t-27.5 204q0 104 27 200.5t77 181
t119.5 154.5t155 120t183.5 77.5t204 27.5zM557 1298q-80 -47 -141.5 -109t-104 -134.5t-64.5 -152t-23.5 -162.5t19.5 -166.5t65 -162.5q44 -73 105 -132t133.5 -100.5t153.5 -63.5t165.5 -23t169 21.5t164.5 71.5q78 44 139.5 105.5t104.5 134t66 154t25 165t-18.5 167
t-65.5 160.5q-69 117 -172 192.5t-223.5 106t-249 14t-248.5 -85.5z" />
    <glyph glyph-name="one.001" horiz-adv-x="526" 
d="M279 1486h28t25.5 -3t18.5 -10t8 -22v-1415q0 -36 -38 -36h-41q-36 0 -36 36v1316l-80.5 -35.5t-73.5 -27.5q-3 -1 -7 -1q-22 0 -25 23v50q-1 3 -1 8q0 23 25 33l87.5 38.5l87.5 38.5q2 2 8.5 4.5t13.5 2.5z" />
    <glyph glyph-name="two.001" horiz-adv-x="1234" 
d="M196 0q-20 0 -33 13t-13 33v36q0 12 6 26l702 674q37 36 62.5 69.5t41 66.5t22 67t6.5 70q0 77 -29 137t-79 101.5t-117.5 63.5t-144.5 22q-76 0 -142.5 -25t-116 -71t-78 -109.5t-28.5 -140.5q0 -11 -6 -24t-29 -20h-33q-22 0 -31.5 8.5t-14.5 22.5v13q0 103 38 187.5
t103.5 145t152.5 94t185 33.5q100 0 188 -30.5t153 -87.5t103 -137.5t38 -180.5q0 -91 -33 -168t-88 -137l-666 -637h792q18 0 31 -11.5t13 -32.5v-25q0 -18 -12 -32t-32 -14h-911z" />
    <glyph glyph-name="seven.001" horiz-adv-x="1100" 
d="M999 1485q26 0 39.5 -15.5t13.5 -35.5q0 -17 -4.5 -30t-11.5 -25l-691 -1337q-6 -14 -17.5 -28t-37.5 -14h-52q-30 0 -31.5 12t13.5 41l679 1318h-767q-53 0 -53 53v10q0 51 53 51h867z" />
    <glyph glyph-name="eight.001" horiz-adv-x="1109" 
d="M193 1139q0 75 28.5 140.5t77.5 115t114.5 78t140.5 28.5t141 -28.5t115 -78t77.5 -115t28.5 -140.5q0 -95 -44.5 -174.5t-118.5 -128.5q56 -27 102.5 -69t80 -94.5t52 -114t18.5 -128.5q0 -93 -35.5 -175.5t-97 -143.5t-144 -96.5t-176.5 -35.5q-93 0 -175 35.5
t-143.5 96.5t-97 143.5t-35.5 175.5q0 67 18.5 128.5t52 114t80 94.5t102.5 70q-73 49 -117.5 128t-44.5 174zM210 432q0 -70 27.5 -132.5t74 -109t109 -74t132.5 -27.5t132.5 27.5t110 74t75 109t27.5 132.5t-27.5 132.5t-75 110t-110 75t-132.5 27.5t-132.5 -27.5
t-109 -75t-74 -110t-27.5 -132.5zM303 1137q0 -54 19 -100t52.5 -80.5t79 -54t98.5 -19.5q54 0 101 19.5t82 54t55 80.5t20 100q0 53 -20 100t-55 81.5t-82 54.5t-101 20q-53 0 -98.5 -20t-79 -54.5t-52.5 -81.5t-19 -100z" />
    <glyph glyph-name="nine.001" horiz-adv-x="1196" 
d="M1010 989q0 82 -31.5 155t-86.5 128t-128 86.5t-155 31.5q-83 0 -155.5 -31.5t-127 -86.5t-86 -128t-31.5 -155q0 -83 31.5 -155.5t86 -127t127 -86t155.5 -31.5q82 0 155 31.5t128 86t86.5 127t31.5 155.5zM1122 989q0 -81 -23.5 -154t-65.5 -135l-378 -656
q-14 -23 -26 -33.5t-37 -10.5h-40q-20 0 -28 4t-8 15q0 13 11 32l267 460q-43 -16 -89 -25t-94 -9q-106 0 -199.5 40t-163 109.5t-109.5 163t-40 199.5t40 199.5t109.5 163.5t163 110t199.5 40t199 -40t162.5 -110t109.5 -163.5t40 -199.5z" />
    <glyph glyph-name="colon" unicode=":" horiz-adv-x="497" 
d="M145 71q0 19 7.5 36t20 29.5t29.5 20t36 7.5t36 -7.5t30 -20t20 -29.5t7 -36t-7 -36t-20 -29.5t-30 -20t-36 -7.5t-36 7.5t-29.5 20t-20 29.5t-7.5 36zM145 903q0 19 7.5 36t20 29.5t29.5 20t36 7.5t36 -7.5t30 -20t20 -29.5t7 -36t-7 -36t-20 -29.5t-30 -20t-36 -7.5
t-36 7.5t-29.5 20t-20 29.5t-7.5 36z" />
    <glyph glyph-name="semicolon" unicode=";" horiz-adv-x="497" 
d="M145 903q0 19 7.5 36t20 29.5t29.5 20t36 7.5t36 -7.5t30 -20t20 -29.5t7 -36t-7 -36t-20 -29.5t-30 -20t-36 -7.5t-36 7.5t-29.5 20t-20 29.5t-7.5 36zM144 70q0 41 28 68.5t68 27.5q48 0 72.5 -32t24.5 -82q0 -52 -9.5 -91.5t-23.5 -66t-29.5 -40t-27.5 -13.5
q-4 0 -11.5 4t-15.5 10t-14 13.5t-6 15.5t5 17.5t11.5 19t11.5 20.5t5 22v11q-37 6 -63 32t-26 64z" />
    <glyph glyph-name="less" unicode="&#x3c;" horiz-adv-x="817" 
d="M123 524q-27 26 4 57l438 438q13 14 31.5 12.5t32.5 -15.5l17 -15q15 -15 13.5 -32.5t-13.5 -31.5l-387 -387l387 -387q14 -14 13 -32t-15 -32l-18 -18q-14 -14 -31 -12.5t-30 12.5z" />
    <glyph glyph-name="equal" unicode="=" horiz-adv-x="1005" 
d="M828 853q18 0 31 -11t13 -33v-24q0 -18 -12 -32t-32 -14h-616q-46 0 -46 46v24q0 44 46 44h616zM828 534q18 0 31 -11t13 -33v-24q0 -18 -12 -32t-32 -14h-616q-46 0 -46 46v24q0 44 46 44h616z" />
    <glyph glyph-name="greater" unicode="&#x3e;" horiz-adv-x="838" 
d="M246 81q-15 -13 -32 -13q-16 0 -29 13l-18 18q-8 7 -11.5 16t-3.5 18q0 17 13 30l387 387l-387 387q-7 7 -10 15.5t-4 17.5q1 8 3.5 16t10.5 15l17 15q8 7 16.5 11.5t19.5 3.5q16 0 28 -12l438 -438q16 -16 16 -32q0 -13 -12 -25z" />
    <glyph glyph-name="question" unicode="?" horiz-adv-x="1137" 
d="M612 348q0 -22 -14 -35.5t-33 -13.5h-30q-22 0 -34.5 15t-12.5 34v169q0 58 19.5 103t51 82t71.5 67.5l82.5 60t82.5 60.5t71.5 68t51 82t19.5 104q0 77 -29 137t-79 101.5t-117.5 63t-143.5 21.5t-142.5 -24.5t-115.5 -69t-77 -107.5t-28 -140q0 -18 -13.5 -32.5
t-28.5 -19.5h-29q-21 0 -30 10t-16 25v13q3 100 41.5 184.5t104 146t152 96.5t184.5 35q100 0 187 -31t152 -88t102.5 -138t37.5 -181q0 -94 -32.5 -161.5t-81.5 -119t-105.5 -91.5t-105.5 -78.5t-81 -80t-31 -96.5v-171zM455 72q0 19 7 36t19.5 29.5t29.5 20t36 7.5
q20 0 37 -7.5t29.5 -20t19.5 -29.5t7 -36t-7 -36t-19.5 -29.5t-29.5 -20t-37 -7.5q-19 0 -36 7.5t-29.5 20t-19.5 29.5t-7 36z" />
    <glyph glyph-name="percent" unicode="%" horiz-adv-x="1857" 
d="M99 1146q0 80 30 150.5t82.5 122.5t122.5 82t150 30t150 -30t122.5 -82t82.5 -122.5t30 -150.5t-30 -150t-82.5 -122.5t-122.5 -82.5t-150 -30t-150 30t-122.5 82.5t-82.5 122.5t-30 150zM187 1146q0 -63 23 -117t63 -94t94 -63t117 -23t116.5 23t93.5 63t62.5 94
t22.5 117t-22.5 116.5t-62.5 93.5t-93.5 62.5t-116.5 22.5t-117 -22.5t-94 -62.5t-63 -93.5t-23 -116.5zM848 367q0 80 30 150.5t82 122.5t122.5 82t150.5 30t150 -30t122.5 -82t82.5 -122.5t30 -150.5t-30 -150t-82.5 -122.5t-122.5 -82.5t-150 -30t-150.5 30t-122.5 82.5
t-82 122.5t-30 150zM936 367q0 -63 23 -117t62.5 -94t94 -63t117.5 -23t116.5 23t93 63t62 94t22.5 117t-22.5 117t-62 93.5t-93 62t-116.5 22.5t-117.5 -22.5t-94 -62t-62.5 -93.5t-23 -117zM1209 1441q11 28 23.5 36t37.5 8h29q32 0 37 -10.5t-6 -42.5l-872 -1401
q-14 -31 -48 -31h-42q-40 0 -24 42z" />
    <glyph glyph-name="section" unicode="&#xa7;" horiz-adv-x="1108" 
d="M948 1316q5 -18 -5.5 -34t-28 -25t-37 -8t-32.5 18q-63 70 -133.5 105.5t-157.5 35.5q-45 0 -93.5 -14t-88.5 -41t-65.5 -66.5t-25.5 -91.5q0 -38 20.5 -64.5t60 -47.5t98.5 -40l136 -42q85 -25 146 -54t100 -63.5t57 -76.5t18 -92q0 -80 -44 -142t-125 -104
q37 -19 68 -41.5t53.5 -50t35 -61t12.5 -74.5q0 -74 -31 -135.5t-85 -105.5t-126.5 -68.5t-155.5 -24.5q-118 0 -214.5 48t-168.5 134q-16 19 -10.5 40.5t22.5 35.5t40.5 15.5t44.5 -18.5q63 -70 131.5 -106.5t161.5 -36.5q46 0 95 14t89 41.5t65.5 67.5t25.5 92
q0 40 -21.5 68t-62 49t-99.5 39.5t-134 39.5q-84 25 -145.5 53.5t-101 63t-58.5 75.5t-19 92q0 78 43 139t122 103q-74 38 -119.5 93.5t-45.5 135.5q0 75 31 136.5t85 105.5t126.5 68t156.5 24q54 0 113 -14.5t113 -41t97.5 -64t65.5 -84.5zM517 893q-62 0 -107.5 -15
t-75.5 -39.5t-44.5 -56t-14.5 -63.5q0 -9 1.5 -24t10 -32.5t26 -36.5t49 -36.5t79.5 -31t118 -19.5q63 0 108 15t74 39.5t43 55t14 62.5q0 43 -22.5 76.5t-60.5 57t-89 36t-109 12.5z" />
    <glyph glyph-name="macron" unicode="&#xaf;" horiz-adv-x="975" 
d="M784 1290q34 0 34 -32v-38q0 -14 -8.5 -24t-25.5 -10h-592q-33 0 -33 34v38q0 32 33 32h592z" />
    <glyph glyph-name="eth" unicode="&#xf0;" horiz-adv-x="1148" 
d="M785 1276l-1 2q-42 41 -96 66t-114 25h-4q-42 1 -42 46v24q0 44 46 44q95 0 172.5 -33.5t137.5 -94.5v-2l114 88q12 9 27 8t27 -16l12 -17q10 -12 9 -28t-14 -27l-112 -86q54 -83 83.5 -169.5t42 -179t13 -190.5t-3.5 -204q-4 -110 -39.5 -208t-99 -172t-153 -117
t-201.5 -43q-100 0 -188 39.5t-153.5 107t-103.5 158t-38 192.5t37.5 192t103 158t153 107.5t187.5 39.5q121 0 213.5 -55.5t153.5 -158.5q4 66 -3 127t-22 115t-36.5 100t-45.5 82l-1 1l-124 -95q-30 -25 -56 7l-13 16q-23 30 8 55zM588 866q-35 0 -66 -12
q-63 -10 -116.5 -42.5t-93.5 -81t-62.5 -110t-22.5 -130.5q0 -79 29 -147.5t78.5 -119.5t115.5 -80.5t140 -29.5q75 0 141 29.5t115 80.5t77.5 119t28.5 145q0 79 -29 148t-78.5 120.5t-115.5 81t-141 29.5z" />
    <glyph glyph-name="foursuperior" unicode="&#x2074;" horiz-adv-x="774" 
d="M71 807q-14 0 -21 6t-8.5 15t1.5 19t9 18l183 292l182 292q8 11 16 24.5t23 13.5h56q25 -1 25 -35v-539h67q29 0 29 -29v-50q0 -27 -29 -27h-67v-109q0 -28 -28 -28h-49q-28 0 -28 28v109h-361zM432 913v367l-118.5 -183.5l-118.5 -183.5h237z" />
    <glyph glyph-name="paragraph" unicode="&#xb6;" horiz-adv-x="1397" 
d="M1279 1485q14 0 22.5 -8t8.5 -23v-52q0 -32 -31 -32h-219v-1339q0 -31 -31 -31h-53q-31 0 -31 31v1339h-272v-1339q0 -31 -31 -31h-53q-31 0 -31 31v592q-29 0 -57.5 3t-57.5 8q-80 10 -149 46.5t-120 92.5t-80 127.5t-29 152.5q0 89 34 168t92.5 137.5t137 92.5
t167.5 34h783v0z" />
    <glyph glyph-name="thorn" unicode="&#xfe;" horiz-adv-x="1182" 
d="M159 31q-2 4 -2 15v1397q0 44 48 44h20q46 0 46 -44l2 -649q25 38 61 75t76 62l53.5 28.5t54.5 23t59 15t67 5.5q105 0 193.5 -40t152 -109.5t99 -163t35.5 -199.5q0 -107 -35.5 -200t-99 -163t-152 -110t-193.5 -40q-41 0 -74.5 5.5t-63.5 16.5t-58 26.5t-58 35.5
q-37 25 -65.5 54.5t-51.5 66.5v-526q0 -46 -46 -46h-24q-44 0 -44 46v374zM1012 491q0 82 -27 155t-76 127.5t-117.5 86t-150.5 31.5q-77 0 -140.5 -27.5t-111 -75.5t-77.5 -112.5t-39 -138.5v-88q7 -75 36.5 -140.5t77.5 -114t112.5 -76.5t141.5 -28q82 0 150.5 31.5
t117.5 86.5t76 127.5t27 155.5z" />
    <glyph glyph-name="Thorn" unicode="&#xde;" horiz-adv-x="1280" 
d="M161 1450q0 36 37 36h41q37 0 37 -36v-227h403q97 0 181.5 -37t146.5 -100t98 -147t36 -179q0 -94 -35.5 -177.5t-97.5 -146.5t-146 -99.5t-180 -36.5h-405v-264q0 -36 -37 -36h-43q-36 0 -36 36v1414zM679 414q72 0 135 27.5t110 74.5t74 110t27 135q0 71 -27 134.5
t-73.5 111t-109.5 75t-136 27.5h-402v-695h402z" />
    <glyph glyph-name="hyphen.cap" horiz-adv-x="1028" 
d="M842 609q17 0 27.5 -9t10.5 -27v-42q0 -17 -10.5 -27t-27.5 -10h-640q-38 0 -38 37v42q0 36 38 36h640z" />
    <glyph glyph-name="lessequal" unicode="&#x2264;" horiz-adv-x="850" 
d="M662 115q17 0 27.5 -9t10.5 -27v-42q0 -17 -10.5 -27t-27.5 -10h-495q-38 0 -38 37v42q0 36 38 36h495zM141 804q-12 12 -12 25q0 16 16 32l438 438q12 12 28 12q10 1 19 -3.5t17 -11.5l17 -15q8 -7 10.5 -15t2.5 -16q0 -20 -13 -33l-387 -387l387 -387q12 -14 12 -30
q0 -20 -14 -34l-18 -18q-13 -13 -29 -13q-17 0 -32 13z" />
    <glyph glyph-name="greaterequal" unicode="&#x2265;" horiz-adv-x="858" 
d="M656 115q38 0 38 -36v-42q0 -37 -38 -37h-495q-17 0 -27.5 10t-10.5 27v42q0 18 10.5 27t27.5 9h495zM240 361q-13 -11 -30 -12.5t-31 12.5l-18 18q-14 14 -15 32t13 32l387 387l-387 387q-12 14 -13.5 31.5t13.5 32.5l17 15q14 14 32.5 15.5t31.5 -12.5l438 -438
q31 -31 4 -57z" />
    <glyph glyph-name="Iota" unicode="&#x399;" horiz-adv-x="436" 
d="M160 1441q0 18 11 31t33 13h24q18 0 32 -12t14 -32v-1395q0 -46 -46 -46h-24q-44 0 -44 46v1395z" />
    <glyph glyph-name="afii61352" unicode="&#x2116;" horiz-adv-x="2286" 
d="M1219 1459q3 27 30 27h52q14 0 23.5 -8t9.5 -23v-1428q-2 -27 -32 -27h-58q-18 0 -28 15v-1l-940 1292v-1275q0 -31 -31 -31h-52q-31 0 -31 31v1423q0 14 7 23t21 9h27t29 -1.5t25 -4.5t15 -8l933 -1272v1259zM1488 834q0 91 34 170.5t93 139t138.5 94t170.5 34.5
t171 -34.5t139.5 -94t94 -139t34.5 -170.5t-34.5 -170.5t-94 -139t-139.5 -94t-171 -34.5t-170.5 34.5t-138.5 94t-93 139t-34 170.5zM1589 834q0 -69 27 -130.5t72.5 -107t106.5 -72t130 -26.5t130 26.5t106.5 72t72 107t26.5 130.5t-26.5 130.5t-72 107t-106.5 72
t-130 26.5t-130 -26.5t-106.5 -72t-72.5 -107t-27 -130.5zM2320 116q14 0 23 -7.5t9 -22.5v-53q0 -14 -8.5 -23t-23.5 -9h-780q-31 0 -31 32v53q0 30 31 30h780z" />
    <glyph glyph-name="uni2206" unicode="&#x2206;" horiz-adv-x="1518" 
d="M138 0q-33 0 -33 25q0 11 1 15t2 6l590 1414q5 11 12 18.5t27 7.5h33q21 0 28.5 -8t12.5 -21l292 -705l294 -705q1 -3 2 -11t1 -12q0 -24 -31 -24h-1231zM754 1304l-68.5 -164.5l-79.5 -191l-86.5 -208.5l-89 -216.5l-88 -214l-82.5 -201.5h986z" />
    <glyph glyph-name="product" unicode="&#x220f;" horiz-adv-x="1305" 
 />
    <glyph glyph-name="summation" unicode="&#x2211;" horiz-adv-x="1223" 
d="M751 699l-248 -291.5l-248 -291.5h857q32 0 32 -32v-50q0 -15 -8.5 -24.5t-23.5 -9.5h-990q-13 0 -20 4.5t-10.5 12.5t-4 19t-0.5 23v29.5t8 20.5l269.5 315l269.5 315l-543 636l1 -1q-4 5 -6.5 10.5t-2.5 13.5v55q0 15 10 24t24 9h966q15 0 23.5 -9.5t8.5 -24.5v-50
q0 -33 -32 -33h-833l536 -630z" />
    <glyph glyph-name="uni2215" unicode="&#x2215;" horiz-adv-x="988" 
d="M667 1441q11 28 23.5 36t37.5 8h29q32 0 37 -10.5t-6 -42.5l-546 -1401q-14 -31 -48 -31h-42q-40 0 -24 42z" />
    <glyph glyph-name="uni2219" unicode="&#x2219;" horiz-adv-x="1833" 
 />
    <glyph glyph-name="radical" unicode="&#x221a;" horiz-adv-x="1357" 
d="M659 -51l56 152.5l65.5 183l71 203.5l74 213.5l74.5 213.5l71.5 203.5l65.5 183.5l57 154q10 25 33 25q2 0 3.5 -0.5t3.5 -0.5h53q27 -6 27 -25q0 -2 -0.5 -9t-1.5 -9l-85.5 -234.5l-97 -269.5l-103.5 -289.5l-104.5 -294l-100.5 -282.5l-92 -255l-14.5 -35t-15.5 -18
q-3 0 -6 -6.5t-16 -6.5h-34q-12 0 -24 8t-12 17l-315 951h-168q-32 0 -32 32v52q0 30 32 30h227q27 0 37 -22v1q16 -46 37 -112l45 -142.5l49.5 -159.5l50.5 -164l47.5 -155z" />
    <glyph glyph-name="infinity" unicode="&#x221e;" horiz-adv-x="1291" 
d="M412 796q46 0 81.5 -11.5t62.5 -30t47 -41t35 -44.5q19 24 40 46.5t48 40.5t61 29t78 11q55 0 105.5 -21.5t89.5 -58.5t62 -87t23 -106q0 -57 -23 -106.5t-62 -86.5t-89.5 -58.5t-105.5 -21.5q-45 0 -80 11.5t-62.5 29.5t-48 40.5t-36.5 45.5q-16 -23 -36 -45.5
t-47 -40.5t-62 -29.5t-81 -11.5q-55 0 -106 21.5t-90 58.5t-62 86.5t-23 106.5q0 56 23 106t62 87t90 58.5t106 21.5zM864 696q-37 0 -69 -13.5t-55 -37t-36.5 -55t-13.5 -67.5v-4q1 -36 14.5 -66.5t37 -53t55 -35t67.5 -12.5t67.5 13t55.5 36t37.5 54.5t13.5 67.5
t-13.5 67.5t-37.5 55t-55.5 37t-67.5 13.5zM413 696q-37 0 -68.5 -13.5t-55 -37t-37 -55t-13.5 -67.5t13.5 -67.5t37 -54.5t55 -36t68.5 -13q35 0 66 12.5t54 34t37 51.5t16 65v16q-2 34 -16 64t-37 52.5t-54 35.5t-66 13z" />
    <glyph glyph-name="integral" unicode="&#x222b;" horiz-adv-x="772" 
d="M412 52q0 -34 -2 -66t-5 -64q-7 -68 -34 -123.5t-69.5 -96t-97 -65t-117.5 -30.5l-19 -3q-17 1 -26 9.5t-9 22.5v53q0 30 34 30q50 0 92 18.5t73 50t48 74t17 91.5v1197q0 71 29 133.5t77 109t110 74t128 28.5q17 -1 25.5 -9.5t8.5 -22.5v-52q0 -31 -34 -31
q-51 0 -93 -18.5t-72.5 -50t-47 -74.5t-16.5 -92v-1093z" />
    <glyph glyph-name="Pi" unicode="&#x3a0;" horiz-adv-x="1351" 
d="M1080 1368h-799v-1338q0 -30 -32 -30h-53q-31 0 -31 30v1422q0 33 31 33h970q12 0 21.5 -8t9.5 -23v-1423q0 -31 -33 -31h-52q-32 0 -32 31v1337z" />
    <glyph glyph-name="Omicrontonos" unicode="&#x38c;" horiz-adv-x="1713" 
d="M3 1150q-22 0 -35.5 16t-15.5 37l-11 240q-3 17 8 30.5t29 13.5h49q17 0 27 -14t8 -28l-13 -242q0 -20 -13 -35.5t-33 -17.5zM89 741q0 105 27 202.5t76.5 182t119 154.5t154.5 119.5t182 77t203 27.5q104 0 201.5 -27.5t182 -77t154 -119t119 -154.5t77 -183t27.5 -203
t-27.5 -202t-77 -181.5t-119 -153.5t-154 -118.5t-182 -76.5t-202.5 -27t-202.5 27t-182 76.5t-154 119t-119 154t-76.5 181.5t-27 202zM206 742q0 -134 50.5 -251t138 -204.5t205 -138t251.5 -50.5q89 0 171 23t153.5 65t130.5 100.5t101 130t65 154t23 171.5
q0 133 -51 250t-138.5 204.5t-204.5 138.5t-250 51q-89 0 -171.5 -23t-154.5 -65t-130.5 -101t-100.5 -130.5t-65 -154t-23 -170.5z" />
    <glyph glyph-name="Omicron" unicode="&#x39f;" horiz-adv-x="1706" 
d="M80 741q0 105 27 202.5t76.5 182t119 154.5t154.5 119.5t182 77t203 27.5q104 0 201.5 -27.5t182 -77t154 -119t119 -154.5t77 -183t27.5 -203t-27.5 -202t-77 -181.5t-119 -153.5t-154 -118.5t-182 -76.5t-202.5 -27t-202.5 27t-182 76.5t-154 119t-119 154t-76.5 181.5
t-27 202zM197 742q0 -134 50.5 -251t138 -204.5t205 -138t251.5 -50.5q89 0 171 23t153.5 65t130.5 100.5t101 130t65 154t23 171.5q0 133 -51 250t-138.5 204.5t-204.5 138.5t-250 51q-89 0 -171.5 -23t-154.5 -65t-130.5 -101t-100.5 -130.5t-65 -154t-23 -170.5z" />
    <glyph glyph-name="Xi" unicode="&#x39e;" horiz-adv-x="1277" 
d="M954 793q15 0 24 -7.5t9 -24.5v-52q0 -15 -8.5 -24t-24.5 -9h-630q-16 0 -24 9t-8 24v52q0 32 32 32h630zM1152 117q34 0 34 -33v-52q0 -32 -33 -32h-1022q-32 0 -32 32v52q0 33 33 33h1020zM1123 1485q33 0 33 -33v-50q0 -15 -8.5 -24t-25.5 -9h-966q-17 0 -25.5 9
t-8.5 24v50q0 33 33 33h968z" />
    <glyph glyph-name="Nu" unicode="&#x39d;" horiz-adv-x="1583" 
d="M1316 0q-21 0 -31 13l-1012 1278v-1245q0 -46 -46 -46h-24q-44 0 -44 46v1393q0 20 14 33t32 13h40q19 0 28 -13l1015 -1283v1252q0 18 11 31t33 13h24q18 0 32 -12t14 -32v-1395q0 -20 -13 -33t-33 -13h-40z" />
    <glyph glyph-name="Mu" unicode="&#x39c;" horiz-adv-x="1772" 
d="M1531 1447l66 -704.5l67 -704.5v-2q0 -36 -36 -36h-42q-36 0 -38 37l-112 1227l-508 -1131q-5 -12 -18.5 -19.5t-22.5 -7.5h-26q-15 0 -23 3.5t-18 23.5l-254.5 565.5l-254.5 565.5l-112 -1227q0 -38 -37 -38h-42q-18 0 -27 11.5t-9 28.5l132 1408q2 20 15 29t27 9h4h62
q17 -3 27 -25l522 -1170l522 1169q5 13 16 19.5t24.5 8t28.5 1t27 -0.5q18 0 28.5 -9.5t11.5 -23.5v-7v0z" />
    <glyph glyph-name="Lambda" unicode="&#x39b;" horiz-adv-x="1437" 
d="M696 1300l-519 -1249q-17 -51 -61 -51h-36q-32 0 -32 25q0 10 4 21l581 1395q5 15 16.5 29.5t29.5 14.5h37q11 0 19 -6t14 -14.5t10 -17t6 -13.5l580 -1390q3 -8 3 -15q0 -14 -9.5 -21.5t-23.5 -7.5h-36q-20 0 -35.5 13t-23.5 31z" />
    <glyph glyph-name="Kappa" unicode="&#x39a;" horiz-adv-x="1469" 
d="M275 46q0 -46 -47 -46h-24q-44 0 -44 46v1395q0 18 11.5 31t32.5 13h27q18 0 31 -12t13 -32v-832l796 845q28 31 51 31h110q37 0 11 -26q-2 5 -2 3.5t2 -6.5l-561 -587l697 -829q33 -40 -7 -40h-92q-11 0 -21 8t-23 23l-631 757l-330 -348v-394z" />
    <glyph glyph-name="Iotadieresis" unicode="&#x3aa;" horiz-adv-x="441" 
d="M-40 1754q0 36 25.5 61.5t61.5 25.5q37 0 62 -25.5t25 -61.5t-25 -61.5t-62 -25.5q-36 0 -61.5 25.5t-25.5 61.5zM323 1755q0 36 25.5 61.5t61.5 25.5q38 0 63 -25.5t25 -61.5t-25 -61.5t-63 -25.5q-36 0 -61.5 25.5t-25.5 61.5zM161 1450q0 36 37 36h41q18 0 27.5 -9.5
t9.5 -26.5v-1414q0 -36 -37 -36h-41q-37 0 -37 36v1414z" />
    <glyph glyph-name="Theta" unicode="&#x398;" horiz-adv-x="1758" 
d="M102 741q0 105 27 202.5t76.5 182t119 154.5t154 119.5t182 77t202.5 27.5t202 -27.5t181.5 -77t154.5 -119t119.5 -154.5t77 -183t27.5 -203t-27.5 -202t-77 -181.5t-119 -153.5t-154.5 -118.5t-182.5 -76.5t-202.5 -27q-158 0 -296.5 59.5t-241.5 163t-162.5 241.5
t-59.5 296zM219 742q0 -134 50.5 -251t138 -204.5t204.5 -138t251 -50.5q88 0 170.5 23t154 65t130.5 100.5t101 130t65 154t23 171.5q0 133 -51 250t-138.5 204.5t-204.5 138.5t-250 51q-89 0 -171.5 -23t-154 -65t-130 -101t-100.5 -130.5t-65 -154t-23 -170.5zM1199 792
q15 0 24 -7.5t9 -23.5v-52q0 -15 -8.5 -24.5t-24.5 -9.5h-650q-33 0 -33 34v52q0 31 33 31h650z" />
    <glyph glyph-name="Etatonos" unicode="&#x389;" horiz-adv-x="1611" 
d="M7 1150q-22 0 -35.5 16t-15.5 37l-11 240q-3 17 8 30.5t29 13.5h49q17 0 27 -14t8 -28l-13 -242q0 -20 -13 -35.5t-33 -17.5zM1315 1441q0 18 11 31t33 13h24q18 0 32 -12t14 -32v-1397q0 -44 -46 -44h-24q-44 0 -44 44v660h-979v-660q0 -44 -47 -44h-24q-44 0 -44 44
v1397q0 18 11.5 31t32.5 13h24q19 0 33 -12t14 -32v-622h979v622z" />
    <glyph glyph-name="Eta" unicode="&#x397;" horiz-adv-x="1528" 
d="M1251 1441q0 18 11 31t33 13h24q18 0 32 -12t14 -32v-1397q0 -44 -46 -44h-24q-44 0 -44 44v660h-979v-660q0 -44 -47 -44h-24q-44 0 -44 44v1397q0 18 11.5 31t32.5 13h24q19 0 33 -12t14 -32v-622h979v622z" />
    <glyph glyph-name="Zeta" unicode="&#x396;" horiz-adv-x="1364" 
d="M1181 115q37 0 37 -37v-40q0 -17 -10 -27.5t-27 -10.5h-1064q-26 0 -32.5 16.5t-6.5 41.5v28.5t12 25.5l971 1258h-910q-38 0 -38 38v42q0 36 38 36h1033q16 0 27 -10t11 -27v-47q0 -18 -10 -28l-969 -1259h938z" />
    <glyph glyph-name="Epsilontonos" unicode="&#x388;" horiz-adv-x="1285" 
d="M1 1148q-22 0 -35.5 16t-15.5 37l-11 240q-3 17 8 30.5t29 13.5h49q17 0 27 -14t8 -28l-13 -242q0 -20 -13 -35.5t-33 -17.5zM1161 1486q38 0 38 -38v-40q0 -17 -10 -27.5t-29 -10.5h-886v-536h716q17 0 27.5 -9t10.5 -29v-41q0 -17 -9.5 -27t-28.5 -10h-716v-603h901
q38 0 38 -37v-42q0 -36 -37 -36h-985q-14 0 -23 9t-9 26v1414q0 3 1 5t1 4q3 28 35 28h965z" />
    <glyph glyph-name="Epsilon" unicode="&#x395;" horiz-adv-x="1285" 
d="M1155 1485q18 0 31 -11t13 -33v-24q0 -18 -12 -32t-32 -14h-880v-541h710q18 0 31 -11.5t13 -32.5v-25q0 -18 -12 -32t-32 -14h-710v-601h902q18 0 31 -11t13 -33v-24q0 -18 -12 -32t-32 -14h-973q-44 0 -44 44v1397q0 18 11.5 31t32.5 13h951z" />
    <glyph glyph-name="Delta" unicode="&#x394;" horiz-adv-x="1471" 
d="M134 0q-46 0 -46 35q0 7 0.5 11.5t1.5 8.5t2 7l572 1386q3 5 5.5 11.5t8 12t14.5 9.5t25 4h24q16 0 25.5 -4t14.5 -9.5t8 -12t5 -11.5l572 -1386l2 -10t2 -9.5t1 -7.5q0 -35 -47 -35h-1190zM730 1300l-33 -77l-52 -122.5l-65.5 -155l-74 -175.5l-77 -183.5l-74.5 -178.5
l-67 -161.5l-54 -132.5h992z" />
    <glyph glyph-name="Gamma" unicode="&#x393;" horiz-adv-x="1210" 
d="M275 1371v-1327q0 -20 -14 -32t-32 -12h-24q-22 0 -33 13t-11 31v1397q0 44 44 44h904q20 0 32 -14t12 -32v-24q0 -22 -13 -33t-31 -11h-834z" />
    <glyph glyph-name="Beta" unicode="&#x392;" horiz-adv-x="1357" 
d="M781 1486q82 0 153.5 -29t124.5 -80t83.5 -120.5t30.5 -151.5q0 -101 -47 -183t-125 -133q54 -22 99.5 -61t79 -89t52 -109t18.5 -121q0 -81 -30.5 -154.5t-83 -129.5t-124.5 -90t-154 -35h-666q-28 2 -31 29v1419q0 31 25 33q3 5 8 5h587zM1134 408q0 58 -23 113
t-61.5 98t-90 68.5t-108.5 25.5h-575v-600h582q-1 0 -1 -1q57 2 107.5 26t88 64.5t59.5 93.5t22 112zM1058 1104q0 59 -21.5 108t-59 84.5t-88 55.5t-109.5 20h-504v-546h504q58 0 109 21.5t88.5 59t59 88t21.5 109.5z" />
    <glyph glyph-name="Alphatonos" unicode="&#x386;" horiz-adv-x="1533" 
d="M651 1441q5 15 16.5 29.5t29.5 14.5h37q11 0 19 -6t14 -14.5t10 -17t6 -13.5l580 -1390q3 -8 3 -15q0 -14 -9.5 -21.5t-23.5 -7.5h-25q-22 0 -36.5 13t-22.5 31l-134 321h-801l-130 -314q-17 -51 -61 -51h-25q-32 0 -32 25q0 10 4 21zM362 480h704l-352 844zM218 1150
q-22 0 -36 16t-15 37l-11 240q-1 2 -1 6q0 15 10.5 26.5t27.5 11.5h49q16 0 25.5 -12.5t9.5 -26.5v-3l-13 -242q0 -20 -13 -35.5t-33 -17.5z" />
    <glyph glyph-name="Alpha" unicode="&#x391;" horiz-adv-x="1457" 
d="M75 34l28.5 74.5l28.5 69.5l162 390l123 294l91 217l67 159.5l50.5 120.5l42.5 101q5 13 13.5 21t24.5 8h29q17 0 25 -8t14 -19l590 -1416q0 -2 1.5 -8.5t1.5 -10.5q0 -22 -31 -27h-43q-2 0 -4 -0.5t-4 -0.5q-26 0 -37 29l-143 345h-770l-71.5 -173l-70.5 -174
q-10 -26 -35 -26q-6 0 -10 1h-43q-31 3 -31 25q0 5 1 8zM721 1311l-169 -412l-169 -412h675z" />
    <glyph glyph-name="anoteleia" unicode="&#x387;" horiz-adv-x="455" 
d="M144 554q0 19 7.5 36t20 30t29.5 20t36 7q39 0 66 -27t27 -66q0 -19 -7 -36t-20 -29.5t-30 -19.5t-36 -7t-36 7t-29.5 19.5t-20 29.5t-7.5 36z" />
    <glyph glyph-name="dieresistonos" unicode="&#x385;" horiz-adv-x="860" 
d="M430 1188q-22 0 -35.5 16t-15.5 37l-11 240q-3 17 8 30.5t29 13.5h49q17 0 27 -14t8 -28l-13 -242q0 -20 -13 -35.5t-33 -17.5zM133 1249q0 36 25.5 61.5t61.5 25.5q38 0 63 -25.5t25 -61.5t-25 -61.5t-63 -25.5q-36 0 -61.5 25.5t-25.5 61.5zM537 1250q0 36 25.5 61.5
t61.5 25.5q37 0 62 -25.5t25 -61.5t-25 -61.5t-62 -25.5q-36 0 -61.5 25.5t-25.5 61.5z" />
    <glyph glyph-name="tonos" unicode="&#x384;" horiz-adv-x="517" 
d="M260 1148q-22 0 -35.5 16t-15.5 37l-11 240q-3 17 8 30.5t29 13.5h49q17 0 27 -14t8 -28l-13 -242q0 -20 -13 -35.5t-33 -17.5z" />
    <glyph glyph-name="litre" unicode="&#x2113;" horiz-adv-x="843" 
d="M481 -4q-157 6 -237 83t-85 207q-1 24 -1.5 49t-0.5 51v582q0 177 73 266t222 89q61 0 111 -22t86 -60t55.5 -91t19.5 -114q0 -47 -13 -86.5t-40 -80.5t-69 -89l-99 -111l-127 -139q-38 -42 -58 -72.5t-29 -59.5q-13 -14 -16 -20t-3 -7q0 -65 6.5 -112t23.5 -78.5
t46 -48.5t75 -22q9 -1 24 -0.5t29 -1.5t24.5 -8.5t10.5 -21.5v-55q0 -27 -28 -27zM447 1217q-91 -3 -135 -55.5t-44 -164.5v-430l163 180.5t106.5 118t58 86.5t17.5 86q0 37 -11 69t-32 56t-51.5 38t-69.5 16h-2z" />
    <glyph glyph-name="uni037E" unicode="&#x37e;" horiz-adv-x="528" 
d="M147 901q0 19 7 36t19.5 30t29.5 20t36 7q40 0 66.5 -27t26.5 -66q0 -19 -7 -36t-19.5 -29.5t-29.5 -19.5t-37 -7q-19 0 -36 7t-29.5 19.5t-19.5 29.5t-7 36zM151 70q0 21 7.5 38.5t21 30.5t31 20.5t37.5 7.5q48 0 72.5 -32.5t24.5 -82.5q0 -52 -10 -91t-24 -65.5
t-29.5 -40t-27.5 -13.5q-9 0 -16 6l-22 17q-9 11 -9 20q0 7 5 13.5l11.5 15.5t11.5 20.5t5 29.5v10l-17 5q-30 8 -51.5 33t-20.5 58z" />
    <glyph glyph-name="uni021B" unicode="&#x21b;" horiz-adv-x="619" 
d="M245 -322q0 42 28 69.5t68 27.5q48 0 72.5 -32.5t24.5 -82.5q0 -52 -9.5 -91.5t-23.5 -66t-29.5 -40t-27.5 -13.5q-4 0 -11.5 4t-15.5 10t-14 13.5t-6 15.5q0 7 3.5 12.5t7.5 11t7.5 12.5t3.5 17q4 4 7.5 10t3.5 16v11q-37 6 -63 32t-26 64zM496 102q17 0 29.5 -9.5
t12.5 -29.5v-33q0 -23 -13.5 -31t-33.5 -8h-30q-51 0 -95 11t-76 41t-50.5 82t-18.5 134v613h-138q-20 0 -29.5 8t-9.5 28v37q0 20 9.5 28t29.5 8h138v295q0 30 33 35l50 7q20 0 27 -12t7 -30v-295h173q18 0 28.5 -9t10.5 -29v-33q0 -20 -10.5 -29t-28.5 -9h-173v-586
q0 -53 7 -87.5t22 -54.5t37.5 -29.5t54.5 -12.5h37z" />
    <glyph glyph-name="uni02C9" unicode="&#x2c9;" horiz-adv-x="981" 
 />
    <glyph glyph-name="uni021A" unicode="&#x21a;" horiz-adv-x="1267" 
d="M1156 1486q17 0 27.5 -9t12.5 -27v-41q0 -17 -10 -28t-30 -11h-464v-1333q0 -37 -37 -37h-41q-37 0 -37 37v1333h-468q-36 0 -36 39v41q0 17 9.5 26.5t26.5 9.5h1047zM538 -313q0 41 28.5 68.5t68.5 27.5q48 0 72.5 -32.5t24.5 -81.5q0 -52 -9.5 -91.5t-24 -66t-30 -40
t-27.5 -13.5q-9 0 -16 6l-22 17q-9 11 -9 20q0 8 5 16.5t11.5 18t11.5 20t5 24.5v10l-17 5q-31 9 -51.5 33.5t-20.5 58.5z" />
    <glyph glyph-name="lozenge" unicode="&#x25ca;" horiz-adv-x="988" 
 />
    <glyph glyph-name="Rho" unicode="&#x3a1;" horiz-adv-x="1259" 
d="M159 1439q0 20 13 33t33 13h474q96 0 180 -36.5t146.5 -99t99 -146.5t36.5 -180t-36.5 -180t-99 -146.5t-146 -99t-178.5 -36.5h-408v-515q0 -46 -46 -46h-24q-44 0 -44 46v1393zM1028 1023q0 73 -27.5 137t-74.5 112t-111 75.5t-136 27.5h-406v-704h406q72 0 136 27.5
t111 75.5t74.5 112t27.5 137z" />
    <glyph glyph-name="Sigma" unicode="&#x3a3;" horiz-adv-x="1216" 
d="M761 699l-248 -291.5l-248 -291.5h857q32 0 32 -32v-50q0 -15 -8.5 -24.5t-23.5 -9.5h-990q-24 0 -29.5 16t-5.5 39v31.5t8 22.5l269.5 315l269.5 315l-543 636l1 -1q-4 5 -6.5 10.5t-2.5 13.5v55q0 15 10 24t24 9h966q15 0 23.5 -9.5t8.5 -24.5v-50q0 -33 -32 -33h-833
l536 -630z" />
    <glyph glyph-name="Tau" unicode="&#x3a4;" horiz-adv-x="1267" 
d="M1134 1485q18 0 31 -11t13 -33v-24q0 -18 -12 -32t-32 -14h-458v-1327q0 -44 -46 -44h-24q-44 0 -44 44v1327h-462q-44 0 -44 46v24q0 44 44 44h1034z" />
    <glyph glyph-name="Upsilon" unicode="&#x3a5;" horiz-adv-x="1196" 
d="M67 1428q-14 25 -6 41t33 16h35q11 0 18.5 -1.5t14 -6t13.5 -14.5t16 -26l400 -671l414 684q22 35 50 35h49q46 0 19 -46l-473 -786v-607q0 -46 -46 -46h-24q-44 0 -44 46v599z" />
    <glyph glyph-name="Upsilontonos" unicode="&#x38e;" horiz-adv-x="1252" 
d="M-24 1150q-22 0 -36 16t-15 37l-11 240q-1 2 -1 6q0 15 10.5 26.5t27.5 11.5h49q16 0 25.5 -12.5t9.5 -26.5v-3l-13 -242q0 -20 -13 -35.5t-33 -17.5zM114 1428q-14 25 -6 41t33 16h35q11 0 18.5 -1.5t14 -6t13.5 -14.5t16 -26l400 -671l414 684q22 35 50 35h49
q46 0 19 -46l-473 -786v-607q0 -46 -46 -46h-24q-44 0 -44 46v599z" />
    <glyph glyph-name="Phi" unicode="&#x3a6;" horiz-adv-x="1600" 
d="M94 741q0 124 49.5 234.5t136 196t203 139.5t251.5 65v79q0 31 32 31h52q15 0 24 -8t9 -23v-79q90 -7 172.5 -33.5t154 -69.5t130 -100.5t100 -126t64.5 -146t23 -160.5q0 -125 -50 -235.5t-137 -195.5t-204.5 -139t-252.5 -64v-75q0 -31 -33 -31h-52q-32 0 -32 31v76
q-135 10 -251.5 63.5t-203 138.5t-136 196t-49.5 236zM1379 741q0 104 -40.5 194.5t-111.5 159t-167.5 111.5t-208.5 52v-1034q112 10 208.5 53t167.5 111.5t111.5 158.5t40.5 194zM210 741q0 -104 40 -194t110.5 -158.5t166 -111.5t207.5 -53v1033q-111 -9 -207 -52
t-166.5 -111t-110.5 -158.5t-40 -194.5z" />
    <glyph glyph-name="Phi.alt" horiz-adv-x="1606" 
d="M94 741q0 124 49.5 234.5t136 196t203 139.5t251.5 65v79q0 31 32 31h52q15 0 24 -8t9 -23v-79q90 -7 172.5 -33.5t154 -69.5t130 -100.5t100 -126t64.5 -146t23 -160.5q0 -125 -50 -235.5t-137 -195.5t-204.5 -139t-252.5 -64v-75q0 -31 -33 -31h-52q-32 0 -32 31v76
q-135 10 -251.5 63.5t-203 138.5t-136 196t-49.5 236zM1379 741q0 104 -40.5 194.5t-111.5 159t-167.5 111.5t-208.5 52v-1034q112 10 208.5 53t167.5 111.5t111.5 158.5t40.5 194zM210 741q0 -104 40 -194t110.5 -158.5t166 -111.5t207.5 -53v1033q-111 -9 -207 -52
t-166.5 -111t-110.5 -158.5t-40 -194.5zM98 1150q-22 0 -36 16t-15 37l-11 240q-1 2 -1 6q0 15 10.5 26.5t27.5 11.5h49q16 0 25.5 -12.5t9.5 -26.5v-3l-13 -242q0 -20 -13 -35.5t-33 -17.5z" />
    <glyph glyph-name="Chi" unicode="&#x3a7;" horiz-adv-x="1240" 
d="M618 838l407 602q19 28 34 36t40 8h38q32 0 34 -10.5t-19 -42.5l-469 -689l475 -701q28 -42 -12 -42h-52q-36 0 -56 31l-420 617l-420 -617q-20 -31 -56 -31h-52q-40 0 -12 42l475 701l-469 689q-21 32 -19 42.5t34 10.5h38q25 0 40 -8t34 -36z" />
    <glyph glyph-name="Psi" unicode="&#x3a8;" horiz-adv-x="1395" 
d="M91 1456q0 13 8.5 22t22.5 9h55q14 0 23.5 -8.5t9.5 -22.5v-353q0 -88 28 -165.5t78.5 -137t121 -98.5t156.5 -51v804q0 31 32 31h52q15 0 24 -8.5t9 -22.5v-806q89 11 161 50t123 99.5t78.5 138t27.5 166.5v352q0 14 8 21.5t20 7.5h59q14 0 22 -8t8 -20v-308
q0 -30 -1 -58.5t-4 -57.5q-10 -101 -52 -187t-109 -151.5t-154 -106.5t-187 -51v-505q0 -31 -33 -31h-52q-32 0 -32 31v505q-106 12 -197.5 59.5t-159.5 121.5t-107 169.5t-39 202.5v367z" />
    <glyph glyph-name="Omega" unicode="&#x3a9;" horiz-adv-x="1486" 
d="M920 0q-14 0 -23 8.5t-9 20.5v287q0 12 8.5 19t21 12t26.5 9t25 10q69 33 125 82.5t96 112.5t62 136.5t22 153.5q0 111 -42 208.5t-115 170.5t-170.5 115t-208.5 42t-208.5 -42t-169.5 -115t-114 -170.5t-42 -208.5q0 -87 26.5 -166.5t73.5 -145.5t113 -115.5t145 -76.5
q12 -2 21 -10.5t9 -20.5v-287q0 -11 -9 -20t-24 -9h-394q-38 0 -38 37v42q0 36 38 36h311v135q-89 37 -161.5 98t-125 139t-81 170t-28.5 192q0 136 51.5 255.5t141 208.5t209 141t255.5 52t255.5 -51.5t208.5 -141t141 -209t52 -255.5q0 -99 -28.5 -191t-79.5 -169.5
t-122.5 -138.5t-158.5 -98v-137h302q17 0 27.5 -9t10.5 -27v-42q0 -17 -10.5 -27t-27.5 -10h-387v0z" />
    <glyph glyph-name="Omega" unicode="&#x2126;" horiz-adv-x="1486" 
d="M920 0q-14 0 -23 8.5t-9 20.5v287q0 12 8.5 19t21 12t26.5 9t25 10q69 33 125 82.5t96 112.5t62 136.5t22 153.5q0 111 -42 208.5t-115 170.5t-170.5 115t-208.5 42t-208.5 -42t-169.5 -115t-114 -170.5t-42 -208.5q0 -87 26.5 -166.5t73.5 -145.5t113 -115.5t145 -76.5
q12 -2 21 -10.5t9 -20.5v-287q0 -11 -9 -20t-24 -9h-394q-38 0 -38 37v42q0 36 38 36h311v135q-89 37 -161.5 98t-125 139t-81 170t-28.5 192q0 136 51.5 255.5t141 208.5t209 141t255.5 52t255.5 -51.5t208.5 -141t141 -209t52 -255.5q0 -99 -28.5 -191t-79.5 -169.5
t-122.5 -138.5t-158.5 -98v-137h302q17 0 27.5 -9t10.5 -27v-42q0 -17 -10.5 -27t-27.5 -10h-387v0z" />
    <glyph glyph-name="Omegatonos" unicode="&#x38f;" horiz-adv-x="1536" 
d="M952 0q-14 0 -23 8.5t-9 20.5v287q0 12 8.5 19t21 12t26.5 9t25 10q69 33 125 82.5t96 112.5t62 136.5t22 153.5q0 111 -42 208.5t-115 170.5t-170.5 115t-208.5 42t-208.5 -42t-169.5 -115t-114 -170.5t-42 -208.5q0 -87 26.5 -166.5t73.5 -145.5t113 -115.5t145 -76.5
q12 -2 21 -10.5t9 -20.5v-287q0 -11 -9 -20t-24 -9h-394q-38 0 -38 37v42q0 36 38 36h311v135q-89 37 -161.5 98t-125 139t-81 170t-28.5 192q0 136 51.5 255.5t141 208.5t209 141t255.5 52t255.5 -51.5t208.5 -141t141 -209t52 -255.5q0 -99 -28.5 -191t-79.5 -169.5
t-122.5 -138.5t-158.5 -98v-137h302q17 0 27.5 -9t10.5 -27v-42q0 -17 -10.5 -27t-27.5 -10h-387zM51 1148q-22 0 -35.5 16t-15.5 37l-11 240q-3 17 8 30.5t29 13.5h49q17 0 27 -14t8 -28l-13 -242q0 -20 -13 -35.5t-33 -17.5z" />
    <glyph glyph-name="alpha" unicode="&#x3b1;" horiz-adv-x="1192" 
d="M1044 36q0 -17 -11 -26.5t-30 -9.5h-32q-40 0 -40 40v174q-21 -51 -56.5 -94t-82 -74.5t-103.5 -49t-122 -17.5q-102 0 -190 40t-152.5 109t-101.5 162t-37 199t36.5 199.5t101 163.5t152.5 110t191 40q66 0 122.5 -17.5t103 -48.5t81 -73.5t57.5 -92.5l4 171
q1 20 10 30.5t29 10.5h29q18 0 29.5 -10.5t11.5 -30.5v-905zM930 488q0 82 -26.5 155t-74.5 128t-115 87t-147 32q-81 0 -148.5 -32t-116 -86.5t-76 -127.5t-27.5 -155t27.5 -154.5t76.5 -126.5t116.5 -85.5t147.5 -31.5q79 0 146 31t115 84.5t75 126t27 155.5z" />
    <glyph glyph-name="alphatonos" unicode="&#x3ac;" horiz-adv-x="1165" 
d="M1044 36q0 -17 -11 -26.5t-30 -9.5h-32q-40 0 -40 40v174q-21 -51 -56.5 -94t-82 -74.5t-103.5 -49t-122 -17.5q-102 0 -190 40t-152.5 109t-101.5 162t-37 199t36.5 199.5t101 163.5t152.5 110t191 40q66 0 122.5 -17.5t103 -48.5t81 -73.5t57.5 -92.5l4 171
q1 20 10 30.5t29 10.5h29q18 0 29.5 -10.5t11.5 -30.5v-905zM930 488q0 82 -26.5 155t-74.5 128t-115 87t-147 32q-81 0 -148.5 -32t-116 -86.5t-76 -127.5t-27.5 -155t27.5 -154.5t76.5 -126.5t116.5 -85.5t147.5 -31.5q79 0 146 31t115 84.5t75 126t27 155.5zM568 1148
q-22 0 -35.5 16t-15.5 37l-11 240q-3 17 8 30.5t29 13.5h49q17 0 27 -14t8 -28l-13 -242q0 -20 -13 -35.5t-33 -17.5z" />
    <glyph glyph-name="beta" unicode="&#x3b2;" horiz-adv-x="1140" 
d="M160 1128q2 87 35.5 158.5t88.5 123t128 80t155 28.5q84 0 158.5 -28.5t131 -79.5t89 -122t32.5 -157q0 -45 -11 -87.5t-30.5 -80t-45 -68t-55.5 -50.5q120 -58 183 -165t63 -247q0 -104 -39 -193.5t-107 -155.5t-159.5 -103.5t-196.5 -37.5q-21 0 -33.5 5t-19 13
t-8 19.5t-1.5 23.5t1 23t7 19.5t19 14t37 5.5q68 0 135 26t120.5 74t87 115t33.5 150q0 81 -23 146t-71 110t-121.5 69.5t-173.5 24.5q-16 0 -30.5 7.5t-14.5 29.5v43q0 23 13 31t30 8h11q57 0 107 13.5t87.5 41.5t59 71t21.5 103q0 62 -21.5 112t-60 85t-91 54t-115.5 19
q-64 0 -117.5 -24t-92 -68t-60 -105.5t-21.5 -136.5l1 -1414q0 -36 -36 -36h-41q-39 0 -39 36z" />
    <glyph glyph-name="gamma" unicode="&#x3b3;" horiz-adv-x="967" 
d="M803 968q7 15 27 15h64q12 0 19.5 -4t7.5 -15q0 -10 -6 -26l-375 -897v-389q0 -32 -33 -32h-52q-32 0 -32 32v377l-380 909q-7 15 -7 26t8 15t20 4h64q20 0 27 -15l324 -792z" />
    <glyph glyph-name="delta" unicode="&#x3b4;" horiz-adv-x="1159" 
d="M76 488q0 109 41.5 200.5t112.5 158.5t166 104.5t203 37.5l-423 398q-8 12 -9.5 28t-1.5 30q0 20 7 33.5t28 13.5h768q16 0 24.5 -9.5t8.5 -24.5v-49q0 -32 -33 -32h-611l588 -532h-1q32 -32 59.5 -71.5t47.5 -85t31.5 -95t11.5 -100.5v-5q0 -106 -40 -198.5t-109 -161.5
t-162 -109t-199 -40q-105 0 -197.5 40t-161.5 109t-109 161.5t-40 198.5zM191 488q0 -82 30.5 -154t84 -126t124.5 -85t152 -31q79 0 151 31t126.5 84.5t86.5 125t32 152.5t-31 154t-85 127.5t-126 86.5t-154 32q-81 0 -152 -31.5t-124.5 -85.5t-84 -126.5t-30.5 -153.5z
" />
    <glyph glyph-name="epsilon" unicode="&#x3b5;" horiz-adv-x="874" 
d="M711 810q-7 -11 -18 -11q-10 0 -16 6q-26 22 -53 37t-54 24t-53 12.5t-48 3.5h-22q-88 0 -131.5 -43t-43.5 -117q0 -31 12 -59t33 -49t49 -33.5t61 -12.5h111q33 0 39.5 -10t6.5 -26v-54q0 -8 -6 -14t-14 -6h-158q-36 0 -67.5 -14.5t-55.5 -38.5t-37.5 -56t-13.5 -67
q0 -37 14 -69.5t39.5 -56.5t61.5 -38t80 -14h22q76 0 135.5 18t104.5 69q7 9 19 9q5 0 9 -3t7 -6l39 -37q8 -11 8 -22q0 -15 -10 -27.5t-21 -21.5q-31 -26 -61 -43t-64 -27.5t-73.5 -14.5t-90.5 -4q-69 0 -131 20.5t-108 58t-73 90.5t-27 118q0 77 38.5 138.5t101.5 102.5
q-45 33 -72.5 87t-27.5 114q0 65 24 115.5t66.5 84.5t101 51.5t127.5 17.5q58 0 116 -15t126 -58q14 -9 25.5 -21t11.5 -29q0 -9 -5 -18z" />
    <glyph glyph-name="epsilontonos" unicode="&#x3ad;" horiz-adv-x="867" 
d="M459 1148q-22 0 -35.5 16t-15.5 37l-11 240q-3 17 8 30.5t29 13.5h49q17 0 27 -14t8 -28l-13 -242q0 -20 -13 -35.5t-33 -17.5zM711 810q-7 -11 -18 -11q-10 0 -16 6q-26 22 -53 37t-54 24t-53 12.5t-48 3.5h-22q-88 0 -131.5 -43t-43.5 -117q0 -31 12 -59t33 -49
t49 -33.5t61 -12.5h111q33 0 39.5 -10t6.5 -26v-54q0 -8 -6 -14t-14 -6h-158q-36 0 -67.5 -14.5t-55.5 -38.5t-37.5 -56t-13.5 -67q0 -37 14 -69.5t39.5 -56.5t61.5 -38t80 -14h22q76 0 135.5 18t104.5 69q7 9 19 9q5 0 9 -3t7 -6l39 -37q8 -11 8 -22q0 -15 -10 -27.5
t-21 -21.5q-31 -26 -61 -43t-64 -27.5t-73.5 -14.5t-90.5 -4q-69 0 -131 20.5t-108 58t-73 90.5t-27 118q0 77 38.5 138.5t101.5 102.5q-45 33 -72.5 87t-27.5 114q0 65 24 115.5t66.5 84.5t101 51.5t127.5 17.5q58 0 116 -15t126 -58q14 -9 25.5 -21t11.5 -29q0 -9 -5 -18z
" />
    <glyph glyph-name="zeta" unicode="&#x3b6;" horiz-adv-x="963" 
d="M651 115q61 0 116.5 -25t97.5 -68.5t66.5 -102.5t24.5 -127q0 -74 -20 -130.5t-60 -110.5q-4 -5 -9 -9t-12 -4t-20.5 7t-26.5 16.5t-23 19.5t-10 16q0 7 6 15q29 35 44.5 80t15.5 92q0 51 -15 91t-41.5 67.5t-61 42.5t-73.5 15h-114q-95 0 -179 33.5t-146.5 92.5t-99 140
t-36.5 176q0 53 13 102.5t35.5 96t52.5 90t65 84.5l472 564h-549q-14 0 -23.5 7.5t-9.5 23.5v50q0 13 9.5 23t23.5 10h687q14 0 24 -10.5t10 -24.5q-1 -8 -1.5 -15.5t-2.5 -15.5l-32 -61q0 -3 -1 -5.5t-2 -5.5l-549 -653q-102 -121 -100 -246q0 -71 25.5 -133.5t71 -108.5
t108.5 -72.5t138 -26.5h111v0z" />
    <glyph glyph-name="eta" unicode="&#x3b7;" horiz-adv-x="1128" 
d="M276 36q0 -36 -37 -36h-41q-38 0 -38 36v916q0 14 8 23t23 9h59q9 0 15.5 -6t7.5 -16l3 -136q25 37 59 69t75 55.5t87.5 37t97.5 13.5q86 0 159.5 -32t127.5 -88t85 -131.5t31 -161.5v-933q0 -20 -10.5 -30t-28.5 -10h-41q-20 0 -28 9.5t-8 29.5v936q-1 62 -25 116
t-64.5 94t-94.5 63t-115 23q-60 0 -114.5 -22t-96.5 -60.5t-67.5 -91t-28.5 -113.5v-563z" />
    <glyph glyph-name="etatonos" unicode="&#x3ae;" horiz-adv-x="1164" 
d="M276 36q0 -36 -37 -36h-41q-38 0 -38 36v916q0 14 8 23t23 9h59q9 0 15.5 -6t7.5 -16l3 -136q25 37 59 69t75 55.5t87.5 37t97.5 13.5q86 0 159.5 -32t127.5 -88t85 -131.5t31 -161.5v-933q0 -20 -10.5 -30t-28.5 -10h-41q-20 0 -28 9.5t-8 29.5v936q-1 62 -25 116
t-64.5 94t-94.5 63t-115 23q-60 0 -114.5 -22t-96.5 -60.5t-67.5 -91t-28.5 -113.5v-563zM590 1148q-22 0 -35.5 16t-15.5 37l-11 240q-3 17 8 30.5t29 13.5h49q17 0 27 -14t8 -28l-13 -242q0 -20 -13 -35.5t-33 -17.5z" />
    <glyph glyph-name="theta" unicode="&#x3b8;" horiz-adv-x="1155" 
d="M97 744q0 175 38.5 316.5t104.5 241.5t153.5 153.5t185.5 53.5q97 0 184.5 -53.5t153.5 -153.5t105 -241.5t39 -317.5q0 -174 -39 -314.5t-105 -240t-153.5 -153t-185.5 -53.5q-97 0 -184 53.5t-153 153t-105 240.5t-39 315zM576 1389q-73 0 -136.5 -47t-111.5 -128
t-77.5 -188.5t-35.5 -228.5h724q-6 120 -36.5 227.5t-79 188.5t-112 128.5t-135.5 47.5zM576 96q72 0 135.5 47t112 127t79 186t36.5 225h-724q6 -119 35.5 -225.5t77.5 -186.5t111.5 -126.5t136.5 -46.5z" />
    <glyph glyph-name="iota" unicode="&#x3b9;" horiz-adv-x="435" 
d="M159 945q0 37 38 37h41q17 0 27 -10t10 -27v-909q0 -36 -37 -36h-41q-38 0 -38 36v909zM123 1265q0 19 7.5 36t20 30t29.5 20t36 7q39 0 66 -27t27 -66q0 -19 -7 -36t-20 -29.5t-30 -19.5t-36 -7t-36 7t-29.5 19.5t-20 29.5t-7.5 36z" />
    <glyph glyph-name="iotadieresis" unicode="&#x3ca;" horiz-adv-x="434" 
d="M160 943q0 17 10.5 27t27.5 10h41q18 0 27.5 -10.5t9.5 -26.5v-907q0 -36 -36 -36h-41q-39 0 -39 36v907zM-51 1249q0 36 25.5 61.5t61.5 25.5q38 0 63 -25.5t25 -61.5t-25 -61.5t-63 -25.5q-36 0 -61.5 25.5t-25.5 61.5zM313 1250q0 36 25.5 61.5t61.5 25.5
q37 0 62 -25.5t25 -61.5t-25 -61.5t-62 -25.5q-36 0 -61.5 25.5t-25.5 61.5z" />
    <glyph glyph-name="iotatonos" unicode="&#x3af;" horiz-adv-x="434" 
d="M160 943q0 17 10.5 27t27.5 10h41q18 0 27.5 -10.5t9.5 -26.5v-907q0 -36 -36 -36h-41q-39 0 -39 36v907zM219 1148q-22 0 -35.5 16t-15.5 37l-11 240q-3 17 8 30.5t29 13.5h49q17 0 27 -14t8 -28l-13 -242q0 -20 -13 -35.5t-33 -17.5z" />
    <glyph glyph-name="kappa" unicode="&#x3ba;" horiz-adv-x="1095" 
d="M873 984h39q17 0 27 -5.5t10 -23.5v-51q0 -14 -8 -23t-24 -9h-109l-275 -260l136.5 -164.5l104.5 -126l78 -95l59 -71.5l46.5 -55.5l40.5 -47.5q7 -8 11.5 -16t4.5 -14q0 -22 -28 -22h-17t-24 0.5t-26 2t-22 4.5q-14 5 -26 16.5t-25 27.5l-391 481l-187 -177v-319
q0 -36 -38 -36h-41q-37 0 -37 36v911q0 17 9.5 27.5t27.5 10.5h41q17 0 27.5 -10.5t10.5 -27.5v-439l408 397l73 68q9 11 28 11h72h24z" />
    <glyph glyph-name="lambda" unicode="&#x3bb;" horiz-adv-x="1038" 
d="M487 1226l108.5 -266l115 -280.5l117.5 -285.5l116 -280q8 -19 20 -43.5t12 -41.5q0 -21 -21 -25t-47 -4q-23 0 -35.5 3t-21.5 22l-331 828l-170.5 -418.5l-167.5 -414.5q-6 -15 -17.5 -18t-31.5 -3h-26t-23.5 2.5t-17.5 7.5t-7 16q0 4 1.5 10t2.5 8q0 -1 -1 -1
l198 475.5l197 475.5l-87 211q-38 92 -87 131.5t-120 39.5q-11 0 -21 2t-10 19v71q0 11 8 20t25 9q74 0 126 -23t88.5 -60.5t61.5 -86.5t46 -100z" />
    <glyph glyph-name="uni03BC" unicode="&#x3bc;" horiz-adv-x="1136" 
d="M145 943q0 39 37 39h42q37 0 37 -39v-560q0 -60 24.5 -112.5t65.5 -92t95 -62.5t113 -23h4q61 0 116 23t97 62.5t67 93t27 115.5v557q0 36 36 36h41q39 0 39 -36v-905q0 -17 -10.5 -27t-27.5 -10h-37q-38 0 -38 37l-3 116q-25 -36 -58 -67.5t-73 -55t-85.5 -37
t-94.5 -13.5t-92.5 12t-81.5 34t-69.5 51.5t-55.5 64.5v-552q0 -37 -37 -37h-41q-37 0 -37 37v1351z" />
    <glyph glyph-name="nu" unicode="&#x3bd;" horiz-adv-x="956" 
d="M803 968q7 15 27 15h64q17 0 24.5 -8.5t-3.5 -36.5l-380 -909q-6 -15 -15 -22t-26 -7h-30q-17 0 -26 7t-15 22l-380 909q-11 28 -3.5 36.5t24.5 8.5h64q20 0 27 -15l324 -782z" />
    <glyph glyph-name="xi" unicode="&#x3be;" horiz-adv-x="866" 
d="M512 761q-70 -3 -129.5 -27t-102.5 -66.5t-67 -101.5t-24 -131t26.5 -132.5t72.5 -104t107.5 -67.5t131.5 -24h64q61 0 116.5 -25t97.5 -68.5t66.5 -102.5t24.5 -127q0 -29 -7.5 -72t-21 -83t-32 -68.5t-41.5 -28.5q-8 0 -21.5 8t-26 17.5t-22 18.5t-9.5 12q0 6 5 16
q30 37 47.5 84.5t17.5 98.5q0 40 -17 77t-44.5 65.5t-62.5 45.5t-70 17h-59q-98 0 -182 33t-145.5 92t-96.5 140t-35 177q0 72 19 133t54.5 110.5t84.5 88t109 65.5q-38 22 -68.5 55t-52.5 72.5t-33.5 84t-11.5 91.5q0 69 35 130.5t95 106.5h-198q-32 0 -32 33v51
q0 31 32 31h683q11 0 22 -9.5t11 -26.5v-42q0 -17 -10.5 -27t-27.5 -10h-209q-18 0 -36 -1t-36 -4q-43 -8 -81.5 -29.5t-68 -53.5t-46.5 -73.5t-17 -88.5q0 -57 21.5 -102.5t58 -77t85 -48.5t102.5 -17h107q17 0 27.5 -9t10.5 -27v-42q0 -17 -10.5 -27t-27.5 -10h-152v0z
" />
    <glyph glyph-name="pi" unicode="&#x3c0;" horiz-adv-x="1224" 
d="M1120 982q33 0 33 -31v-53q0 -15 -9 -24t-24 -9h-159v-834q0 -32 -33 -32h-51q-32 0 -32 32v834h-498v-834q0 -32 -33 -32h-51q-32 0 -32 32v834h-155q-32 0 -32 33v53q0 31 32 31h1044z" />
    <glyph glyph-name="rho" unicode="&#x3c1;" horiz-adv-x="1209" 
d="M129 -353q1 213 1 423.5v424.5q0 106 39 199t106.5 162.5t157 110t191.5 40.5t192.5 -40.5t158 -110t107 -162.5t39.5 -199t-39.5 -199t-107 -162.5t-158 -109.5t-192.5 -40q-59 0 -113.5 14t-103 40t-90 62t-72.5 81v-534q0 -37 -36 -37h-42q-38 0 -38 37zM245 476
q3 -78 35 -147.5t84 -121t119.5 -81.5t142.5 -30q77 0 146.5 31.5t122 86t83 127t30.5 154.5t-30.5 154.5t-83 127t-122 86t-146.5 31.5q-76 0 -144.5 -31t-121 -84.5t-84 -125t-32.5 -152.5q1 -6 1 -12v-13z" />
    <glyph glyph-name="uni03C2" unicode="&#x3c2;" horiz-adv-x="1006" 
d="M656 113q77 0 135 -22t96.5 -62.5t58 -98t19.5 -129.5q0 -29 -7.5 -63t-19.5 -67t-27.5 -63t-31.5 -52q-8 -13 -21 -13q-8 0 -21 8t-26 18.5t-22.5 19t-9.5 10.5q0 5 2 8.5t4 8.5v-1q29 36 47.5 88t18.5 102t-16.5 87t-43.5 61t-62.5 36t-73.5 12h-85q-104 0 -195 39
t-159.5 107t-108 158.5t-39.5 194.5q0 105 40 196t108.5 158.5t159.5 106.5t194 39q81 0 155 -24.5t136 -68.5q15 -11 30 -27t15 -30q-2 -8 -7.5 -19t-12.5 -22t-15.5 -18.5t-16.5 -7.5q-9 0 -15 5q-51 42 -122.5 71t-149.5 29q-80 0 -149.5 -30.5t-121.5 -83t-81.5 -123
t-29.5 -151.5t30 -152t82 -123t122.5 -82t150.5 -30h86v0z" />
    <glyph glyph-name="sigma" unicode="&#x3c3;" horiz-adv-x="1172" 
d="M1105 975q27 0 27 -27v-58q0 -12 -6.5 -20.5t-20.5 -8.5h-225q65 -44 106 -112q18 -26 32.5 -52.5t25 -56t16 -64.5t5.5 -77q0 -105 -38 -198.5t-104.5 -164t-156.5 -111.5t-195 -41q-104 0 -194 41t-156 111.5t-104 164t-38 198.5t38 197t104 160.5t156 108t194 39.5
q85 0 161 -29h373zM196 499q0 -81 28.5 -154t79 -128.5t119.5 -88t150 -32.5t149.5 32.5t118.5 88t78 128.5t28 154t-29.5 153t-80 125.5t-118.5 84.5t-146 31q-81 0 -150 -31.5t-119.5 -85t-79 -125t-28.5 -152.5z" />
    <glyph glyph-name="tau" unicode="&#x3c4;" horiz-adv-x="843" 
d="M792 982q28 0 28 -27v-60q0 -11 -7 -20t-21 -9h-309v-835q0 -32 -32 -32h-53q-32 0 -32 32v835h-309q-27 0 -27 29v60q0 27 27 27h735z" />
    <glyph glyph-name="upsilon" unicode="&#x3c5;" horiz-adv-x="1087" 
d="M966 389q0 -86 -33 -161t-90 -130.5t-133.5 -88t-163.5 -32.5t-163.5 32.5t-133.5 88t-90 130.5t-33 161v557q0 37 37 37h50q20 0 28 -9t8 -27v-563q0 -59 23.5 -112t64 -93t94.5 -63.5t115 -23.5t115 22.5t94.5 62t64 93t23.5 114.5v563q0 18 8 27t28 9h50q37 0 37 -37
v-557z" />
    <glyph glyph-name="upsilondieresis" unicode="&#x3cb;" horiz-adv-x="1099" 
d="M966 389q0 -86 -33 -161t-90 -130.5t-133.5 -88t-163.5 -32.5t-163.5 32.5t-133.5 88t-90 130.5t-33 161v558q0 37 37 37h50q20 0 28 -9t8 -27v-564q0 -59 23.5 -112t64 -93t94.5 -63.5t115 -23.5t115 22.5t94.5 62t64 93t23.5 114.5v564q0 18 8 27t28 9h50q37 0 37 -37
v-558zM274 1245q0 36 25.5 61.5t61.5 25.5q37 0 62 -25.5t25 -61.5t-25 -61.5t-62 -25.5q-36 0 -61.5 25.5t-25.5 61.5zM637 1246q0 36 25.5 61.5t61.5 25.5q38 0 63 -25.5t25 -61.5t-25 -61.5t-63 -25.5q-36 0 -61.5 25.5t-25.5 61.5z" />
    <glyph glyph-name="upsilondieresistonos" unicode="&#x3b0;" horiz-adv-x="1087" 
d="M966 389q0 -86 -33 -161t-90 -130.5t-133.5 -88t-163.5 -32.5t-163.5 32.5t-133.5 88t-90 130.5t-33 161v557q0 37 37 37h50q20 0 28 -9t8 -27v-563q0 -59 23.5 -112t64 -93t94.5 -63.5t115 -23.5t115 22.5t94.5 62t64 93t23.5 114.5v563q0 18 8 27t28 9h50q37 0 37 -37
v-557zM501 1232l-8 150t-9 150q1 5 4 8.5t9 3.5h24q22 14 62 14q28 0 28 -25v-4l-16 -297q-1 -15 -9 -24t-22 -9h-30q-15 0 -24 8.5t-9 24.5zM207 1249q0 19 7 36t19.5 29.5t29.5 20t36 7.5q20 0 37 -7.5t29.5 -20t19.5 -29.5t7 -36t-7 -36t-19.5 -29.5t-29.5 -20t-37 -7.5
q-19 0 -36 7.5t-29.5 20t-19.5 29.5t-7 36zM702 1249q0 19 7.5 36t20 29.5t29.5 20t36 7.5t36 -7.5t30 -20t20 -29.5t7 -36t-7 -36t-20 -29.5t-30 -20t-36 -7.5t-36 7.5t-29.5 20t-20 29.5t-7.5 36z" />
    <glyph glyph-name="upsilontonos" unicode="&#x3cd;" horiz-adv-x="1110" 
d="M566 1127h-30h30zM966 389q0 -86 -33 -161t-90 -130.5t-133.5 -88t-163.5 -32.5t-163.5 32.5t-133.5 88t-90 130.5t-33 161v552q0 37 37 37h50q20 0 28 -9t8 -27v-558q0 -59 23.5 -112t64 -93t94.5 -63.5t115 -23.5t115 22.5t94.5 62t64 93t23.5 114.5v558q0 18 8 27
t28 9h50q37 0 37 -37v-552zM548 1148q-22 0 -35.5 16t-15.5 37l-11 240q-3 17 8 30.5t29 13.5h49q17 0 27 -14t8 -28l-13 -242q0 -20 -13 -35.5t-33 -17.5z" />
    <glyph glyph-name="phi" unicode="&#x3c6;" horiz-adv-x="1206" 
d="M538 1320q0 31 31 31h52q32 0 32 -31v-331q94 -11 176 -54t142.5 -109.5t95 -153.5t34.5 -184q0 -98 -34.5 -184.5t-95 -153t-142.5 -109.5t-176 -53v-337q0 -32 -32 -32h-52q-31 0 -31 32v338q-94 10 -175 53t-141 109.5t-94 153t-34 183.5t34 183.5t94 153t141 109.5
t175 54v332zM984 488q0 73 -25.5 139t-70 118t-105 86t-130.5 44v-773q70 9 130.5 43t105 85.5t70 117.5t25.5 140zM210 488q0 -73 25 -138.5t69 -117t104 -86t130 -44.5v772q-70 -11 -130 -45t-104 -85.5t-69 -117t-25 -138.5z" />
    <glyph glyph-name="chi" unicode="&#x3c7;" horiz-adv-x="1240" 
d="M618 391l407 555q19 25 34 32.5t40 7.5h38q34 0 34 -13q0 -11 -19 -36l-469 -635l475 -646q11 -15 11 -26q0 -13 -23 -13h-52q-35 0 -56 29l-420 568l-421 -568q-22 -29 -56 -29h-52q-24 0 -24 13q1 5 3.5 11.5t8.5 14.5l475 646l-469 635q-19 25 -19 36q0 13 34 13h38
q25 0 40 -7.5t34 -32.5z" />
    <glyph glyph-name="psi" unicode="&#x3c8;" horiz-adv-x="1164" 
d="M1017 389q0 -78 -32 -147t-86 -123t-125 -90t-149 -47v-340q0 -32 -33 -32h-52q-32 0 -32 32v340q-80 10 -151.5 45.5t-125.5 90t-86 124t-32 147.5v558q0 37 36 37h46q36 0 36 -36v-564q0 -55 18.5 -104.5t53.5 -88.5t87 -64.5t118 -33.5v1236q0 31 32 31h52q15 0 24 -8
t9 -23v-1236q66 8 117 34t86 64.5t53 88t18 104.5v564q0 36 35 36h47q17 0 26.5 -9.5t9.5 -27.5v-558z" />
    <glyph glyph-name="omega" unicode="&#x3c9;" horiz-adv-x="1344" 
d="M1157 899q29 -53 44.5 -128t15.5 -149v-287q0 -20 -1.5 -39.5t-3.5 -39.5q-6 -55 -33.5 -104t-68 -85.5t-91 -57.5t-103.5 -21q-73 0 -138.5 34t-107.5 94q-41 -59 -106 -93.5t-140 -34.5q-51 0 -101.5 20.5t-91.5 56.5t-68.5 85t-34.5 106q-2 20 -3.5 39.5t-1.5 39.5
v287q0 110 32 214q6 21 17 47.5t24 50.5t27.5 40.5t29.5 16.5q22 -8 41.5 -21t35.5 -27l-1 1q7 -7 7 -9q0 -10 -5 -16q-21 -27 -38 -63.5t-28.5 -77.5t-18 -82.5t-6.5 -77.5v-312q0 -45 15.5 -81.5t41.5 -62.5t60 -40.5t70 -14.5q33 0 66.5 13.5t60.5 37.5t44 56.5t17 70.5
v383q0 9 6 15.5t17 6.5h64q10 0 16.5 -6.5t6.5 -15.5v-383q0 -37 16 -69.5t42 -56.5t59.5 -38t69.5 -14q37 0 70.5 14.5t59.5 40.5t41.5 62.5t15.5 81.5v315q0 34 -6 75t-17.5 81t-28 77t-37.5 64q-2 3 -4 8.5t-2 7.5q0 6 13.5 18.5t32 22.5t36.5 12t27 -12q31 -42 44 -76z
" />
    <glyph glyph-name="omegatonos" unicode="&#x3ce;" horiz-adv-x="1348" 
d="M1161 899q29 -53 44.5 -128t15.5 -149v-287q0 -20 -1.5 -39.5t-3.5 -39.5q-6 -55 -33.5 -104t-68 -85.5t-91 -57.5t-103.5 -21q-73 0 -138.5 34t-107.5 94q-41 -59 -106 -93.5t-140 -34.5q-51 0 -101.5 20.5t-91.5 56.5t-68.5 85t-34.5 106q-2 20 -3.5 39.5t-1.5 39.5
v287q0 110 32 214q6 21 17 47.5t24 50.5t27.5 40.5t29.5 16.5q22 -8 41.5 -21t35.5 -27l-1 1q7 -7 7 -9q0 -10 -5 -16q-21 -27 -37.5 -63.5t-28.5 -77.5t-18.5 -82.5t-6.5 -77.5v-312q0 -45 15.5 -81.5t41.5 -62.5t60 -40.5t70 -14.5q33 0 66.5 13.5t60.5 37.5t44 56.5
t17 70.5v383q0 9 6 15.5t17 6.5h64q10 0 16.5 -6.5t6.5 -15.5v-383q0 -37 16 -69.5t42 -56.5t59.5 -38t69.5 -14q37 0 70.5 14.5t59.5 40.5t41.5 62.5t15.5 81.5v315q0 34 -6 75t-17.5 81t-28 77t-37.5 64q-2 3 -4 8.5t-2 7.5q0 6 9.5 13t24.5 13.5t34.5 10.5t40.5 4
q14 -14 26 -37t18 -39zM671 1148q-22 0 -35.5 16t-15.5 37l-11 240q-3 17 8 30.5t29 13.5h49q17 0 27 -14t8 -28l-13 -242q0 -20 -13 -35.5t-33 -17.5z" />
    <glyph glyph-name="omicron" unicode="&#x3bf;" horiz-adv-x="1165" 
d="M70 491q0 106 40 199.5t109.5 163t162.5 109.5t199 40t199.5 -40t163 -109.5t109.5 -163t40 -199.5q0 -107 -40 -200t-109.5 -163t-163 -110t-199.5 -40t-199 40t-162.5 110t-109.5 163t-40 200zM182 491q0 -83 31.5 -155.5t86.5 -127.5t127.5 -86.5t155.5 -31.5
q82 0 155 31.5t127.5 86.5t86 127.5t31.5 155.5q0 82 -31.5 155t-86 127.5t-127.5 86t-155 31.5q-83 0 -155.5 -31.5t-127.5 -86t-86.5 -127.5t-31.5 -155z" />
    <glyph glyph-name="omicrontonos" unicode="&#x3cc;" horiz-adv-x="1180" 
d="M70 491q0 106 40 199.5t109.5 163t162.5 109.5t199 40t199.5 -40t163 -109.5t109.5 -163t40 -199.5q0 -107 -40 -200t-109.5 -163t-163 -110t-199.5 -40t-199 40t-162.5 110t-109.5 163t-40 200zM182 491q0 -83 31.5 -155.5t86.5 -127.5t127.5 -86.5t155.5 -31.5
q82 0 155 31.5t127.5 86.5t86 127.5t31.5 155.5q0 82 -31.5 155t-86 127.5t-127.5 86t-155 31.5q-83 0 -155.5 -31.5t-127.5 -86t-86.5 -127.5t-31.5 -155zM586 1148q-22 0 -35.5 16t-15.5 37l-11 240q-3 17 8 30.5t29 13.5h49q17 0 27 -14t8 -28l-13 -242q0 -20 -13 -35.5
t-33 -17.5z" />
    <glyph glyph-name="uni03D0" unicode="&#x3d0;" horiz-adv-x="1137" 
d="M557 -24q-26 0 -49.5 4t-45.5 11q-63 11 -118.5 41t-96 75t-64 103.5t-23.5 126.5v799q0 87 31.5 154t84.5 113t122 69.5t144 23.5q79 0 148.5 -28t121.5 -77.5t82.5 -117t30.5 -147.5q0 -48 -11.5 -92t-33 -81t-51.5 -66t-67 -46q133 -50 200.5 -153t67.5 -252
q0 -100 -34.5 -183.5t-96.5 -144.5t-149.5 -95.5t-192.5 -36.5zM550 91q78 0 144 24t115 68.5t76.5 108.5t27.5 144q0 163 -95 251t-279 88q-18 0 -27 8t-9 22v53q0 13 8.5 21.5t25.5 8.5h5q57 0 105.5 15.5t84 45.5t56 74t20.5 100q0 54 -18.5 102t-53 84t-84.5 57t-113 21
q-57 0 -105 -18t-82.5 -51t-53.5 -78.5t-19 -99.5v-807q1 -51 20.5 -95.5t55 -77t85.5 -51t110 -18.5z" />
    <glyph glyph-name="uni03D1" unicode="&#x3d1;" horiz-adv-x="1074" 
d="M121 377q1 16 10.5 25.5t25.5 9.5h51q34 0 34 -38q0 -47 22 -89q10 -39 33.5 -73t55.5 -58.5t72.5 -38.5t85.5 -14q52 0 98.5 18.5t82 51.5t56 77.5t20.5 96.5v378h-266q-78 0 -147.5 30.5t-122 83t-83 122t-30.5 148.5v5q0 79 31.5 149t84.5 122.5t123 83t149 30.5
q78 0 147 -27t121 -76.5t82.5 -118.5t30.5 -153q0 -70 0.5 -140t0.5 -140v-2h84q17 0 27.5 -9t10.5 -27v-42q0 -17 -10.5 -27t-27.5 -10h-84v-369q0 -85 -30.5 -154t-82.5 -118t-121 -75.5t-145 -26.5q-79 0 -149.5 30t-124 82.5t-84.5 123t-31 150.5v9zM768 1122
q0 55 -20 102t-55 81.5t-82.5 53.5t-102.5 19q-57 0 -106 -21.5t-85 -57.5t-56.5 -84.5t-20.5 -102.5q0 -57 21.5 -106.5t57.5 -85.5t83.5 -57t99.5 -21h266v280z" />
    <glyph glyph-name="uni03F0" unicode="&#x3f0;" horiz-adv-x="845" 
d="M165 42q-17 -23 -32.5 -32.5t-38.5 -9.5h-26q-50 0 -13 68l303 451l-270 405q-17 26 -11.5 41.5t37.5 15.5h18q28 0 41.5 -8.5t28.5 -33.5l220 -325l231 339q12 14 24.5 21t32.5 7h18q35 0 43.5 -11t-6.5 -37l-279 -414l317 -473q13 -25 10.5 -35.5t-28.5 -10.5h-37
q-35 0 -57 29l-269 398z" />
    <glyph glyph-name="afii10017" unicode="&#x410;" horiz-adv-x="1446" 
d="M665 1441q5 15 16.5 29.5t29.5 14.5h37q11 0 19 -6t14 -14.5t10 -17t6 -13.5l580 -1390q3 -8 3 -15q0 -14 -9.5 -21.5t-23.5 -7.5h-25q-22 0 -36.5 13t-22.5 31l-134 321h-801l-130 -314q-17 -51 -61 -51h-25q-32 0 -32 25q0 10 4 21zM376 480h704l-352 844z" />
    <glyph glyph-name="afii10018" unicode="&#x411;" horiz-adv-x="1302" 
d="M278 1371v-447h476q95 0 178.5 -36.5t146 -99t99 -146.5t36.5 -180t-36.5 -180t-99 -146.5t-146.5 -99t-180 -36.5h-542q-20 0 -33 13t-13 33v1393q0 46 44 46h845q20 0 32 -14t12 -32v-24q0 -22 -13 -33t-31 -11h-775zM1102 462q0 73 -27.5 137t-75 112t-111 75.5
t-136.5 27.5h-474v-704h474q73 0 136.5 27.5t111 75.5t75 112t27.5 137z" />
    <glyph glyph-name="afii10019" unicode="&#x412;" horiz-adv-x="1357" 
d="M1175 1102q0 -100 -44 -186t-119 -146q56 -21 102 -56t79 -81.5t51.5 -102.5t18.5 -119q0 -83 -30 -157.5t-83.5 -130.5t-127 -89.5t-160.5 -33.5h-652q-20 0 -33 13t-13 33v1393q0 20 13 33t33 13h582q79 0 149 -30t122 -82t82 -122t30 -149zM274 689v-579h590
q57 0 108.5 24t90.5 64.5t62 95t23 115.5t-22 112.5t-60.5 88.5t-91 58t-112.5 21h-588zM1060 1100q0 59 -19.5 109.5t-55 87t-85 57.5t-108.5 21h-518v-576h518q59 0 108.5 25t85 66.5t55 96t19.5 113.5z" />
    <glyph glyph-name="afii10020" unicode="&#x413;" horiz-adv-x="1140" 
d="M275 1371v-1327q0 -20 -14 -32t-32 -12h-24q-22 0 -33 13t-11 31v1397q0 44 44 44h854q20 0 32 -14t12 -32v-24q0 -22 -13 -33t-31 -11h-784z" />
    <glyph glyph-name="afii10021" unicode="&#x414;" horiz-adv-x="1536" 
d="M154 0v-360q0 -29 -32 -29h-52q-30 0 -30 29v443q0 32 30 32h84q49 75 96 168.5t83 212.5t58 269t22 338v353q0 32 31 32h781q12 0 22 -8.5t10 -22.5v-1342h136q12 0 21.5 -8.5t9.5 -21.5v-438q0 -17 -11 -24.5t-25 -7.5h-42q-17 0 -27 10.5t-10 27.5v347h-1155z
M528 1103q0 -184 -19.5 -330.5t-52.5 -265t-77 -214t-92 -178.5h855v1258h-614v-270z" />
    <glyph glyph-name="De.alt" horiz-adv-x="1537" 
d="M154 0v-360q0 -29 -32 -29h-52q-30 0 -30 29v443q0 32 30 32h84q49 75 96 168.5t83 212.5t58 269t22 338v353q0 32 31 32h781q12 0 22 -8.5t10 -22.5v-1342h136q12 0 21.5 -8.5t9.5 -21.5v-438q0 -17 -11 -24.5t-25 -7.5h-42q-17 0 -27 10.5t-10 27.5v347h-1155z
M528 1103q0 -184 -19.5 -330.5t-52.5 -265t-77 -214t-92 -178.5h855v1258h-614v-270z" />
    <glyph glyph-name="afii10022" unicode="&#x415;" horiz-adv-x="1285" 
d="M1176 1485q18 0 31 -11t13 -33v-24q0 -18 -12 -32t-32 -14h-900v-561h730q18 0 31 -11.5t13 -32.5v-25q0 -18 -12 -32t-32 -14h-730v-581h922q18 0 31 -11t13 -33v-24q0 -18 -12 -32t-32 -14h-993q-44 0 -44 44v1397q0 18 11.5 31t32.5 13h971z" />
    <glyph glyph-name="afii10023" unicode="&#x401;" horiz-adv-x="1285" 
d="M1165 1486q38 0 38 -38v-40q0 -17 -10 -27.5t-29 -10.5h-886v-536h716q17 0 27.5 -9t10.5 -29v-41q0 -17 -9.5 -27t-28.5 -10h-716v-603h901q38 0 38 -37v-42q0 -36 -37 -36h-985q-14 0 -23 9t-9 26v1414q0 3 1 5t1 4q3 28 35 28h965zM404 1751q0 37 25.5 62.5t61.5 25.5
q38 0 63 -25.5t25 -62.5q0 -36 -25 -61.5t-63 -25.5q-36 0 -61.5 25.5t-25.5 61.5zM768 1752q0 37 25.5 62.5t61.5 25.5q37 0 62 -25.5t25 -62.5q0 -36 -25 -61.5t-62 -25.5q-36 0 -61.5 25.5t-25.5 61.5z" />
    <glyph glyph-name="afii10024" unicode="&#x416;" horiz-adv-x="1801" 
d="M833 655l-3 2q-32 1 -60 8.5t-54 20.5l-487 -629q-6 -8 -15 -18t-19.5 -18.5t-22 -14t-23.5 -5.5h-71q-25 0 -25 15q0 9 7 17l560 712q-23 24 -45 54.5t-43.5 65t-42 71.5l-41.5 72l-105 179l-18 27l-40.5 58.5t-44 50.5t-51 35t-61.5 13l-59 -1q-17 -1 -27.5 9t-10.5 28
v42q0 18 10.5 27t27.5 9h41q72 0 125.5 -26.5t96.5 -70.5t78 -100.5l69 -116.5l17 -30l43 -76.5l44 -76l44 -72t44 -63.5q32 -44 72.5 -64t89.5 -21v681q0 37 38 37h42q17 0 26.5 -10t9.5 -27v-681q45 2 84 22t71 63q22 29 44 63.5l44 72l44 76l43 76.5l17 30l69 116.5
t78 100.5t96.5 70.5t125.5 26.5h41q17 0 27.5 -9t10.5 -27v-42q0 -17 -9 -26.5t-25 -9.5h-63q-35 0 -62.5 -13t-50.5 -35t-43.5 -50.5l-40.5 -58.5l-18 -27l-105 -179l-41.5 -72t-42 -71.5t-43.5 -65t-45 -54.5l560 -712q5 -8 5 -15t-5 -12t-18 -5h-81q-10 0 -20 6t-19 14
t-16.5 17.5t-12.5 16.5l-489 631q-25 -13 -52.5 -20.5t-57.5 -8.5v-621q0 -36 -36 -36h-41q-39 0 -39 36v619z" />
    <glyph glyph-name="afii10025" unicode="&#x417;" horiz-adv-x="1116" 
d="M410 865h3h152q55 1 105.5 20t89.5 53.5t62.5 83.5t23.5 110q0 53 -22 97t-59.5 77t-87.5 52.5t-106 22.5q-39 3 -80 3q-103 0 -187 -37t-135 -101l-10 -11.5t-11 -7.5t-13.5 0.5t-16.5 10.5l-43 41h1q-5 5 -5 12q0 5 3.5 11t7.5 11q42 51 84.5 85.5t91 55.5t105 29.5
t126.5 8.5q22 0 43 -0.5t42 -1.5q81 -4 151 -29.5t122 -71t82 -110t30 -145.5q0 -59 -17 -108.5t-45 -89t-64 -68t-73 -46.5q58 -27 105.5 -66.5t81.5 -90t52.5 -111.5t18.5 -130q0 -96 -34.5 -174t-93.5 -134.5t-139 -89t-170 -37.5q-19 -1 -38 -1.5t-38 -0.5
q-68 0 -129.5 8t-116.5 28t-102 54t-86 87q-5 5 -7 16q0 10 5 16h-1q5 8 13 17.5t16.5 18t18 14.5t17.5 6q14 0 23 -10h-1q30 -44 67.5 -71.5t81.5 -44t93.5 -22.5t103.5 -6q19 0 38 0.5t37 1.5q68 3 127.5 26t104 64t70.5 100.5t26 134.5q0 18 -5 40q-6 63 -31.5 113.5
t-65.5 87.5t-93 58.5t-116 25.5h-207q-38 0 -38 37v42q0 36 38 36h24z" />
    <glyph glyph-name="afii10026" unicode="&#x418;" horiz-adv-x="1540" 
d="M210 0q-20 0 -33 13t-13 33v1395q0 20 14 32t32 12h24q22 0 33 -13t11 -31v-1252l1015 1283q9 13 28 13h40q18 0 32 -13t14 -33v-1393q0 -46 -44 -46h-24q-46 0 -46 46v1245l-1012 -1278q-10 -13 -31 -13h-40z" />
    <glyph glyph-name="afii10027" unicode="&#x419;" horiz-adv-x="1554" 
d="M210 0q-20 0 -33 13t-13 33v1395q0 20 14 32t32 12h24q22 0 33 -13t11 -31v-1252l1015 1283q9 13 28 13h40q18 0 32 -13t14 -33v-1393q0 -46 -44 -46h-24q-46 0 -46 46v1245l-1012 -1278q-10 -13 -31 -13h-40zM733 1943q0 -25 16 -40t37 -15q22 0 37.5 15.5t15.5 36.5v3
q0 18 11 31t33 13h24q18 0 32 -12t14 -32v-3q0 -35 -12.5 -65.5t-35 -53t-53 -35.5t-66.5 -13q-35 0 -65.5 13t-53 35.5t-35.5 53t-13 65.5v3q0 18 11 31t33 13h24q18 0 32 -12t14 -32z" />
    <glyph glyph-name="afii10028" unicode="&#x41a;" horiz-adv-x="1344" 
d="M164 1449q0 37 38 37h42q17 0 26.5 -10t9.5 -27v-688q53 0 105 21.5t97 69.5q29 30 58 66l58 74l57.5 77.5l57.5 77.5q8 10 14.5 19.5l13.5 19.5l81 109t88.5 94t104.5 66t129 25q20 0 26.5 -10t6.5 -20v-46q0 -11 -7.5 -20t-20.5 -9q-62 0 -116 -36t-104.5 -92.5
t-99.5 -125t-101 -133.5l-58.5 -75.5l-58.5 -74.5l682 -809q4 -4 4 -10q0 -7 -5 -13t-15 -6h-86q-19 0 -35.5 12t-30.5 29l-297 356.5l-298 356.5l-57 -39.5t-58 -32t-63 -22.5t-72 -10v-614q0 -36 -36 -36h-42q-38 0 -38 36v1413z" />
    <glyph glyph-name="afii10029" unicode="&#x41b;" horiz-adv-x="1445" 
d="M88 -4q-18 0 -31 11.5t-13 34.5v22q0 21 12 32.5t32 13.5q37 3 69 20.5t56 45.5t37.5 63t13.5 71v1131q0 18 11 31t33 13h961q19 0 33 -12t14 -32v-1397q0 -44 -47 -44h-24q-44 0 -44 44v1324h-823v-1058q0 -63 -22.5 -118t-61.5 -96.5t-92 -67.5t-114 -32z" />
    <glyph glyph-name="El.alt" horiz-adv-x="1388" 
d="M698 1300l-519 -1249q-17 -51 -61 -51h-36q-44 0 -28 46l581 1395q5 15 16.5 29.5t29.5 14.5h37q11 0 19 -6t14 -14.5t10 -17t6 -13.5l580 -1390q7 -20 -2.5 -32t-27.5 -12h-36q-21 0 -36 13t-23 31z" />
    <glyph glyph-name="afii10030" unicode="&#x41c;" horiz-adv-x="1762" 
d="M855 64q-28 0 -44 39l-519 1136l-95 -1193q0 -46 -46 -46h-24q-44 0 -44 46l106 1395q0 18 11 31t33 13h39q20 0 30 -12t16 -32l550 -1188l542 1188q6 20 16 32t30 12h39q19 0 33 -12t14 -32l107 -1395q0 -46 -46 -46h-24q-44 0 -44 46l-97 1193l-512 -1136
q-17 -39 -47 -39h-24z" />
    <glyph glyph-name="afii10032" unicode="&#x41e;" horiz-adv-x="1706" 
d="M89 741q0 105 27 202.5t76.5 182t119 154.5t154.5 119.5t182 77t203 27.5q104 0 201.5 -27.5t182 -77t154 -119t119 -154.5t77 -183t27.5 -203t-27.5 -202t-77 -181.5t-119 -153.5t-154 -118.5t-182 -76.5t-202.5 -27t-202.5 27t-182 76.5t-154 119t-119 154t-76.5 181.5
t-27 202zM206 742q0 -134 50.5 -251t138 -204.5t205 -138t251.5 -50.5q89 0 171 23t153.5 65t130.5 100.5t101 130t65 154t23 171.5q0 133 -51 250t-138.5 204.5t-204.5 138.5t-250 51q-89 0 -171.5 -23t-154.5 -65t-130.5 -101t-100.5 -130.5t-65 -154t-23 -170.5z" />
    <glyph glyph-name="afii10033" unicode="&#x41f;" horiz-adv-x="1385" 
d="M1168 1485q18 0 32 -12t14 -32v-1397q0 -44 -46 -44h-25q-44 0 -44 44v1324h-822v-1324q0 -44 -47 -44h-24q-44 0 -44 44v1397q0 18 11.5 31t32.5 13h962z" />
    <glyph glyph-name="afii10034" unicode="&#x420;" horiz-adv-x="1259" 
d="M1143 1023q0 -94 -35.5 -177.5t-97.5 -146.5t-146 -99.5t-180 -36.5h-405v-527q0 -36 -37 -36h-42q-36 0 -36 36v1412q0 30 27 35l6 3h484q97 0 181.5 -37t146.5 -100t98 -147t36 -179zM681 677q72 0 135 27.5t110 74.5t74 110t27 135q0 71 -27 134.5t-73.5 111
t-109.5 75t-136 27.5h-402v-695h402z" />
    <glyph glyph-name="afii10035" unicode="&#x421;" horiz-adv-x="1410" 
d="M1329 1342q18 -11 20.5 -25.5t-7.5 -26.5l-27 -34q-13 -17 -26.5 -18.5t-41.5 18.5q-86 63 -183 98.5t-202 35.5q-92 0 -176 -24t-156.5 -67.5t-131.5 -103.5t-101 -132t-65 -153t-23 -166q0 -86 24.5 -168.5t68 -155t103.5 -133t131 -104.5t151 -68.5t164 -24.5
q51 0 105.5 10t107.5 29t103.5 46.5t92.5 62.5q15 11 31.5 8.5t30.5 -24.5l15 -24q8 -14 6.5 -32t-19.5 -30q-38 -29 -80.5 -54t-88.5 -45q-141 -59 -299 -59q-104 0 -201.5 27t-182 77t-154.5 119.5t-119.5 155t-77 183.5t-27.5 204q0 104 27 201.5t77 182t119.5 154
t155 119t183.5 77t204 27.5q155 0 295 -60q48 -21 91 -46t83 -57z" />
    <glyph glyph-name="afii10036" unicode="&#x422;" horiz-adv-x="1246" 
d="M1141 1485q18 0 31 -11t13 -33v-24q0 -18 -12 -32t-32 -14h-458v-1327q0 -44 -46 -44h-24q-44 0 -44 44v1327h-462q-44 0 -44 46v24q0 44 44 44h1034z" />
    <glyph glyph-name="afii10037" unicode="&#x423;" horiz-adv-x="1006" 
d="M478 267.075l108.5 265.983l115 280.482l117.5 285.483l116 279.982q8 18.999 20 43.4971q12 24.499 12 41.498q0 20.998 -21 24.998t-47 4q-23 0 -35.5 -3t-21.5 -21.998l-331 -827.95l-170.5 418.475l-167.5 414.475q-6 14.999 -17.5 17.999t-31.5 3h-26t-23.5 -2.5
t-17.5 -7.5q-7 -4.99902 -7 -15.998q0 -4 1.5 -10t2.5 -7.99902q0 1 -1 1l198 -475.472l197 -475.471l-87 -210.987q-38 -91.9941 -87 -131.491q-49 -39.498 -120 -39.498q-11 0 -21 -2t-10 -18.999v-70.9951q0 -11 8 -19.999t25 -8.99902q74 0 126 22.998
q52 22.999 88.5 60.4961q36.5 37.498 61.5 86.4951t46 99.9941z" />
    <glyph glyph-name="afii10038" unicode="&#x424;" horiz-adv-x="1623" 
d="M94 741q0 124 49.5 234.5t136 196t203 139.5t251.5 65v79q0 31 32 31h52q15 0 24 -8t9 -23v-79q90 -7 172.5 -33.5t154 -69.5t130 -100.5t100 -126t64.5 -146t23 -160.5q0 -125 -50 -235.5t-137 -195.5t-204.5 -139t-252.5 -64v-75q0 -31 -33 -31h-52q-32 0 -32 31v76
q-135 10 -251.5 63.5t-203 138.5t-136 196t-49.5 236zM1379 741q0 104 -40.5 194.5t-111.5 159t-167.5 111.5t-208.5 52v-1034q112 10 208.5 53t167.5 111.5t111.5 158.5t40.5 194zM210 741q0 -104 40 -194t110.5 -158.5t166 -111.5t207.5 -53v1033q-111 -9 -207 -52
t-166.5 -111t-110.5 -158.5t-40 -194.5z" />
    <glyph glyph-name="afii10039" unicode="&#x425;" horiz-adv-x="1240" 
d="M618 838l407 602q19 28 34 36t40 8h38q32 0 34 -10.5t-19 -42.5l-469 -689l475 -701q28 -42 -12 -42h-52q-36 0 -56 31l-420 617l-420 -617q-20 -31 -56 -31h-52q-40 0 -12 42l475 701l-469 689q-21 32 -19 42.5t34 10.5h38q25 0 40 -8t34 -36z" />
    <glyph glyph-name="afii10040" unicode="&#x426;" horiz-adv-x="1467" 
d="M1097 115v1335q0 17 10 26.5t26 9.5h43q17 0 26.5 -9.5t9.5 -25.5v-1338h108q2 0 3 0.5t3 0.5q37 0 37 -37v-431q0 -37 -37 -37h-42q-36 0 -36 37v354h-1051q-15 0 -25.5 9.5t-10.5 27.5v1414q0 16 10 25.5t26 9.5h44q16 0 25.5 -9.5t9.5 -26.5v-1335h821z" />
    <glyph glyph-name="afii10041" unicode="&#x427;" horiz-adv-x="1234" 
d="M275 803q5 -59 32 -112t69.5 -93.5t98 -64.5t118.5 -24q60 0 123 22t115 61t86 91.5t37 113.5v652q0 36 37 36h42q37 0 37 -36v-1412q0 -17 -9.5 -27.5t-27.5 -10.5h-41q-17 0 -27.5 10.5t-10.5 27.5v523q-24 -36 -65.5 -66.5t-91 -52.5t-104 -34.5t-104.5 -12.5
q-90 0 -168.5 34t-136.5 92.5t-91.5 137t-33.5 167.5v624q0 18 10.5 27t27.5 9h41q18 0 27.5 -8t9.5 -28v-646z" />
    <glyph glyph-name="afii10042" unicode="&#x428;" horiz-adv-x="1881" 
d="M869 1451q0 16 9.5 25.5t25.5 9.5h44q16 0 26 -9.5t10 -26.5v-1335h591v1335q0 17 10 26.5t26 9.5h43q17 0 26.5 -9.5t9.5 -25.5v-707.5t1 -707.5q0 -36 -36 -36h-1458q-14 0 -24.5 9.5t-10.5 27.5v1414q0 16 9.5 25.5t25.5 9.5h44q16 0 26 -9.5t10 -26.5v-1335h592v1336
z" />
    <glyph glyph-name="afii10043" unicode="&#x429;" horiz-adv-x="1960" 
d="M868 1451q0 16 9.5 25.5t25.5 9.5h44q16 0 26 -9.5t10 -26.5v-1335h591v1335q0 17 10 26.5t26 9.5h43q17 0 26.5 -9.5t9.5 -25.5v-1338h82q8 0 16 0.5t16 0.5q37 0 37 -37v-431q0 -37 -37 -37h-42q-36 0 -36 37v354h-1529q-14 0 -24.5 9.5t-10.5 27.5v1414q0 16 9.5 25.5
t25.5 9.5h44q16 0 26 -9.5t10 -26.5v-1335h592v1336z" />
    <glyph glyph-name="afii10044" unicode="&#x42a;" horiz-adv-x="1292" 
d="M1169 459q0 -94 -35.5 -177.5t-97.5 -146.5t-145.5 -99.5t-180.5 -36.5h-508l-6 3q-21 3 -21 26v1343h-173q-33 0 -33 32v50q0 32 32 32h258q29 0 31 -28v-540h422q96 0 179.5 -36.5t145 -99t97 -146t35.5 -176.5zM290 803v-691h420q43 0 79 15q57 12 106 42.5t84 75
t55 99t20 114.5q0 71 -27 133.5t-73.5 109.5t-109.5 74.5t-134 27.5h-420z" />
    <glyph glyph-name="afii10045" unicode="&#x42b;" horiz-adv-x="1628" 
d="M1136 462q0 -95 -36 -179.5t-98 -147.5t-146.5 -99.5t-181.5 -36.5h-484l-6 3q-27 3 -27 35v1411q0 37 36 37h42q37 0 37 -37v-526h405q96 0 180 -36.5t146 -99.5t97.5 -146.5t35.5 -177.5zM272 808v-695h402q73 0 136 27.5t109.5 75t73.5 110.5t27 135t-27 135t-74 110
t-110 74.5t-135 27.5h-402zM1343 1450q0 36 37 36h42q17 0 26.5 -9.5t9.5 -26.5v-1414q0 -36 -36 -36h-42q-37 0 -37 36v1414z" />
    <glyph glyph-name="afii10046" unicode="&#x42c;" horiz-adv-x="1259" 
d="M1141 462q0 -95 -36 -179.5t-98.5 -147.5t-146.5 -99.5t-181 -36.5h-485l-5 3q-28 3 -28 35v1411q0 37 37 37h42q36 0 36 -37v-526h405q96 0 180 -36.5t146.5 -99.5t98 -146.5t35.5 -177.5zM276 808v-695h403q73 0 136 27.5t109.5 75t73.5 110.5t27 135t-27 135t-74 110
t-110 74.5t-135 27.5h-403z" />
    <glyph glyph-name="afii10047" unicode="&#x42d;" horiz-adv-x="1434" 
d="M109 141q-21 13 -21 31q0 11 8 21l27 34q7 8 13 13t14 5q8 -1 17.5 -4.5t23.5 -13.5q86 -63 182.5 -98.5t202.5 -35.5q130 0 243.5 47.5t200.5 128t141 187.5t65 226h-715q-15 0 -23 9t-8 23v52q0 17 8.5 24t22.5 7h715q-8 80 -36.5 155.5t-73.5 141.5t-103.5 121
t-127 94.5t-144 61.5t-154.5 22q-51 0 -105.5 -10t-107.5 -29t-103.5 -46.5t-92.5 -62.5q-12 -9 -25 -9q-22 0 -37 25l-15 24q-7 10 -7 25q-1 20 20 37q97 75 215.5 116.5t252.5 41.5q104 0 200.5 -27t181 -76.5t154.5 -119t120 -154t77.5 -182t28.5 -203.5l5 -2l-5 -3
q0 -104 -27.5 -201t-77 -181.5t-119.5 -154t-155 -119t-183 -77t-204 -27.5q-130 0 -250.5 42.5t-218.5 120.5z" />
    <glyph glyph-name="afii10048" unicode="&#x42e;" horiz-adv-x="2110" 
d="M162 1450q0 36 37 36h41q18 0 27.5 -9.5t9.5 -26.5v-639h221q9 97 41 186t83 166t119 140t149.5 107.5t173.5 69t192 24.5q104 0 201.5 -27.5t182 -77t154 -119t119 -154.5t77 -183t27.5 -203t-27.5 -202t-77 -181.5t-119 -153.5t-154 -118.5t-182 -76.5t-202.5 -27
q-102 0 -196 25.5t-176.5 71.5t-151 111t-119 144.5t-80.5 171t-36 191.5h-219v-660q0 -36 -37 -36h-41q-37 0 -37 36v1414zM611 742q0 -134 50.5 -251t138 -204.5t205 -138t251.5 -50.5q88 0 170.5 23t154 65t130.5 100.5t101 130t65 154t23 171.5q0 133 -51 250
t-138.5 204.5t-204.5 138.5t-250 51q-89 0 -171.5 -23t-154.5 -65t-130.5 -101t-100.5 -130.5t-65 -154t-23 -170.5z" />
    <glyph glyph-name="afii10049" unicode="&#x42f;" horiz-adv-x="1323" 
d="M541.047 1486q-96.9941 -1 -181.488 -38q-84.4951 -37 -146.991 -100.5q-62.4971 -63.5 -98.4941 -148q-35.998 -84.5 -35.998 -180.5q0 -71 19.999 -136q19.998 -65 56.4961 -120t86.9951 -98.5t111.493 -70.5l-250.984 -550q-5 -12 -5 -18q0 -8 6 -17
q5.99902 -9 18.998 -9h69.9961q17.999 0 25.998 19l245.985 545q19.999 -5 40.4971 -7.5q20.499 -2.5 46.498 -2.5h486.97v-518q0 -36 35.998 -36h42.9971q35.998 0 35.998 36v1417q-6 18 -12.999 25.5q-7 7.5 -22.999 7.5h-575.965zM599.043 669q-41.9971 0 -82.4941 1
q-40.498 1 -79.4951 14q-4 2 -6 2q-51.9971 18 -95.9941 50t-75.4951 75.5t-48.9971 96.5t-17.499 111q0 72 26.998 136.5t74.4961 112.5q47.4971 48 111.493 76t137.991 28h493.97v-703h-438.974z" />
    <glyph glyph-name="afii10050" unicode="&#x490;" horiz-adv-x="1166" 
d="M275 1370v-1341q0 -30 -31 -30h-54q-30 0 -30 29v1425q0 32 30 32h799v294q0 31 31 31h53q30 0 30 -30v-378q0 -13 -8 -22.5t-25 -9.5h-795z" />
    <glyph glyph-name="afii10051" unicode="&#x402;" horiz-adv-x="1452" 
d="M996 1486q17 0 27.5 -9t12.5 -27v-41q0 -17 -10 -28t-30 -11h-414v-536q24 36 59 66.5t77.5 52.5t90.5 34.5t98 12.5q90 0 162 -34t123 -92.5t78 -137t27 -167.5v-534q0 -18 -10.5 -27t-27.5 -9h-41q-18 0 -27.5 8t-9.5 28v556q-5 58 -25.5 111.5t-56 94t-84.5 64.5
t-112 24q-60 0 -117 -22t-101.5 -61t-72 -91.5t-30.5 -113.5v-560q0 -37 -37 -37h-41q-37 0 -37 37v1333h-418q-36 0 -36 39v41q0 17 9.5 26.5t26.5 9.5h947z" />
    <glyph glyph-name="afii10053" unicode="&#x404;" horiz-adv-x="1371" 
d="M1318 141q-98 -78 -218.5 -120.5t-250.5 -42.5q-106 0 -204 27.5t-183 77t-155 119t-119.5 154t-77 181t-27.5 201.5l-5 3l5 2q1 106 28.5 203.5t77.5 182t120 154t154.5 119t181 76.5t200.5 27q134 0 252.5 -41.5t215.5 -116.5q20 -15 20 -35q0 -16 -7 -27l-15 -24
q-15 -25 -37 -25q-13 0 -25 9q-42 35 -92.5 62.5t-103.5 46.5t-107.5 29t-105.5 10q-79 0 -154.5 -22t-144 -61.5t-127 -94.5t-103.5 -121t-73.5 -141.5t-36.5 -155.5h715q14 0 22.5 -7t8.5 -24v-52q0 -14 -8 -23t-23 -9h-715q11 -119 65 -226t141 -187.5t200.5 -128
t243.5 -47.5q106 0 202.5 35.5t182.5 98.5q14 10 23.5 13.5t17.5 4.5q8 0 14 -5t13 -13l27 -34q8 -10 8 -21q0 -18 -21 -31z" />
    <glyph glyph-name="afii10052" unicode="&#x403;" horiz-adv-x="1142" 
d="M273 1371v-1327q0 -20 -14 -32t-32 -12h-24q-22 0 -33 13t-11 31v1397q0 44 44 44h864q20 0 32 -14t12 -32v-24q0 -22 -13 -33t-31 -11h-794zM667 1954q15 36 52 36h42q36 0 21 -36l-100 -234q-10 -23 -23 -30.5t-30 -7.5h-41q-37 0 -21 38z" />
    <glyph glyph-name="afii10054" unicode="&#x405;" horiz-adv-x="1283" 
d="M105 267q20 20 33 31t33 11q11 0 19 -7t13 -14q42 -47 92.5 -83.5t107 -61.5t115.5 -38t117 -13q81 0 160.5 18t142.5 57.5t102 101.5t39 150q0 51 -19.5 90.5t-53.5 69t-79 51t-95.5 37.5t-103.5 28.5l-103 23.5q-124 28 -216.5 63t-153.5 81t-91 105t-30 136
q0 92 36.5 166t103.5 126t162 80t212 28q131 0 247.5 -44.5t208.5 -135.5q13 -13 19.5 -20.5t6.5 -15.5t-10 -18.5t-30 -29.5l-15 -13t-12 -5q-13 0 -35 19q-35 30 -73.5 57t-84.5 48t-101.5 33.5t-123.5 12.5q-98 0 -171 -22.5t-122 -61.5t-73.5 -91t-24.5 -110
q0 -44 16 -79t44.5 -62t67 -48t83 -37.5t93.5 -29.5t98 -24l120.5 -30t122.5 -37t113.5 -50t94 -69t64 -93t23.5 -123q0 -110 -44 -193t-120 -139t-178.5 -84.5t-218.5 -28.5q-76 0 -149 13.5t-139.5 43t-125.5 75t-108 108.5q-7 8 -11 15t-4 16q0 8 9 16z" />
    <glyph glyph-name="afii10055" unicode="&#x406;" horiz-adv-x="436" 
d="M161 1450q0 36 37 36h41q18 0 27.5 -9.5t9.5 -26.5v-1414q0 -36 -37 -36h-41q-37 0 -37 36v1414z" />
    <glyph glyph-name="afii10057" unicode="&#x408;" horiz-adv-x="795" 
d="M520 1450q0 17 8.5 26.5t27.5 9.5h42q37 0 37 -36v-1129q0 -74 -28 -136t-75.5 -107t-110 -70t-132.5 -25q-76 0 -144.5 25t-116.5 74q-13 15 -13 28q0 6 3 11t8 11l36 37q9 9 20 9q2 0 3 -0.5t3 -0.5l10 -5l24.5 -21t38.5 -25t54 -21t72 -9q51 0 93.5 19t73 50.5
t48 72.5t18.5 85v1127z" />
    <glyph glyph-name="afii10058" unicode="&#x409;" horiz-adv-x="2108" 
d="M2052 460q0 -95 -35.5 -178.5t-97.5 -146t-146 -99t-181 -36.5h-485q-14 0 -20.5 9t-6.5 21v1340h-703v-1067q-1 -63 -25.5 -119t-66 -98t-97 -66.5t-117.5 -24.5q-44 0 -44 34v34q0 20 12.5 27t27.5 7q43 0 79 17.5t62 47t40 67t14 77.5v1150q0 29 29 29h874
q10 0 20 -6.5t10 -21.5v-539h400q96 0 179.5 -36.5t145 -99.5t97 -146t35.5 -176zM1195 804v-691h397q73 0 136 27.5t109.5 75t73 110t26.5 133.5t-27 133.5t-74 109.5t-109.5 74.5t-134.5 27.5h-397z" />
    <glyph glyph-name="Lje.alt" horiz-adv-x="1210" 
d="M88 488q0 106 40 199t109 162t161.5 108.5t197.5 39.5q106 0 198.5 -39.5t161.5 -108.5t108.5 -162t39.5 -199t-39.5 -198.5t-108.5 -161.5t-161.5 -108.5t-198.5 -39.5q-105 0 -197.5 39.5t-161.5 108.5t-109 161.5t-40 198.5z" />
    <glyph glyph-name="afii10059" unicode="&#x40a;" horiz-adv-x="2147" 
d="M162 1455q0 31 30 31h53q14 0 23 -8.5t9 -22.5v-538h756v537q0 31 30 31h52q14 0 23 -8t9 -23v-537h398q96 0 179.5 -36.5t145 -99t97 -146t35.5 -176.5q0 -95 -35.5 -178.5t-97.5 -146t-145.5 -99t-180.5 -36.5h-484l-6 3q-20 3 -20 27v774h-756v-772q0 -31 -33 -31h-52
q-30 0 -30 31v1424zM1147 803v-691h396q72 0 134.5 27.5t109 75t73 110t26.5 133.5t-27 133.5t-73.5 109.5t-109 74.5t-133.5 27.5h-396z" />
    <glyph glyph-name="afii10060" unicode="&#x40b;" horiz-adv-x="1472" 
d="M1167 586q-1 62 -27 116t-69 93.5t-99 62.5t-117 23q-60 0 -115.5 -22t-98.5 -61t-69 -91.5t-26 -113.5v-563q0 -31 -32 -31h-51q-14 0 -23 8.5t-9 22.5v1341h-371q-32 0 -32 33v51q0 31 32 31h860q28 0 30 -27v-59q0 -15 -5.5 -22t-25.5 -7h-373v-549q26 37 60 68.5
t74 55t85.5 37t95.5 13.5q83 0 155 -29t126.5 -79.5t89.5 -119t44 -147.5q3 -29 5 -58.5t2 -59.5v-469q0 -35 -34 -35h-47q-35 0 -35 34v553z" />
    <glyph glyph-name="afii10061" unicode="&#x40c;" horiz-adv-x="1469" 
d="M164 1449q0 37 38 37h42q17 0 26.5 -10t9.5 -27v-688q53 0 105 21.5t97 69.5q29 30 58 66l58 74l57.5 77.5l57.5 77.5q8 10 14.5 19.5l13.5 19.5l81 109t88.5 94t104.5 66t129 25q20 0 26.5 -10t6.5 -20v-46q0 -11 -7.5 -20t-20.5 -9q-62 0 -116 -36t-104.5 -92.5
t-99.5 -125t-101 -133.5l-58.5 -75.5l-58.5 -74.5l682 -809q4 -4 4 -10q0 -7 -5 -13t-15 -6h-86q-19 0 -35.5 12t-30.5 29l-297 356.5l-298 356.5l-57 -39.5t-58 -32t-63 -22.5t-72 -10v-614q0 -36 -36 -36h-42q-38 0 -38 36v1413zM757 1956q15 36 52 36h42q36 0 21 -36
l-100 -234q-10 -23 -23 -30.5t-30 -7.5h-41q-37 0 -21 38z" />
    <glyph glyph-name="afii10062" unicode="&#x40e;" horiz-adv-x="1048" 
d="M514 1666q-47 1 -86.5 18t-68.5 44.5t-45.5 63.5t-16.5 75q0 14 8 26.5t25 12.5h34q18 0 25.5 -11.5t7.5 -26.5q0 -18 7.5 -36.5t22.5 -33.5t36.5 -24.5t48.5 -10.5q28 0 50.5 9.5t38 24.5t23.5 34t8 37q0 15 7.5 26.5t25.5 11.5h34q17 0 25 -12.5t8 -26.5
q0 -39 -16.5 -75t-45.5 -63.5t-69 -44.5t-86 -18l-1 1v-1v0zM478 267.075l108.5 265.983l115 280.482l117.5 285.483l116 279.982q8 18.999 20 43.4971q12 24.499 12 41.498q0 20.998 -21 24.998t-47 4q-23 0 -35.5 -3t-21.5 -21.998l-331 -827.95l-170.5 418.475
l-167.5 414.475q-6 14.999 -17.5 17.999t-31.5 3h-26t-23.5 -2.5t-17.5 -7.5q-7 -4.99902 -7 -15.998q0 -4 1.5 -10t2.5 -7.99902q0 1 -1 1l198 -475.472l197 -475.471l-87 -210.987q-38 -91.9941 -87 -131.491q-49 -39.498 -120 -39.498q-11 0 -21 -2t-10 -18.999v-70.9951
q0 -11 8 -19.999t25 -8.99902q74 0 126 22.998q52 22.999 88.5 60.4961q36.5 37.498 61.5 86.4951t46 99.9941z" />
    <glyph glyph-name="afii10066" unicode="&#x431;" horiz-adv-x="1203" 
d="M610 -7q-87 0 -162.5 27.5t-135.5 76.5t-102.5 116t-64.5 147q-17 64 -21.5 139.5t-4.5 153.5q0 62 0.5 120t2.5 117q5 124 38.5 235.5t95 196t150.5 134t205 49.5q60 0 111.5 -9t96 -23.5t82.5 -32.5t72 -37q23 -12 23 -24l-24 -39l-19 -26t-13 -12q-9 0 -16 5
q-29 16 -61.5 32t-71 28.5t-83.5 20t-98 7.5q-81 0 -145.5 -37t-111.5 -100.5t-74.5 -147.5t-33.5 -177q-2 -35 -4.5 -69.5t-3.5 -69.5q32 51 74 90.5t90.5 66.5t101 41.5t106.5 14.5q66 0 128 -18.5t115.5 -52t97.5 -80.5t75.5 -103t49 -120t17.5 -132q0 -102 -37.5 -194.5
t-103 -162t-153.5 -110.5t-188 -41zM609 898q-77 0 -145 -32t-118.5 -86.5t-80 -126.5t-29.5 -152t29.5 -152t80 -126.5t118.5 -86.5t145 -32q76 0 144 32t118.5 86.5t80 126.5t29.5 152t-29.5 152t-80 126.5t-118.5 86.5t-144 32z" />
    <glyph glyph-name="afii10065" unicode="&#x430;" horiz-adv-x="1188" 
d="M1044 36q0 -17 -11 -26.5t-30 -9.5h-32q-40 0 -40 40v174q-21 -51 -56.5 -94t-82 -74.5t-103.5 -49t-122 -17.5q-102 0 -190 40t-152.5 109t-101.5 162t-37 199t36.5 199.5t101 163.5t152.5 110t191 40q66 0 122.5 -17.5t103 -48.5t81 -73.5t57.5 -92.5l4 171
q1 20 10 30.5t29 10.5h29q18 0 29.5 -10.5t11.5 -30.5v-905zM930 488q0 82 -26.5 155t-74.5 128t-115 87t-147 32q-81 0 -148.5 -32t-116 -86.5t-76 -127.5t-27.5 -155t27.5 -154.5t76.5 -126.5t116.5 -85.5t147.5 -31.5q79 0 146 31t115 84.5t75 126t27 155.5z" />
    <glyph glyph-name="afii10067" unicode="&#x432;" horiz-adv-x="1041" 
d="M904 717q0 -57 -26.5 -110t-69.5 -91q65 -38 105.5 -101.5t40.5 -138.5q0 -50 -17.5 -96t-49 -82t-75.5 -60t-97 -31q-25 -4 -51 -5.5t-53 -1.5h-422q-28 0 -28 27v925q0 29 28 29h444q56 0 105.5 -21.5t86 -57.5t58 -84t21.5 -101zM277 453v-348h387q39 0 70.5 14.5
t54.5 38.5t35.5 55.5t12.5 65.5q0 33 -12.5 64.5t-34.5 56t-51.5 39t-63.5 14.5h-398zM787 718q0 33 -11.5 62.5t-33 51t-51.5 34t-66 12.5h-348v-325h356q33 0 61 13.5t49 36.5t32.5 53t11.5 62z" />
    <glyph glyph-name="afii10068" unicode="&#x433;" horiz-adv-x="922" 
d="M267 864v-834q0 -31 -31 -31h-51q-33 0 -33 31v919q0 15 9 23.5t23 8.5h659q15 0 24 -8.5t9 -23.5v-52q0 -16 -9.5 -24.5t-23.5 -8.5h-576z" />
    <glyph glyph-name="afii10069" unicode="&#x434;" horiz-adv-x="1263" 
d="M107 -213q-14 0 -22.5 7.5t-8.5 21.5v267q0 14 8.5 22.5t22.5 8.5h65q39 58 77 121t68 145.5t48.5 191.5t18.5 258v122q0 14 8 22.5t22 8.5h571q12 0 22 -8t10 -22v-839h95q11 0 21 -8t10 -22v-263q0 -12 -7.5 -19.5t-17.5 -7.5h-66q-24 0 -24 25v181h-837v-184
q0 -29 -31 -29h-53zM902 869h-400q-1 -5 -1 -9.5v-10.5v-45q0 -138 -17.5 -244.5t-45.5 -188.5t-63 -144.5t-70 -112.5h597v755z" />
    <glyph glyph-name="de.alt" horiz-adv-x="1221" 
d="M107 -213q-14 0 -22.5 7.5t-8.5 21.5v267q0 14 8.5 22.5t22.5 8.5h65q39 58 77 121t68 145.5t48.5 191.5t18.5 258v122q0 14 8 22.5t22 8.5h571q12 0 22 -8t10 -22v-839h95q11 0 21 -8t10 -22v-263q0 -12 -7.5 -19.5t-17.5 -7.5h-66q-24 0 -24 25v181h-837v-184
q0 -29 -31 -29h-53zM902 869h-400q-1 -5 -1 -9.5v-10.5v-45q0 -138 -17.5 -244.5t-45.5 -188.5t-63 -144.5t-70 -112.5h597v755z" />
    <glyph glyph-name="afii10071" unicode="&#x451;" horiz-adv-x="1096" 
d="M575 -22q-100 2 -187.5 43t-152.5 110t-102.5 160.5t-37.5 196.5q0 106 37 199.5t101.5 163t150 109.5t183.5 40q93 0 176.5 -39t146.5 -105.5t99.5 -156.5t36.5 -192q0 -37 -22.5 -48.5t-56.5 -11.5h-736q4 -75 34.5 -139.5t79.5 -112.5t113 -76t136 -30h3
q85 0 159.5 33.5t129.5 89.5q13 14 28.5 13.5t26.5 -15.5l16 -21q14 -19 14.5 -35.5t-24.5 -33.5q-69 -66 -158.5 -104t-192.5 -38h-1zM564 887q-65 0 -123.5 -26t-104.5 -71.5t-77.5 -107t-43.5 -132.5h697q-9 70 -40.5 131.5t-78 107.5t-106 72t-123.5 26zM304 1249
q0 36 25.5 61.5t61.5 25.5q38 0 63 -25.5t25 -61.5t-25 -61.5t-63 -25.5q-36 0 -61.5 25.5t-25.5 61.5zM668 1250q0 36 25.5 61.5t61.5 25.5q37 0 62 -25.5t25 -61.5t-25 -61.5t-62 -25.5q-36 0 -61.5 25.5t-25.5 61.5z" />
    <glyph glyph-name="afii10073" unicode="&#x437;" horiz-adv-x="896" 
d="M138 851q-5 9 -5 18q0 17 11.5 29t25.5 21q34 22 71.5 36t74.5 22t72 11.5t64 3.5q69 0 127.5 -17.5t101 -51.5t66.5 -84.5t24 -115.5q0 -60 -27.5 -114t-72.5 -87q63 -41 101.5 -102.5t38.5 -138.5q0 -65 -30 -118t-80 -90.5t-115 -58t-134 -20.5q-51 0 -94 4
t-80.5 14.5t-70.5 27.5t-64 43q-11 9 -21 21.5t-10 27.5q0 11 8 22l39 37q3 3 7 6t9 3q11 0 19 -9q45 -51 104.5 -69t135.5 -18h42q44 0 83 14t68.5 38t46.5 56.5t17 69.5q0 35 -13.5 67t-37.5 56t-55.5 38.5t-67.5 14.5h-158q-8 0 -14 6t-6 14v54q0 16 6.5 26t39.5 10h111
q33 0 61 12.5t49 33.5t33 49t12 59q0 74 -43.5 117t-131.5 43h-22q-22 0 -54 -3.5t-66.5 -12.5t-68.5 -24t-59 -37q-6 -6 -16 -6q-11 0 -18 11z" />
    <glyph glyph-name="afii10074" unicode="&#x438;" horiz-adv-x="1131" 
d="M280 206l599 763q11 15 28 15h69q14 0 21 -9.5t7 -23.5v-919q0 -32 -32 -32h-51q-33 0 -33 32v766l-605 -784q-13 -15 -30 -15h-58q-32 0 -33 28v923q0 16 9.5 24t24.5 8h52q29 0 32 -29v-747z" />
    <glyph glyph-name="afii10076" unicode="&#x43a;" horiz-adv-x="1012" 
d="M632 654q-26 -46 -52.5 -88t-55.5 -76l389 -458q5 -6 5 -15q0 -7 -5 -12t-18 -5h-82q-7 0 -16 6t-19 14.5t-19 18t-15 17.5l-306 362q-36 -22 -79.5 -40t-79.5 -18v-324q0 -36 -36 -36h-41q-39 0 -39 36v907q0 17 10.5 27t27.5 10h41q18 0 27.5 -10.5t9.5 -26.5v-472
q44 4 88 30.5t75 64.5l66 98l74.5 113.5t77.5 100.5t94.5 71.5t124.5 27.5h1q17 0 27.5 -9t10.5 -27v-42q0 -17 -10.5 -27.5t-27.5 -9.5l-19 1q-35 0 -62.5 -13t-50.5 -35t-43.5 -50.5l-40.5 -58.5l-18 -27l-14 -25v0z" />
    <glyph glyph-name="afii10077" unicode="&#x43b;" horiz-adv-x="1221" 
d="M266 949q0 32 30 32h722q14 0 23 -7t9 -24v-921q0 -30 -32 -30h-53q-30 0 -30 30v837h-553v-584q0 -63 -19 -115.5t-55 -91t-89 -59.5t-122 -21q-44 0 -44 35v33q0 20 13 27.5t27 7.5q42 0 74.5 14t54.5 38.5t33 59t11 75.5v664z" />
    <glyph glyph-name="el.alt" horiz-adv-x="956" 
d="M803 15.0586q7 -14.999 27 -14.999h64q17 0 24.5 8.5q7.5 8.49902 -3.5 36.498l-380 908.944q-6 14.999 -15 21.998q-9 7 -26 7h-30q-17 0 -26 -7q-9 -6.99902 -15 -21.998l-380 -908.944q-11 -27.999 -3.5 -36.498q7.5 -8.5 24.5 -8.5h64q20 0 27 14.999l324 781.953z
" />
    <glyph glyph-name="afii10078" unicode="&#x43c;" horiz-adv-x="1269" 
d="M1102 953l19 -227l17.5 -215l17.5 -224l20 -254v-2q0 -31 -30 -31h-53q-34 0 -34 33l-27 358l-26 358q-17 -29 -32 -57.5t-32 -57.5l-112 -256l-113 -256q-8 -18 -17 -35.5l-17 -34.5q-12 -14 -32.5 -14.5t-38.5 -0.5q-8 0 -16.5 8t-13.5 19l-125.5 284.5l-124.5 284.5
l-63 115l-51 -715q-3 -33 -34 -33h-53q-14 0 -22 10t-8 24l71 911q3 36 34 36q13 0 30.5 1t33.5 -0.5t28.5 -6.5t16.5 -16l320 -723l162.5 361.5l162.5 361.5q4 12 16.5 17t28.5 6.5t33 0.5t30 -1q16 0 24.5 -8t9.5 -21z" />
    <glyph glyph-name="afii10079" unicode="&#x43d;" horiz-adv-x="1143" 
d="M869 947q0 14 8.5 23t24.5 9h51q15 0 24.5 -8.5t9.5 -23.5v-915q0 -32 -34 -32h-51q-33 0 -33 32v432h-590v-432q0 -32 -34 -32h-52q-33 0 -33 32v915q0 14 9 23t24 9h53q15 0 24 -9t9 -23v-365h590v365z" />
    <glyph glyph-name="afii10081" unicode="&#x43f;" horiz-adv-x="1138" 
d="M865 866h-590v-837q0 -30 -32 -30h-52q-31 0 -31 30v920q0 31 31 31h757q14 0 23.5 -8t9.5 -23v-917q0 -31 -32 -31h-52q-32 0 -32 31v834z" />
    <glyph glyph-name="afii10080" unicode="&#x43e;" horiz-adv-x="1130" 
d="M53 488q0 106 37.5 199.5t103.5 163t156.5 109.5t196.5 40q107 0 198 -40t157.5 -109.5t104 -163t37.5 -199.5t-37.5 -199t-104.5 -162.5t-158 -109.5t-197 -40q-105 0 -195.5 40t-157 109.5t-104 162.5t-37.5 199zM167 488q0 -82 28.5 -154.5t79.5 -127t121 -86
t153 -31.5q82 0 152 31.5t121 86t80 127t29 154.5t-29 155t-80 127.5t-121 86t-152 31.5q-83 0 -153 -31.5t-121 -86t-79.5 -127.5t-28.5 -155z" />
    <glyph glyph-name="afii10082" unicode="&#x440;" horiz-adv-x="1182" 
d="M147 945q0 41 42 41h30q44 0 44 -41v-125q13 22 38.5 54.5t69 62.5t106.5 51t151 21q98 0 183.5 -40t149.5 -109t100.5 -162.5t36.5 -199.5t-36.5 -199t-100.5 -162.5t-149.5 -109.5t-183.5 -40q-69 0 -126.5 18t-102.5 49.5t-79 73.5t-57 90v-567q0 -18 -11 -28.5
t-32 -10.5h-29q-21 0 -32.5 10.5t-11.5 28.5v1294zM256 499q0 -82 29 -155t79 -127.5t116 -86t140 -31.5t140 31.5t115.5 86t78 127.5t28.5 155t-28.5 155t-78 127.5t-115.5 86t-140 31.5t-140 -31.5t-116 -86t-79 -127.5t-29 -155z" />
    <glyph glyph-name="afii10083" unicode="&#x441;" horiz-adv-x="1016" 
d="M855 213q16 14 29 14q6 0 13 -3t13 -11l26 -34q8 -11 8 -19q1 -8 -6 -16.5t-21 -22.5q-70 -66 -155.5 -104.5t-188.5 -38.5q-107 0 -197 40t-156 110t-103 163t-37 200q0 106 37 199.5t103 163t156 109.5t197 40q97 0 180 -33.5t151 -93.5q11 -8 21 -19.5t10 -23.5
t-9 -22l-21 -27q-9 -11 -15.5 -16.5t-14.5 -5.5q-13 0 -28 15q-54 53 -122.5 83.5t-149.5 30.5q-83 0 -152.5 -31.5t-120 -86t-79 -127.5t-28.5 -155q0 -83 28.5 -155.5t79 -127.5t120 -86.5t152.5 -31.5q40 0 78.5 9.5t74.5 26.5t68 39t59 48z" />
    <glyph glyph-name="afii10084" unicode="&#x442;" horiz-adv-x="898" 
d="M811 982q28 0 28 -27v-60q0 -11 -7 -20t-21 -9h-309v-835q0 -32 -33 -32h-53q-31 0 -31 32v835h-310q-27 0 -27 29v60q0 27 27 27h736z" />
    <glyph glyph-name="afii10085" unicode="&#x443;" horiz-adv-x="979" 
d="M386 -363q-16 -29 -53 -29h-32q-22 0 -31.5 13t-1.5 36l156 372l-376 904q-10 26 -1 38t32 12h42q18 0 26 -9t16 -24l328 -785l320 790q15 28 53 28h32q22 0 31.5 -12.5t1.5 -35.5z" />
    <glyph glyph-name="afii10086" unicode="&#x444;" horiz-adv-x="1243" 
d="M599 100q-18 -21 -40 -41.5t-45.5 -36t-48.5 -25t-50 -9.5q-53 0 -102.5 20.5t-88.5 56.5t-65.5 85t-33.5 105q-6 45 -6 91v339q0 65 24.5 122.5t65.5 100t94.5 67.5t111.5 25q25 0 50.5 -9.5t49 -25.5t45 -36t39.5 -42v561q0 37 38 37h42q17 0 26.5 -10t9.5 -27v-561
q18 22 39.5 42t44.5 36t48 25.5t51 9.5q60 0 114 -25.5t94.5 -69t64.5 -102t24 -123.5v-335q0 -47 -6 -90q-8 -56 -34 -105t-65.5 -85t-88.5 -56.5t-103 -20.5q-26 0 -51 9t-48 24.5t-44.5 35.5t-39.5 41v-452q0 -36 -36 -36h-42q-38 0 -38 36v454zM895 105q36 0 69.5 14
t59 40t41 62t15.5 80v379q0 45 -14.5 82t-40 63.5t-59 41t-71.5 14.5q-28 0 -54.5 -9.5t-50 -26.5t-41 -39.5t-27.5 -49.5l-4 -21.5t-3 -21.5v-439q1 -11 3 -21.5l4 -21.5q9 -27 27 -50t41 -40t50 -26.5t55 -9.5zM418 105q33 0 64 13.5t55.5 36.5t41 53t20.5 63v445
q-4 33 -20.5 62.5t-41 52.5t-55.5 36.5t-64 13.5q-34 0 -66 -13t-57 -36.5t-41 -56t-19 -72.5v-387q0 -49 14.5 -88t39 -66.5t58 -42t71.5 -14.5z" />
    <glyph glyph-name="afii10087" unicode="&#x445;" horiz-adv-x="845" 
d="M165 42q-17 -23 -32.5 -32.5t-38.5 -9.5h-26q-50 0 -13 68l303 451l-270 405q-17 26 -11.5 41.5t37.5 15.5h18q28 0 41.5 -8.5t28.5 -33.5l220 -325l231 339q12 14 24.5 21t32.5 7h18q35 0 43.5 -11t-6.5 -37l-279 -414l317 -473q13 -25 10.5 -35.5t-28.5 -10.5h-37
q-35 0 -57 29l-269 398z" />
    <glyph glyph-name="afii10088" unicode="&#x446;" horiz-adv-x="1221" 
d="M867 115v829q0 15 8.5 24t23.5 9h51q32 0 32 -32v-831h109q31 0 31 -32v-287q0 -30 -31 -30h-54q-31 0 -31 31v204h-814q-16 0 -23.5 7t-7.5 25v913q0 32 33 32h49q16 0 24.5 -9t8.5 -24v-829h591z" />
    <glyph glyph-name="afii10089" unicode="&#x447;" horiz-adv-x="1164" 
d="M281 647q1 -62 24.5 -116t64 -93.5t94.5 -62t115 -22.5q60 0 114 23t94.5 63t65 93.5t27.5 113.5v306q0 36 37 36h42q37 0 37 -36v-916q0 -17 -9.5 -27.5t-27.5 -10.5h-41q-17 0 -27.5 10t-10.5 28v373q-24 -36 -56 -67t-70.5 -54t-83.5 -36.5t-95 -13.5q-90 0 -165.5 34
t-129.5 92.5t-84.5 137.5t-30.5 168v282q0 18 10.5 27t27.5 9h41q18 0 27.5 -8t9.5 -28v-305z" />
    <glyph glyph-name="afii10090" unicode="&#x448;" horiz-adv-x="1433" 
d="M1171 947q0 14 9 23t26 9h52q32 0 32 -32v-919q-2 -28 -32 -28h-1066q-14 0 -23 8t-9 24v920q0 31 32 31h53q32 0 32 -31v-837h389v837q0 31 33 31h53q31 0 31 -31v-837h388v832z" />
    <glyph glyph-name="afii10091" unicode="&#x449;" horiz-adv-x="1505" 
d="M1171 947q0 14 9 23t26 9h52q32 0 32 -32v-833h104q31 0 31 -32v-287q0 -30 -31 -30h-54q-31 0 -31 31v81l-3 123h-1114q-32 0 -32 32v920q0 31 32 31h53q32 0 32 -31v-837h389v837q0 31 33 31h53q31 0 31 -31v-837h388v832z" />
    <glyph glyph-name="afii10092" unicode="&#x44a;" horiz-adv-x="1080" 
d="M306 982q17 0 24.5 -8t7.5 -22v-149t-1 -149h311q67 0 124.5 -26.5t99.5 -71.5t66 -104t24 -124q0 -66 -24.5 -125.5t-67 -104.5t-101 -71.5t-126.5 -26.5h-381q-39 0 -39 36v831h-156q-17 0 -25 9t-8 23v51q0 32 32 32h240zM856 329q0 42 -17 81t-46 68.5t-67 47
t-81 17.5h-308v-435h308q44 0 82.5 18t67 48.5t45 70.5t16.5 84z" />
    <glyph glyph-name="afii10093" unicode="&#x44b;" horiz-adv-x="1276" 
d="M245 981q13 0 21.5 -8t8.5 -25v-294h277q67 0 124.5 -26.5t99.5 -71.5t66 -104t24 -124q0 -66 -24.5 -125.5t-67 -104.5t-101 -71.5t-126.5 -26.5h-348q-38 0 -38 36v910q0 22 9 28.5t23 6.5h52zM760 329q0 42 -17 81t-46 68.5t-67 47t-81 17.5h-274v-435h274
q44 0 82.5 18t67 48.5t45 70.5t16.5 84zM997 942q0 16 8.5 26t26.5 10h50q16 0 26.5 -9.5t10.5 -26.5v-907q0 -35 -37 -35h-50q-35 0 -35 35v907z" />
    <glyph glyph-name="afii10094" unicode="&#x44c;" horiz-adv-x="1021" 
d="M246 981q13 0 21.5 -8t8.5 -25v-294h311q67 0 124.5 -26.5t99.5 -71.5t66 -104t24 -124q0 -61 -20.5 -116t-57.5 -98.5t-87 -72t-110 -35.5q-44 -6 -87 -6h-339q-38 0 -38 36v910q0 22 9.5 28.5t22.5 6.5h52zM795 329q0 42 -17 81t-46 68.5t-67 47t-81 17.5h-308v-435
h308q44 0 82.5 18t67 48.5t45 70.5t16.5 84z" />
    <glyph glyph-name="afii10095" unicode="&#x44d;" horiz-adv-x="1001" 
d="M130 213q27 -26 59 -48t68 -39t74.5 -26.5t78.5 -9.5q75 0 139.5 26.5t114 73t81.5 109t41 135.5h-438q-32 0 -32 32v48q0 30 32 30h439q-9 73 -40.5 136.5t-81 110t-114.5 73.5t-141 27q-81 0 -149.5 -30.5t-122.5 -83.5q-15 -15 -28 -15q-8 0 -14.5 5.5t-15.5 16.5
l-21 27q-9 10 -9 22t10 23.5t21 19.5q68 60 151 93.5t180 33.5q106 0 196.5 -40t156.5 -109.5t103 -163t37 -199.5q0 -107 -37 -200t-103 -163t-156.5 -110t-196.5 -40q-103 0 -188.5 38.5t-155.5 104.5q-15 14 -21 22.5t-6 16.5t8 19l26 34q6 8 13 11t13 3q13 0 29 -14z
" />
    <glyph glyph-name="afii10096" unicode="&#x44e;" horiz-adv-x="1601" 
d="M160 947q0 14 9 22.5t23 8.5h53q16 0 24 -8.5t8 -22.5v-393h214q13 94 57 175t111 141t153.5 94t183.5 34q105 0 198 -40t162 -109t109 -162t40 -199t-40 -198.5t-109 -161.5t-162 -109t-198 -40q-99 0 -186.5 35.5t-155 97t-111 145.5t-53.5 181h-213v-407
q0 -31 -30 -31h-54q-33 0 -33 31v916zM604 488q0 -82 30.5 -154.5t84 -126.5t125 -85t153.5 -31t153 31t124 85t83.5 126.5t30.5 154.5t-30.5 154.5t-83.5 127t-124 86t-153 31.5t-153.5 -31.5t-125 -86t-84 -127t-30.5 -154.5z" />
    <glyph glyph-name="afii10098" unicode="&#x491;" horiz-adv-x="974" 
d="M267 868v-839q0 -30 -30 -30h-54q-31 0 -31 29v923q0 32 31 32h613v206q0 31 30 31h54q31 0 31 -29v-292q-2 -31 -33 -31h-611z" />
    <glyph glyph-name="afii10097" unicode="&#x44f;" horiz-adv-x="972" 
d="M752 0q-13 0 -22 8t-9 25v293h-223q-37 0 -71 6l-33.5 -70l-37 -77.5l-37 -78l-33.5 -69.5q-5 -11 -16 -24t-22 -13h-60q-14 0 -22.5 7.5t-8.5 18.5q0 8 4 16l150 315q-41 21 -74 52.5t-56.5 69.5t-36.5 82t-13 91q0 67 24.5 126.5t67.5 104.5t101.5 71.5t126.5 26.5h346
q39 0 39 -38v-907q0 -23 -9.5 -29.5t-23.5 -6.5h-51zM239 651q0 -42 17 -80.5t45.5 -67.5t67 -46.5t80.5 -17.5h272v432h-272q-44 0 -82 -18t-66.5 -48t-45 -70t-16.5 -84z" />
    <glyph glyph-name="afii10100" unicode="&#x453;" horiz-adv-x="897" 
d="M266 864v-834q0 -31 -31 -31h-51q-33 0 -33 31v919q0 15 9 23.5t23 8.5h659q15 0 24 -8.5t9 -23.5v-52q0 -16 -9.5 -24.5t-23.5 -8.5h-576zM526 1448q15 36 52 36h42q36 0 21 -36l-100 -234q-10 -23 -23 -30.5t-30 -7.5h-41q-37 0 -21 38z" />
    <glyph glyph-name="afii10099" unicode="&#x452;" horiz-adv-x="1140" 
d="M561 812q-69 0 -120.5 -27t-86 -73t-54 -106t-23.5 -126v-444q0 -36 -36 -36h-42q-38 0 -38 36v1059h-120q-26 0 -26 37v42q0 34 26 34h120v241q0 37 38 37h42q17 0 26.5 -10t9.5 -27v-241h217q26 0 26 -34v-42q0 -14 -6 -25.5t-20 -11.5h-217v-336q25 35 56 65t67 52.5
t77.5 35.5t88.5 13q88 0 160.5 -33t124 -90.5t80 -134.5t28.5 -164v-532q0 -60 -20.5 -118.5t-56.5 -106t-86 -79.5t-109 -39q-12 0 -18.5 5.5t-9.5 14.5t-3 20.5v24.5q0 17 4 31t20 16h4q36 13 65.5 36t50.5 53.5t33 66.5t12 75v469q0 72 -16.5 139t-51 118.5t-88.5 83
t-128 31.5z" />
    <glyph glyph-name="afii10101" unicode="&#x454;" horiz-adv-x="986" 
d="M816 213q16 14 29 14q6 0 13 -3t13 -11l26 -34q8 -11 8 -19t-6 -16.5t-21 -22.5q-70 -66 -155.5 -104.5t-188.5 -38.5q-107 0 -197 40t-156 110t-103 163t-37 200q0 106 37 199.5t103 163t156 109.5t197 40q97 0 180 -33.5t151 -93.5q11 -8 21 -19.5t10 -23.5t-9 -22
l-21 -27q-9 -11 -15.5 -16.5t-14.5 -5.5q-13 0 -28 15q-54 53 -122.5 83.5t-149.5 30.5q-76 0 -141 -27t-114.5 -73.5t-81 -110t-40.5 -136.5h439q32 0 32 -30v-48q0 -32 -32 -32h-438q9 -73 41 -135.5t81.5 -109t114 -73t139.5 -26.5q40 0 78.5 9.5t74.5 26.5t68 39t59 48z
" />
    <glyph glyph-name="afii10103" unicode="&#x456;" horiz-adv-x="435" 
d="M159 945q0 37 38 37h41q17 0 27 -10t10 -27v-909q0 -36 -37 -36h-41q-38 0 -38 36v909zM123 1265q0 19 7.5 36t20 30t29.5 20t36 7q39 0 66 -27t27 -66q0 -19 -7 -36t-20 -29.5t-30 -19.5t-36 -7t-36 7t-29.5 19.5t-20 29.5t-7.5 36z" />
    <glyph glyph-name="afii10102" unicode="&#x455;" horiz-adv-x="850" 
d="M612 778q-32 52 -85 84t-121 32q-42 0 -77.5 -12t-61 -33.5t-40 -51.5t-14.5 -66t18 -62.5t46 -45.5t61 -32t63 -21l29 -8q155 -36 236 -113t81 -186q0 -68 -28 -121t-76 -89t-110.5 -55t-131.5 -19q-57 0 -110 13t-97 38.5t-76.5 64t-48.5 88.5q-6 14 0 27.5t21 20.5
l38 17q17 7 29 1t18 -20l5 -10q16 -32 42 -56.5t57 -41t63 -25t59 -8.5q35 0 75.5 10t75 31t57.5 54t23 78q0 42 -22.5 74t-58 55.5t-79 39t-85.5 25.5q-56 13 -108 37t-92 58.5t-63.5 79t-23.5 100.5q0 61 22 111.5t62 86.5t96.5 55.5t125.5 19.5q103 0 182 -42t132 -135
q7 -14 5 -27t-17 -23l-35 -21q-29 -18 -46 2q-4 4 -7 9t-8 12z" />
    <glyph glyph-name="afii10105" unicode="&#x458;" horiz-adv-x="437" 
d="M159 942q0 40 41 40h34q20 0 30.5 -11t10.5 -29v-988q-1 -63 -24.5 -119.5t-64 -98.5t-95 -66.5t-117.5 -24.5q-22 0 -34.5 9.5t-12.5 29.5v33q0 20 12.5 29.5t29.5 9.5h3q42 1 76 17t59 43.5t38.5 63.5t13.5 77v985zM124 1265q0 19 7.5 36t20 30t29.5 20t36 7
q39 0 66 -27t27 -66q0 -19 -7 -36t-20 -29.5t-30 -19.5t-36 -7t-36 7t-29.5 19.5t-20 29.5t-7.5 36z" />
    <glyph glyph-name="afii10106" unicode="&#x459;" horiz-adv-x="1575" 
d="M239 949q0 32 30 32h628q31 0 31 -31v-296h268q67 0 124.5 -26.5t99.5 -71.5t66 -104t24 -124q0 -66 -24.5 -125.5t-67 -104.5t-101 -71.5t-126.5 -26.5h-291q-14 -1 -28 -1h-28q-31 0 -31 29v838h-457v-584q0 -63 -19 -115.5t-55 -91t-89 -59.5t-122 -21q-45 0 -45 35
v33q0 17 10 24.5t24 10.5t29.5 3.5t26.5 5.5q63 14 93 61.5t30 116.5v664zM1404 329q0 42 -17 81t-46 68.5t-67 47t-81 17.5h-265v-435h265q44 0 82.5 18t67 48.5t45 70.5t16.5 84z" />
    <glyph glyph-name="afii10107" unicode="&#x45a;" horiz-adv-x="1591" 
d="M163 943q0 17 10.5 27t27.5 10h41q18 0 27.5 -10.5t9.5 -26.5v-340h528v343q0 33 33 33h51q17 0 24 -9t7 -22v-294h290q67 0 124.5 -26.5t99.5 -71.5t66 -104t24 -124q0 -66 -24.5 -125.5t-67 -104.5t-101 -71.5t-126.5 -26.5h-369q-17 0 -24 6.5t-7 23.5v466h-528v-460
q0 -36 -36 -36h-41q-39 0 -39 36v907zM1420 329q0 42 -17 81t-46 68.5t-67 47t-81 17.5h-287v-435h287q44 0 82.5 18t67 48.5t45 70.5t16.5 84z" />
    <glyph glyph-name="lje.alt" horiz-adv-x="1223" 
d="M88 488q0 106 40 199t109 162t161.5 108.5t197.5 39.5q106 0 198.5 -39.5t161.5 -108.5t108.5 -162t39.5 -199t-39.5 -198.5t-108.5 -161.5t-161.5 -108.5t-198.5 -39.5q-105 0 -197.5 39.5t-161.5 108.5t-109 161.5t-40 198.5z" />
    <glyph glyph-name="afii10110" unicode="&#x45e;" horiz-adv-x="979" 
d="M386 -363q-16 -29 -53 -29h-32q-22 0 -31.5 13t-1.5 36l156 372l-376 904q-10 26 -1 38t32 12h42q18 0 26 -9t16 -24l328 -785l320 790q15 28 53 28h32q22 0 31.5 -12.5t1.5 -35.5zM491 1229q-47 1 -86.5 18t-68.5 44.5t-45.5 63.5t-16.5 75q0 14 8 26.5t25 12.5h34
q18 0 25.5 -11.5t7.5 -26.5q0 -18 7.5 -36.5t22.5 -33.5t36.5 -24.5t48.5 -10.5q28 0 50.5 9.5t38 24.5t23.5 34t8 37q0 15 7.5 26.5t25.5 11.5h34q17 0 25 -12.5t8 -26.5q0 -39 -16.5 -75t-45.5 -63.5t-69 -44.5t-86 -18l-1 1v-1v0z" />
    <glyph glyph-name="afii10108" unicode="&#x45b;" horiz-adv-x="1140" 
d="M177 1096h-131q-26 0 -26 37v42q0 34 26 34h131v240q0 37 38 37h42q17 0 26.5 -10t9.5 -27v-240h285q27 0 27 -34v-42q0 -14 -6.5 -25.5t-20.5 -11.5h-285v-262q24 36 56 66.5t70.5 52.5t83.5 34.5t95 12.5q90 0 165.5 -34t129.5 -92.5t84.5 -137t30.5 -167.5v-534
q0 -18 -10.5 -27t-27.5 -9h-41q-18 0 -27.5 8t-9.5 28v556q0 63 -24 116.5t-64.5 93t-94.5 62t-115 22.5q-60 0 -115 -22t-96 -61t-65.5 -91.5t-24.5 -113.5v-561q0 -36 -36 -36h-42q-38 0 -38 36v1060z" />
    <glyph glyph-name="afii10145" unicode="&#x40f;" horiz-adv-x="1241" 
d="M200 0h-5q-14 0 -23.5 8t-9.5 23v1424q0 31 33 31h51q30 0 30 -31v-1341h704v1341q0 31 33 31h51q30 0 30 -31v-1425q0 -14 -7.5 -22t-22.5 -8h-376v-263q0 -35 -36 -35h-50q-34 0 -34 35v263h-368z" />
    <glyph glyph-name="afii10147" unicode="&#x472;" horiz-adv-x="1706" 
d="M90 774q4 102 34 195.5t80.5 175t119.5 147.5t151.5 113.5t177 73t196.5 25.5q106 0 203.5 -27.5t182 -77.5t154 -120t119 -155t76.5 -182.5t27 -201.5q0 -106 -27.5 -203.5t-77.5 -182t-120 -153.5t-155 -118t-181.5 -75.5t-200.5 -26.5q-106 0 -204 27.5t-182.5 77
t-153.5 119t-118 154t-76 181t-27 200.5q0 9 0.5 17.5t1.5 16.5zM830 99q119 0 228.5 38t197 107t147 166.5t80.5 216.5l-1277 123q0 -25 3 -47.5t8 -45.5q13 -113 64.5 -212t131.5 -174t184 -120.5t222 -51.5h11zM866 1384q-119 0 -226.5 -37.5t-194 -105.5t-146 -163.5
t-80.5 -211.5l1274 -123q-6 84 -29 162.5t-61.5 148.5t-92 128.5t-119.5 102t-144.5 69.5t-166.5 30h-14z" />
    <glyph glyph-name="afii10146" unicode="&#x462;" horiz-adv-x="1321" 
d="M1159 460q0 -95 -35.5 -178.5t-97.5 -146t-146 -99t-181 -36.5h-442l-60 3q-21 3 -21 26v1341h-192q-23 0 -23 30v59q0 15 5.5 21t17.5 6h516q13 0 19 -6t6 -21v-59q0 -13 -6 -21.5t-19 -8.5h-209v-452h411q96 0 179.5 -36.5t145 -99t97 -146t35.5 -176.5zM291 804v-691
h408q42 0 80 16q57 11 105.5 41.5t84 75t55.5 99t20 114.5q0 71 -27 133.5t-74 109.5t-109.5 74.5t-134.5 27.5h-408z" />
    <glyph glyph-name="afii10148" unicode="&#x474;" horiz-adv-x="1437" 
d="M690 185l77.5 188.5l89 214.5l94.5 228.5l94.5 229.5l89.5 218l80 195q11 28 37 28h8h44q31 -4 31 -29q0 -2 -0.5 -9t-2.5 -9l-588 -1414q-5 -11 -12 -19t-27 -8h-29q-32 0 -40 29l-584 1399q-2 4 -5 13.5t-3 20.5q0 20 30 25h44q2 0 4.5 0.5t4.5 0.5q14 0 22 -7t13 -20
l79.5 -195l90 -218.5l95 -230l95 -228l89.5 -214.5z" />
    <glyph glyph-name="afii10193" unicode="&#x45f;" horiz-adv-x="1153" 
d="M199 0h-5q-14 0 -24 8t-10 23v3v24t1 24v866q0 31 33 31h51q31 0 31 -31v-834h601v834q0 31 33 31h51q31 0 31 -31v-918q0 -14 -7.5 -22t-23.5 -8h-324v-264q0 -35 -36 -35h-51q-35 0 -35 35v264h-316z" />
    <glyph glyph-name="afii10194" unicode="&#x463;" horiz-adv-x="1040" 
d="M570 1192q25 0 25 -27v-60q0 -12 -6 -21t-19 -9h-263v-421h277q67 0 124.5 -26.5t99.5 -71.5t66 -104t24 -124q0 -66 -24.5 -125.5t-67 -104.5t-101 -71.5t-126.5 -26.5h-348q-38 0 -38 36v1039h-152q-23 0 -23 30v60q0 27 23 27h152v236q0 11 0.5 21t3.5 19q1 12 8 16.5
t20 4.5q6 0 20 -1.5t27.5 -4.5t24 -9t10.5 -15v-267h263zM792 329q0 42 -17 81t-46 68.5t-67 47t-81 17.5h-274v-435h274q44 0 82.5 18t67 48.5t45 70.5t16.5 84z" />
    <glyph glyph-name="afii10196" unicode="&#x475;" horiz-adv-x="956" 
d="M803 968q7 15 27 15h64q17 0 24.5 -8.5t-3.5 -36.5l-380 -909q-6 -15 -15 -22t-26 -7h-30q-17 0 -26 7t-15 22l-380 909q-11 28 -3.5 36.5t24.5 8.5h64q20 0 27 -15l324 -782z" />
    <glyph glyph-name="afii10846" unicode="&#x4d9;" horiz-adv-x="1096" 
d="M546.035 999.999q99.9941 -2 187.488 -42.998q87.4951 -40.9971 152.491 -109.993t102.493 -160.49q37.498 -91.4941 37.498 -196.488q0 -105.993 -36.998 -199.487q-36.9971 -93.4941 -101.493 -162.99q-64.4961 -69.4951 -149.991 -109.493t-183.489 -39.998
q-92.9941 0 -176.489 38.998q-83.4941 38.998 -146.49 105.494q-62.9961 66.4951 -99.4941 156.49q-36.498 89.9941 -36.498 191.988q0 36.9971 22.499 48.4971q22.498 11.499 56.4961 11.499h735.955q-4 74.9951 -34.498 139.491t-79.4951 112.493t-112.993 75.9951
q-63.9961 27.999 -135.991 29.999h-3q-84.9951 0 -159.49 -33.498t-129.492 -89.4951q-12.999 -13.999 -28.498 -13.499t-26.498 15.499l-15.999 20.999q-14 18.999 -14.499 35.498q-0.5 16.499 24.498 33.498q68.9961 65.9951 158.49 103.993t192.488 37.998h1z
M557.034 91.0537q64.9961 0 123.493 25.999q58.4961 25.998 104.493 71.4951t77.4951 106.994q31.498 61.4961 43.4971 132.491h-696.957q8.99902 -69.9951 40.4971 -131.491q31.498 -61.4971 77.9961 -107.494q46.4971 -45.9971 105.993 -71.9951
q59.4961 -25.999 123.492 -25.999z" />
    <glyph glyph-name="Eng" unicode="&#x14a;" horiz-adv-x="1555" 
d="M1282 1459q3 27 30 27h52q14 0 23.5 -8t9.5 -23v-1641q0 -74 -28 -136t-75.5 -106.5t-110 -69.5t-132.5 -25q-77 0 -147 25t-114 79q-5 0 -8.5 9.5t-3.5 12.5q0 6 4 12t10 12l32 33q8 8 14.5 9.5t9.5 1.5q10 0 27 -15q12 -12 27.5 -23.5t36.5 -21.5t48 -16t62 -6
q51 0 93.5 19t73 50.5t47.5 73t19 85.5v193l-505.5 646.5l-504.5 647.5v-1273q0 -31 -32 -31h-51q-31 0 -31 31v1423q0 14 6.5 23t20.5 9h23t27.5 -1t24.5 -2.5t14 -4.5l63 -74l945 -1201v1256z" />
    <glyph glyph-name="eng" unicode="&#x14b;" horiz-adv-x="1142" 
d="M877 544q-1 23 -2.5 46t-4.5 46q-8 53 -34.5 98.5t-66 79t-89.5 52.5t-105 19q-60 0 -113 -22t-93 -60.5t-64.5 -91t-27.5 -113.5v-563q0 -17 -10.5 -26t-27.5 -9h-47q-34 0 -34 35v907q0 16 8 26t26 10h47q15 0 26.5 -9.5t11.5 -26.5v-130q26 38 59.5 72.5t73.5 60.5
t86 41t96 15q85 0 158 -32.5t126.5 -88.5t83.5 -131.5t30 -161.5v-715q0 -70 -27 -129t-72 -102.5t-104 -68t-124 -24.5h-3q-43 1 -43 46v24q0 44 45 44h1q46 0 84.5 18.5t67 48.5t44.5 68t18 78v669z" />
    <glyph glyph-name="afii10065.small" horiz-adv-x="1188" 
d="M1044 36q0 -17 -11 -26.5t-30 -9.5h-32q-40 0 -40 40v174q-21 -51 -56.5 -94t-82 -74.5t-103.5 -49t-122 -17.5q-102 0 -190 40t-152.5 109t-101.5 162t-37 199t36.5 199.5t101 163.5t152.5 110t191 40q66 0 122.5 -17.5t103 -48.5t81 -73.5t57.5 -92.5l4 171
q1 20 10 30.5t29 10.5h29q18 0 29.5 -10.5t11.5 -30.5v-905zM930 488q0 82 -26.5 155t-74.5 128t-115 87t-147 32q-81 0 -148.5 -32t-116 -86.5t-76 -127.5t-27.5 -155t27.5 -154.5t76.5 -126.5t116.5 -85.5t147.5 -31.5q79 0 146 31t115 84.5t75 126t27 155.5z" />
    <glyph glyph-name="afii10070.small" horiz-adv-x="1096" 
d="M575 -22q-100 2 -187.5 43t-152.5 110t-102.5 160.5t-37.5 196.5q0 106 37 199.5t101.5 163t150 109.5t183.5 40q93 0 176.5 -39t146.5 -105.5t99.5 -156.5t36.5 -192q0 -37 -22.5 -48.5t-56.5 -11.5h-736q4 -75 34.5 -139.5t79.5 -112.5t113 -76t136 -30h3
q85 0 159.5 33.5t129.5 89.5q13 14 28.5 13.5t26.5 -15.5l16 -21q14 -19 14.5 -35.5t-24.5 -33.5q-69 -66 -158.5 -104t-192.5 -38h-1zM564 887q-65 0 -123.5 -26t-104.5 -71.5t-77.5 -107t-43.5 -132.5h697q-9 70 -40.5 131.5t-78 107.5t-106 72t-123.5 26z" />
    <glyph glyph-name="afii10066.small" horiz-adv-x="1221" 
d="M92 512q0 112 42 209.5t114 170t169.5 114t208.5 41.5t208 -41.5t169.5 -114t114 -170t41.5 -209.5q0 -111 -41.5 -208.5t-114 -169.5t-169.5 -113.5t-208 -41.5t-208.5 41.5t-169.5 113.5t-114 169.5t-42 208.5z" />
    <glyph glyph-name="afii10071.small" horiz-adv-x="1184" 
d="M92 512q0 112 42 209.5t114 170t169.5 114t208.5 41.5t208 -41.5t169.5 -114t114 -170t41.5 -209.5q0 -111 -41.5 -208.5t-114 -169.5t-169.5 -113.5t-208 -41.5t-208.5 41.5t-169.5 113.5t-114 169.5t-42 208.5z" />
    <glyph glyph-name="afii10082.small" horiz-adv-x="1182" 
d="M147 945q0 41 42 41h30q44 0 44 -41v-125q13 22 38.5 54.5t69 62.5t106.5 51t151 21q98 0 183.5 -40t149.5 -109t100.5 -162.5t36.5 -199.5t-36.5 -199t-100.5 -162.5t-149.5 -109.5t-183.5 -40q-69 0 -126.5 18t-102.5 49.5t-79 73.5t-57 90v-567q0 -18 -11 -28.5
t-32 -10.5h-29q-21 0 -32.5 10.5t-11.5 28.5v1294zM256 499q0 -82 29 -155t79 -127.5t116 -86t140 -31.5t140 31.5t115.5 86t78 127.5t28.5 155t-28.5 155t-78 127.5t-115.5 86t-140 31.5t-140 -31.5t-116 -86t-79 -127.5t-29 -155z" />
    <glyph glyph-name="afii10085.small" horiz-adv-x="979" 
d="M386 -363q-16 -29 -53 -29h-32q-22 0 -31.5 13t-1.5 36l156 372l-376 904q-10 26 -1 38t32 12h42q18 0 26 -9t16 -24l328 -785l320 790q15 28 53 28h32q22 0 31.5 -12.5t1.5 -35.5z" />
    <glyph glyph-name="afii10086.small" horiz-adv-x="1210" 
d="M92 512q0 112 42 209.5t114 170t169.5 114t208.5 41.5t208 -41.5t169.5 -114t114 -170t41.5 -209.5q0 -111 -41.5 -208.5t-114 -169.5t-169.5 -113.5t-208 -41.5t-208.5 41.5t-169.5 113.5t-114 169.5t-42 208.5z" />
    <glyph glyph-name="afii10099.small" horiz-adv-x="1197" 
d="M92 512q0 112 42 209.5t114 170t169.5 114t208.5 41.5t208 -41.5t169.5 -114t114 -170t41.5 -209.5q0 -111 -41.5 -208.5t-114 -169.5t-169.5 -113.5t-208 -41.5t-208.5 41.5t-169.5 113.5t-114 169.5t-42 208.5z" />
    <glyph glyph-name="afii10103.small" horiz-adv-x="435" 
d="M159 945q0 37 38 37h41q17 0 27 -10t10 -27v-909q0 -36 -37 -36h-41q-38 0 -38 36v909zM123 1265q0 19 7.5 36t20 30t29.5 20t36 7q39 0 66 -27t27 -66q0 -19 -7 -36t-20 -29.5t-30 -19.5t-36 -7t-36 7t-29.5 19.5t-20 29.5t-7.5 36z" />
    <glyph glyph-name="afii10104.small" horiz-adv-x="1837" 
d="M833 655l-3 2q-32 1 -60 8.5t-54 20.5l-487 -629q-6 -8 -15 -18t-19.5 -18.5t-22 -14t-23.5 -5.5h-71q-25 0 -25 15q0 9 7 17l560 712q-23 24 -45 54.5t-43.5 65t-42 71.5l-41.5 72l-105 179l-18 27l-40.5 58.5t-44 50.5t-51 35t-61.5 13l-59 -1q-17 -1 -27.5 9t-10.5 28
v42q0 18 10.5 27t27.5 9h41q72 0 125.5 -26.5t96.5 -70.5t78 -100.5l69 -116.5l17 -30l43 -76.5l44 -76l44 -72t44 -63.5q32 -44 72.5 -64t89.5 -21v681q0 37 38 37h42q17 0 26.5 -10t9.5 -27v-681q45 2 84 22t71 63q22 29 44 63.5l44 72l44 76l43 76.5l17 30l69 116.5
t78 100.5t96.5 70.5t125.5 26.5h41q17 0 27.5 -9t10.5 -27v-42q0 -17 -9 -26.5t-25 -9.5h-63q-35 0 -62.5 -13t-50.5 -35t-43.5 -50.5l-40.5 -58.5l-18 -27l-105 -179l-41.5 -72t-42 -71.5t-43.5 -65t-45 -54.5l560 -712q5 -8 5 -15t-5 -12t-18 -5h-81q-10 0 -20 6t-19 14
t-16.5 17.5t-12.5 16.5l-489 631q-25 -13 -52.5 -20.5t-57.5 -8.5v-621q0 -36 -36 -36h-41q-39 0 -39 36v619z" />
    <glyph glyph-name="afii10105.small" horiz-adv-x="437" 
d="M159 942q0 40 41 40h34q20 0 30.5 -11t10.5 -29v-988q-1 -63 -24.5 -119.5t-64 -98.5t-95 -66.5t-117.5 -24.5q-22 0 -34.5 9.5t-12.5 29.5v33q0 20 12.5 29.5t29.5 9.5h3q42 1 76 17t59 43.5t38.5 63.5t13.5 77v985zM124 1265q0 19 7.5 36t20 30t29.5 20t36 7
q39 0 66 -27t27 -66q0 -19 -7 -36t-20 -29.5t-30 -19.5t-36 -7t-36 7t-29.5 19.5t-20 29.5t-7.5 36z" />
    <glyph glyph-name="afii10108.small" horiz-adv-x="1123" 
d="M874 591q-5 58 -25.5 111.5t-56 94t-84.5 64.5t-112 24q-60 0 -117 -22t-101.5 -61t-72 -91.5t-30.5 -113.5v-562q0 -36 -37 -36h-42q-37 0 -37 36v1412q0 17 9.5 27.5t27.5 10.5h41q17 0 27.5 -10.5t10.5 -27.5v-613q24 36 59 66.5t77.5 52.5t90.5 34.5t98 12.5
q90 0 162 -34t123 -92.5t78 -137t27 -167.5v-534q0 -18 -10.5 -27t-27.5 -9h-41q-18 0 -27.5 8t-9.5 28v556z" />
    <glyph glyph-name="afii10110.small" horiz-adv-x="905" 
d="M924 114q18 0 31 -11t13 -33v-24q0 -18 -12 -32t-32 -14h-911q-46 0 -46 46v24q0 44 46 44h911z" />
    <glyph glyph-name="Iotatonos" unicode="&#x38a;" horiz-adv-x="434" 
d="M161 1441q0 18 11 31t33 13h24q18 0 32 -12t14 -32v-1395q0 -46 -46 -46h-24q-44 0 -44 46v1395zM9 1148q-22 0 -35.5 16t-15.5 37l-11 240q-3 17 8 30.5t29 13.5h49q17 0 27 -14t8 -28l-13 -242q0 -20 -13 -35.5t-33 -17.5z" />
    <glyph glyph-name="partialdiff" unicode="&#x2202;" horiz-adv-x="1257" 
 />
    <glyph glyph-name="afii10031" unicode="&#x41d;" horiz-adv-x="1530" 
d="M1254 1450q0 16 9.5 26t26.5 10h41q17 0 27.5 -9.5t10.5 -26.5v-1414q0 -36 -38 -36h-41q-36 0 -36 36v667h-977v-667q0 -36 -38 -36h-41q-36 0 -36 36v1414q0 16 9 26t27 10h42q17 0 27 -10t10 -26v-634h977v634z" />
    <glyph glyph-name="afii10070" unicode="&#x435;" horiz-adv-x="1096" 
d="M575 -22q-100 2 -187.5 43t-152.5 110t-102.5 160.5t-37.5 196.5q0 106 37 199.5t101.5 163t150 109.5t183.5 40q93 0 176.5 -39t146.5 -105.5t99.5 -156.5t36.5 -192q0 -37 -22.5 -48.5t-56.5 -11.5h-736q4 -75 34.5 -139.5t79.5 -112.5t113 -76t136 -30h3
q85 0 159.5 33.5t129.5 89.5q13 14 28.5 13.5t26.5 -15.5l16 -21q14 -19 14.5 -35.5t-24.5 -33.5q-69 -66 -158.5 -104t-192.5 -38h-1zM564 887q-65 0 -123.5 -26t-104.5 -71.5t-77.5 -107t-43.5 -132.5h697q-9 70 -40.5 131.5t-78 107.5t-106 72t-123.5 26z" />
    <glyph glyph-name="aeacute" unicode="&#x1fd;" horiz-adv-x="1890" 
d="M1382 -20q-58 0 -112 14t-102 39.5t-89 61t-72 79.5v-138q0 -17 -11 -26.5t-29 -9.5h-32q-40 0 -40 40v174q-21 -51 -56.5 -94t-82 -74.5t-104 -49t-122.5 -17.5q-102 0 -190 40t-152.5 109t-101 162t-36.5 199t36.5 199.5t101 163.5t152.5 110t190 40q66 0 123 -17.5
t103 -48.5t81 -73.5t58 -92.5l3 171q0 41 40 41h29q18 0 29 -10.5t11 -30.5v-135q62 88 155.5 141t205.5 53q93 0 176.5 -39t146.5 -105.5t99.5 -156.5t36.5 -192q0 -26 -12.5 -39t-31.5 -17.5t-43 -4t-46 0.5h-681q7 -76 37.5 -141.5t79.5 -113.5t114 -75.5t141 -27.5h7
q83 2 155 37t126 89q13 14 27 13t28 -15l22 -33q8 -15 5 -30.5t-21 -26.5q-69 -66 -159 -104.5t-193 -38.5zM893 488q0 82 -26.5 155t-74.5 128t-114.5 87t-147.5 32t-148 -32t-116 -86.5t-76 -127.5t-27 -155t27.5 -154.5t76 -126.5t116 -85.5t147.5 -31.5q79 0 146 31
t115 84.5t75 126t27 155.5zM1364 887q-69 0 -125.5 -26.5t-100.5 -72t-75 -107t-47 -131.5h696q-9 70 -40 131.5t-78 107.5t-106 72t-124 26zM1017 1448q15 36 52 36h42q36 0 21 -36l-100 -234q-10 -23 -23 -30.5t-30 -7.5h-41q-37 0 -21 38z" />
    <glyph glyph-name="commaaccent" horiz-adv-x="518" 
d="M390 -344q0 -52 -10.5 -90t-24.5 -63.5t-30 -38t-26 -12.5q-9 0 -16 6l-18 15q-5 3 -9 8.5t-4 10.5q0 9 5.5 18.5l11.5 20l11.5 21t5.5 22.5v15q-17 0 -31.5 8.5t-25 22t-17 29.5t-6.5 31q0 19 7 35.5t19.5 29t29 19.5t35.5 7q45 0 69 -33t24 -82z" />
    <glyph glyph-name="undercommaaccent" horiz-adv-x="518" 
 />
    <glyph glyph-name="oslashacute" unicode="&#x1ff;" horiz-adv-x="1192" 
d="M628 1448q15 36 52 36h42q36 0 21 -36l-100 -234q-10 -23 -23 -30.5t-30 -7.5h-41q-37 0 -21 38zM182 491q0 -83 31.5 -155.5t86.5 -127.5t127.5 -86.5t155.5 -31.5q82 0 155 31.5t127.5 86.5t86 127.5t31.5 155.5q0 82 -31.5 155t-86 127.5t-127.5 86t-155 31.5
q-83 0 -155.5 -31.5t-127.5 -86t-86.5 -127.5t-31.5 -155zM70 491q0 106 40 199.5t109.5 163t162.5 109.5t199 40q75 0 144 -21l38 99q10 23 20.5 30t32.5 7h24q27 0 32 -9t-5 -36l-50 -128q61 -32 112 -79t87.5 -105.5t56.5 -127t20 -142.5q0 -107 -40 -200t-109.5 -163
t-163 -110t-199.5 -40q-35 0 -69 5t-67 14l-48 -125q-11 -27 -41 -27h-36q-17 0 -23 9t2 27l57 149q-63 31 -116 78.5t-90.5 107t-58.5 129.5t-21 146z" />
    <glyph glyph-name="afii10072" unicode="&#x436;" horiz-adv-x="1483" 
d="M672 360q-15 2 -32 7.5t-33.5 12.5t-31.5 14.5l-27 13.5l-295 -352q-6 -8 -15 -17.5t-19 -18t-19 -14.5t-16 -6h-82q-13 0 -18 5t-5 12q0 9 5 15l368 435q-34 35 -66.5 84t-62.5 103l-14 25l-18 27l-40.5 58.5t-43.5 50.5t-50.5 35t-62.5 13l-19 -1q-17 -1 -27.5 9.5
t-10.5 27.5v42q0 18 10.5 27t27.5 9h1q72 0 124 -27.5t94 -71.5t78 -100.5l75 -113.5l66 -98q30 -37 72.5 -63t86.5 -31v471q0 17 10.5 27t27.5 10h41q18 0 27.5 -10.5t9.5 -26.5v-472q44 4 88 30.5t75 64.5l66 98l74.5 113.5t77.5 100.5t94.5 71.5t124.5 27.5h1
q17 0 27.5 -9t10.5 -27v-42q0 -17 -10.5 -27.5t-27.5 -9.5l-19 1q-35 0 -62.5 -13t-50.5 -35t-43.5 -50.5l-40.5 -58.5l-18 -27l-14 -25q-30 -54 -62.5 -103t-66.5 -84l368 -435q5 -6 5 -15q0 -7 -5 -12t-18 -5h-82q-7 0 -16 6t-19 14.5t-19 18t-15 17.5l-295 352
l-27.5 -13.5t-33 -15t-35 -13t-32.5 -6.5v-324q0 -36 -36 -36h-41q-39 0 -39 36v324z" />
    <glyph glyph-name="afii10075" unicode="&#x439;" horiz-adv-x="1153" 
d="M278 206l599 763q11 15 28 15h69q14 0 21 -9.5t7 -23.5v-919q0 -32 -32 -32h-51q-33 0 -33 32v766l-605 -784q-13 -15 -30 -15h-58q-32 0 -33 28v923q0 16 9.5 24t24.5 8h52q29 0 32 -29v-747zM574 1229q-47 1 -86.5 18t-68.5 44.5t-45.5 63.5t-16.5 75q0 14 8 26.5
t25 12.5h34q18 0 25.5 -11.5t7.5 -26.5q0 -18 7.5 -36.5t22.5 -33.5t36.5 -24.5t48.5 -10.5q28 0 50.5 9.5t38 24.5t23.5 34t8 37q0 15 7.5 26.5t25.5 11.5h34q17 0 25 -12.5t8 -26.5q0 -39 -16.5 -75t-45.5 -63.5t-69 -44.5t-86 -18l-1 1v-1z" />
    <glyph glyph-name="iotadieresistonos" unicode="&#x390;" horiz-adv-x="434" 
d="M160 943q0 17 10.5 27t27.5 10h41q18 0 27.5 -10.5t9.5 -26.5v-907q0 -36 -36 -36h-41q-39 0 -39 36v907zM227 1188q-22 0 -35.5 16t-15.5 37l-11 240q-3 17 8 30.5t29 13.5h49q17 0 27 -14t8 -28l-13 -242q0 -20 -13 -35.5t-33 -17.5zM-70 1249q0 36 25.5 61.5
t61.5 25.5q38 0 63 -25.5t25 -61.5t-25 -61.5t-63 -25.5q-36 0 -61.5 25.5t-25.5 61.5zM334 1250q0 36 25.5 61.5t61.5 25.5q37 0 62 -25.5t25 -61.5t-25 -61.5t-62 -25.5q-36 0 -61.5 25.5t-25.5 61.5z" />
    <glyph glyph-name="afii10056" unicode="&#x407;" horiz-adv-x="436" 
d="M161 1450q0 36 37 36h41q18 0 27.5 -9.5t9.5 -26.5v-1414q0 -36 -37 -36h-41q-37 0 -37 36v1414zM-50 1751q0 36 25.5 61.5t61.5 25.5q38 0 63 -25.5t25 -61.5t-25 -61.5t-63 -25.5q-36 0 -61.5 25.5t-25.5 61.5zM314 1752q0 36 25.5 61.5t61.5 25.5q37 0 62 -25.5
t25 -61.5t-25 -61.5t-62 -25.5q-36 0 -61.5 25.5t-25.5 61.5z" />
    <glyph glyph-name="afii10104" unicode="&#x457;" horiz-adv-x="434" 
d="M160 943q0 17 10.5 27t27.5 10h41q18 0 27.5 -10.5t9.5 -26.5v-907q0 -36 -36 -36h-41q-39 0 -39 36v907zM-51 1249q0 36 25.5 61.5t61.5 25.5q38 0 63 -25.5t25 -61.5t-25 -61.5t-63 -25.5q-36 0 -61.5 25.5t-25.5 61.5zM313 1250q0 36 25.5 61.5t61.5 25.5
q37 0 62 -25.5t25 -61.5t-25 -61.5t-62 -25.5q-36 0 -61.5 25.5t-25.5 61.5z" />
    <glyph glyph-name="afii10109" unicode="&#x45c;" horiz-adv-x="1016" 
d="M632 654q-26 -46 -52.5 -88t-55.5 -76l389 -458q5 -6 5 -15q0 -7 -5 -12t-18 -5h-82q-7 0 -16 6t-19 14.5t-19 18t-15 17.5l-306 362q-36 -22 -79.5 -40t-79.5 -18v-324q0 -36 -36 -36h-41q-39 0 -39 36v907q0 17 10.5 27t27.5 10h41q18 0 27.5 -10.5t9.5 -26.5v-472
q44 4 88 30.5t75 64.5l66 98l74.5 113.5t77.5 100.5t94.5 71.5t124.5 27.5h1q17 0 27.5 -9t10.5 -27v-42q0 -17 -10.5 -27.5t-27.5 -9.5l-19 1q-35 0 -62.5 -13t-50.5 -35t-43.5 -50.5l-40.5 -58.5l-18 -27zM552 1448q15 36 52 36h42q36 0 21 -36l-100 -234
q-10 -23 -23 -30.5t-30 -7.5h-41q-37 0 -21 38z" />
    <glyph glyph-name="afii10064" horiz-adv-x="1223" 
d="M88 488q0 106 40 199t109 162t161.5 108.5t197.5 39.5q106 0 198.5 -39.5t161.5 -108.5t108.5 -162t39.5 -199t-39.5 -198.5t-108.5 -161.5t-161.5 -108.5t-198.5 -39.5q-105 0 -197.5 39.5t-161.5 108.5t-109 161.5t-40 198.5z" />
    <glyph glyph-name="estimated" unicode="&#x212e;" horiz-adv-x="1173" 
 />
    <glyph glyph-name="k.alt" horiz-adv-x="1093" 
 />
    <glyph glyph-name="A.alt1900" horiz-adv-x="1457" 
d="M472 808q-38 0 -38 -36v-42q0 -37 38 -37h520q17 0 27.5 10t10.5 27v42q0 18 -10.5 27t-27.5 9h-520zM79 34l28.5 74.5l28.5 69.5l162 390l123 294l91 217l67 159.5l50.5 120.5l42.5 101q5 13 13.5 21t24.5 8h29q17 0 25 -8t14 -19l590 -1416q0 -2 1.5 -8.5t1.5 -10.5
q0 -22 -31 -27h-43q-2 0 -4 -0.5t-4 -0.5q-26 0 -37 29l-143 345h-770l-71.5 -173l-70.5 -174q-10 -26 -35 -26q-6 0 -10 1h-43q-31 3 -31 25q0 5 1 8zM725 1311l-169 -412l-169 -412h675z" />
    <glyph glyph-name="B.alt1900" horiz-adv-x="1138" 
d="M1064 428q0 -83 -30 -156t-81.5 -129t-120.5 -92t-146 -45q-30 -4 -61.5 -5t-63.5 -1h-374l-6 3q-17 3 -17 23v994v33t1 33q0 2 -1 3v370q0 28 24 28h347q60 0 112.5 -22.5t92 -61t62 -89.5t22.5 -109q0 -35 -9 -70t-25 -67t-39.5 -59.5t-51.5 -48.5q96 -32 165 -85.5
t113.5 -123t65.5 -152t21 -171.5zM415 901q-34 1 -68 1h-68v-790h284q41 0 78 4t71 12q55 11 99 38.5t75 67.5t47.5 90t16.5 107q0 100 -32 185.5t-98 148t-166.5 98.5t-238.5 38zM279 1018q45 -1 88.5 -1h88.5h48q43 0 78.5 13.5t61 38t39 58t13.5 73.5q0 37 -11.5 69
t-33 55.5t-53.5 37t-72 13.5h-247v-357z" />
    <glyph glyph-name="C.alt1900" horiz-adv-x="1230" 
d="M1124 0q-1 -16 -18 -16q-146 0 -278 37.5t-244 104t-202.5 159t-154 204t-98 237t-34.5 258.5q0 102 42 193t117 160t178.5 109.5t226.5 40.5q137 0 261.5 -42t227.5 -120q10 -7 10 -16q0 -2 -0.5 -3t-0.5 -2q0 -6 -3 -18.5t-7.5 -25.5t-11 -23t-14.5 -10q-2 0 -12.5 4
l-24 9t-28 11.5t-23.5 12.5q-82 52 -178 79.5t-196 27.5q-105 0 -188 -35t-140 -90.5t-87 -124t-30 -135.5q0 -117 30.5 -228.5t87 -210t136.5 -181t179 -142t214.5 -92.5t242.5 -33h8q11 -1 19.5 -9.5t8.5 -22.5q0 -20 -4.5 -37t-11.5 -30z" />
    <glyph glyph-name="D.alt1900" horiz-adv-x="1285" 
d="M679 1486q80 0 151 -21.5t130.5 -58.5t106.5 -86.5t80 -105.5t50.5 -115t17.5 -115q0 -133 -34 -257.5t-97.5 -234t-153.5 -200t-202 -155.5t-243.5 -101t-277.5 -36h-15q-12 2 -19 8t-7 21v1424q0 33 32 33h481zM1096 986q0 37 -11 80t-34 86t-57.5 83t-81.5 70.5
t-106 48.5t-130 18h-396v-1252q118 9 224.5 46.5t197 96.5t163.5 138t124.5 172t79 197.5t27.5 215.5z" />
    <glyph glyph-name="E.alt1900" horiz-adv-x="1085" 
d="M896 1486q33 0 33 -33v-50q0 -32 -34 -32h-647v-362h723q14 0 23 -7t9 -24v-52q0 -31 -32 -31h-723v-780h690q32 0 32 -32v-52q0 -31 -31 -31h-779q-11 0 -18.5 7.5t-7.5 21.5v1425q0 4 1 6.5t1 3.5q1 12 9 17t19 5h732z" />
    <glyph glyph-name="F.alt1900" horiz-adv-x="1076" 
d="M873 1486q33 0 33 -33v-50q0 -32 -33 -32h-625v-509h693q14 0 23 -7.5t9 -24.5v-51q0 -32 -32 -32h-693v-718q0 -29 -32 -29h-52q-31 0 -31 29v1425q0 32 31 32h709z" />
    <glyph glyph-name="G.alt1900" horiz-adv-x="1291" 
d="M1097 -16q-145 1 -276 39t-242 105t-200.5 159.5t-152.5 203.5t-97 236t-34 257q0 102 42 193t117 160t178.5 109.5t226.5 40.5q137 0 261.5 -42t227.5 -120q10 -7 10 -16q0 -2 -0.5 -3t-0.5 -2q0 -6 -3 -18.5t-7.5 -25.5t-11 -23t-14.5 -10q-2 0 -12.5 4l-24 9t-28 11.5
t-23.5 12.5q-82 52 -178 79.5t-196 27.5q-105 0 -188 -35t-140 -90.5t-87 -124t-30 -135.5q0 -113 28 -220t80.5 -202.5t126.5 -177t166 -142t199.5 -98t227.5 -45.5v1v582q0 31 30 31h53q14 0 23 -7.5t9 -23.5v-659q-2 -17 -13.5 -26.5t-28.5 -12.5q-4 -2 -9 -2h-3h-6v0z
" />
    <glyph glyph-name="H.alt1900" horiz-adv-x="1285" 
d="M994 1455q0 31 31 31h51q15 0 24 -8t9 -23v-1424q0 -31 -33 -31h-51q-31 0 -31 31v662h-714v-662q0 -31 -32 -31h-51q-31 0 -31 31v1424q0 31 31 31h52q31 0 31 -31v-300h714v300zM994 808v232h-714v-232h714z" />
    <glyph glyph-name="I.alt1900" horiz-adv-x="480" 
d="M188 1455q0 31 30 31h53q14 0 23 -8t9 -23v-1424q0 -31 -32 -31h-53q-30 0 -30 31v1424z" />
    <glyph glyph-name="J.alt1900" horiz-adv-x="532" 
d="M185 1457q0 13 7 21t23 8h54q31 0 31 -31v-1510q0 -74 -28 -136t-75 -107t-109.5 -70t-132.5 -25q-77 0 -147 25t-114 79l-2 2q-10 12 -10 21q0 10 11 21l33 34q5 0 12.5 6.5t13.5 6.5q9 0 24 -13t38 -28t57 -28t82 -13q51 0 93.5 19t73 50.5t47.5 72.5t18 85v1510z" />
    <glyph glyph-name="K.alt1900" horiz-adv-x="1217" 
d="M164 1448q0 17 9 28t29 11h37q17 0 27.5 -10.5t10.5 -28.5v-442l298.5 210l297.5 211q24 17 41 28t30 18t24 9.5t23 2.5l79 1q9 0 16.5 -3t10.5 -9t0 -14t-16 -17l-48 -36l-343 -247l423 -1105q2 -4 3 -12t1 -12q0 -29 -52 -29q-23 0 -45 8q-14 17 -28 38.5t-24 47.5
l-187 497.5l-187 498.5l-317 -227v-826q0 -39 -39 -39h-36q-38 0 -38 39v1409z" />
    <glyph glyph-name="L.alt1900" horiz-adv-x="1137" 
d="M1050 115q14 0 23 -8t9 -24v-52q0 -14 -9 -22.5t-23 -8.5h-881q-31 0 -31 31v1424q0 31 32 31h52q30 0 30 -31v-1340h798z" />
    <glyph glyph-name="M.alt1900" horiz-adv-x="1386" 
d="M322 1277l-107 -1260q0 -17 -17 -17h-71q-13 0 -19 9t-6 22l57.5 710.5l57.5 710.5q3 34 33 34h75h2q15 0 21 -7t7 -13l300 -662l298 659q5 12 17 17t27 6.5t31 1t30 -0.5t24.5 -7.5t11.5 -20.5v-7l57 -710l58 -710v-2q-1 -14 -8.5 -22t-22.5 -8h-52q-17 0 -23.5 8
t-8.5 24l-105 1245l-281 -642q-6 -14 -15 -19.5t-19.5 -7.5t-21.5 -1t-21 1q-8 0 -16 7t-13 20z" />
    <glyph glyph-name="N.alt1900" horiz-adv-x="1274" 
d="M966 1455q0 31 31 31h51q14 0 23 -8t9 -23v-1424q0 -31 -32 -31h-51q-31 0 -31 31v759l-683 523v-1282q0 -31 -32 -31h-52q-30 0 -30 31v1424q0 14 6.5 22.5t20.5 8.5h13h19t19.5 -0.5t14.5 -1.5q8 -4 19.5 -12t37 -28l71.5 -55.5l121.5 -94.5l186.5 -145l268 -207v513z
" />
    <glyph glyph-name="O.alt1900" horiz-adv-x="1214" 
d="M101 1005q0 106 39.5 198.5t108.5 161.5t161 108.5t197 39.5t197.5 -39.5t161.5 -108.5t109 -161.5t40 -198.5q0 -105 -40 -197.5t-109 -161.5t-161.5 -108.5t-197.5 -39.5t-197 39.5t-161 108.5t-108.5 161.5t-39.5 197.5zM217 1005q0 -82 30.5 -154t83.5 -125.5
t124.5 -84.5t153.5 -31q81 0 152 31t123.5 84.5t83 125.5t30.5 154t-30.5 154.5t-83 126.5t-123.5 85.5t-152 31.5q-82 0 -153.5 -31.5t-124.5 -85.5t-83.5 -126.5t-30.5 -154.5zM1081 113q32 0 32 -30v-52q0 -31 -31 -31h-917q-33 0 -33 31v52q0 15 8.5 22.5t22.5 7.5h918z
" />
    <glyph glyph-name="P.alt1900" horiz-adv-x="1197" 
d="M1075 1058q0 -79 -21.5 -161.5t-62.5 -160.5t-100 -148t-134 -125t-165 -90.5t-193 -45.5q-27 -4 -54 -5.5t-55 -2.5v-288q0 -31 -31 -31h-53q-31 0 -31 31v1428q0 20 17 24l6 3h435q93 0 174 -33.5t140.5 -91.5t93.5 -136t34 -167zM290 448q14 -1 26.5 -3t26.5 -2
q94 0 176.5 26t151 71t122.5 105t91.5 128t57 140t19.5 141q0 67 -22 125.5t-64.5 101.5t-104.5 67.5t-141 24.5h-339v-925z" />
    <glyph glyph-name="Q.alt1900" horiz-adv-x="1230" 
d="M101 1005q0 106 39.5 198.5t108.5 161.5t161 108.5t197 39.5t197.5 -39.5t161.5 -108.5t109 -161.5t40 -198.5q0 -93 -31.5 -176.5t-87 -149.5t-131.5 -110.5t-164 -60.5l401 -400q5 -3 7 -7.5t3 -9.5v-53q0 -2 0.5 -4t0.5 -4q0 -10 -8.5 -19t-18.5 -11h-921
q-33 0 -33 31v52q0 15 8.5 22.5t22.5 7.5h774l-385 384q-8 0 -18.5 1t-21 3t-19 5.5t-11.5 8.5q-83 21 -152.5 66.5t-120.5 110t-79.5 144.5t-28.5 169zM217 1005q0 -82 30.5 -154t83.5 -125.5t124.5 -84.5t153.5 -31q81 0 152 31t123.5 84.5t83 125.5t30.5 154t-30.5 154.5
t-83 126.5t-123.5 85.5t-152 31.5q-82 0 -153.5 -31.5t-124.5 -85.5t-83.5 -126.5t-30.5 -154.5z" />
    <glyph glyph-name="R.alt1900" horiz-adv-x="1197" 
d="M1079 40q13 -20 4 -29t-24 -9q-2 0 -4 -0.5t-7.5 -0.5t-17 -0.5t-31.5 -0.5q-9 0 -17 2.5t-17.5 13.5t-23 32.5t-34.5 59.5l-87.5 158.5l-88.5 158.5q-35 -21 -77 -38t-88 -30t-93.5 -21.5t-91.5 -11.5q-16 -1 -26 -2t-19.5 -1.5l-19.5 -1t-26 -0.5v-288q0 -31 -31 -31
h-53q-31 0 -31 31v1428q0 20 17 24l6 3h476q93 0 174 -33.5t140.5 -91.5t93.5 -136.5t34 -167.5q0 -75 -20 -152.5t-57.5 -152t-92.5 -142t-124 -122.5zM290 441q165 0 296.5 53t224 139.5t142 196.5t49.5 224q0 67 -22 125t-64.5 101t-104.5 68t-141 25h-380v-932z" />
    <glyph glyph-name="S.alt1900" horiz-adv-x="579" 
d="M60 49q0 13 8.5 21.5t21.5 9.5q64 8 120.5 40t99 79t67 106t24.5 122q0 45 -20 84q-13 57 -46.5 106.5t-82.5 87.5q-85 66 -133 159.5t-48 201.5q0 82 29 156t79.5 132.5t118.5 99t147 55.5q11 3 22.5 5t23.5 2q13 0 22 -8.5t9 -23.5v-48q0 -14 -7.5 -22.5t-21.5 -8.5
q-65 -9 -122.5 -40.5t-100 -79t-67.5 -107t-25 -123.5q0 -31 7 -53q17 -123 130 -211q44 -32 80 -74t61.5 -90.5t39.5 -102t14 -108.5q0 -89 -33.5 -166.5t-90.5 -137t-133 -97t-162 -45.5q-6 0 -11.5 7t-10 18.5t-7 25.5t-2.5 28z" />
    <glyph glyph-name="T.alt1900" horiz-adv-x="994" 
d="M920 1486q31 0 34 -31v-51q0 -15 -8.5 -24t-25.5 -9h-359v-1339q0 -32 -32 -32h-51q-14 0 -23 8.5t-9 23.5v1339h-355q-31 0 -31 33v51q0 31 31 31h829z" />
    <glyph glyph-name="U.alt1900" horiz-adv-x="1437" 
d="M245 597q0 -107 36 -200t100.5 -161.5t155 -108t200.5 -39.5q113 0 204 39.5t155.5 108.5t99 161.5t34.5 199.5v858q0 31 33 31h48q15 0 24.5 -8t9.5 -23v-876q-1 -129 -49 -239.5t-130.5 -191.5t-192.5 -126.5t-236 -45.5q-84 0 -161.5 21.5t-145 61t-123 95t-95 123
t-61.5 145t-22 161.5v872q0 14 7.5 22.5t22.5 8.5h54q13 0 22.5 -8.5t9.5 -22.5v-858z" />
    <glyph glyph-name="V.alt1900" horiz-adv-x="1311" 
d="M668 181l73.5 182l83.5 217.5l88 235l89 236.5l84.5 222l74.5 190v-1q9 24 31 24h8h54q27 -5 27 -22q0 -2 -1 -9.5t-2 -10.5v1l-521 -1337l-39 -91l1 1q-5 -9 -11 -14.5t-23 -5.5h-33q-18 0 -24.5 6t-11.5 18l-559 1422q0 -1 -1.5 4t-1.5 16q0 17 26 21h54q3 1 9 1
q21 0 29 -21l75 -191l85 -222.5l89.5 -237.5l89.5 -235.5l84 -217z" />
    <glyph glyph-name="W.alt1900" horiz-adv-x="2053" 
d="M1092 1176q11 27 24 44l108 258q26 10 58 10q28 0 39.5 -5.5t11.5 -16.5q0 -2 -0.5 -3.5t-0.5 -3.5v-6l-237 -567l296 -712l532 1290q7 24 30 24q2 0 4.5 -0.5t4.5 -0.5h52q26 -4 26 -22q0 -2 -0.5 -3t-0.5 -3v-3l-598 -1433q-3 -6 -9.5 -15t-23.5 -9h-34q-31 0 -34 24
l-304 724l-151 -360.5l-150 -360.5q-4 -13 -11.5 -18.5t-16.5 -7.5t-19.5 -1.5t-20.5 0.5q-13 0 -20 4t-12 15l-597 1436q-2 0 -2.5 5.5t-0.5 7.5q0 15 23 19h56q3 1 9 1q19 0 28 -25l533 -1288l408 1002v0z" />
    <glyph glyph-name="X.alt1900" horiz-adv-x="1240" 
d="M618 838l407 602q19 28 34 36t40 8h38q32 0 34 -10.5t-19 -42.5l-469 -689l475 -701q28 -42 -12 -42h-52q-36 0 -56 31l-420 617l-420 -617q-20 -31 -56 -31h-52q-40 0 -12 42l475 701l-469 689q-21 32 -19 42.5t34 10.5h38q25 0 40 -8t34 -36zM618 838l407 602
q19 28 34 36t40 8h38q32 0 34 -10.5t-19 -42.5l-469 -689l475 -701q28 -42 -12 -42h-52q-36 0 -56 31l-420 617l-420 -617q-20 -31 -56 -31h-52q-40 0 -12 42l475 701l-469 689q-21 32 -19 42.5t34 10.5h38q25 0 40 -8t34 -36z" />
    <glyph glyph-name="Y.alt1900" horiz-adv-x="992" 
d="M751 1414q8 13 18 14l60 28l60 28q6 6 13 6q6 0 12 -6t6 -12q0 -8 -7 -18l-46.5 -73.5l-65.5 -103.5l-75 -118.5l-74.5 -117.5l-64.5 -102l-45 -70v-836q0 -33 -30 -33h-54q-30 0 -30 33v833l-185 295.5l-186 294.5q-2 5 -4 8.5t-2 7.5q0 8 6.5 13.5t13.5 5.5q6 0 14 -6
l59.5 -28l59.5 -28q6 -1 9 -3.5t9 -14.5l261 -423z" />
    <glyph glyph-name="Z.alt1900.001" horiz-adv-x="1218" 
 />
    <glyph glyph-name="ampersand.alt1900" 
d="M745 922q127 1 252.5 1h252.5q28 0 28 -26q0 1 -7.5 -12.5l-17 -30.5t-19.5 -31.5t-16 -14.5h-133v-778q0 -12 -7.5 -20.5t-18.5 -9.5h-446q-97 0 -180.5 37t-145.5 100t-97.5 146.5t-35.5 176.5q0 92 34 173.5t94 144t141.5 100.5t176.5 43l-353 499q-5 8 -8.5 17
t-3.5 21q0 14 9 24t26 10h690q36 0 36 -34v-46q0 -36 -36 -36h-539zM615 807q-72 0 -135 -27.5t-109.5 -74.5t-73.5 -110t-27 -134t27 -134t74 -110.5t109.5 -75t134.5 -27.5h354v693h-354z" />
    <glyph glyph-name="\.alt1900" 
 />
    <glyph glyph-name="].alt1900" 
 />
    <glyph glyph-name="^.alt1900" 
 />
    <glyph glyph-name="A.alt1910" horiz-adv-x="1509" 
d="M213 24q-10 -24 -31 -24q-5 0 -7 1h-54q-27 3 -27 22q0 4 1 7v9q0 2 1 3l595 1425v-1q5 5 7 9t4.5 7t7 5t15.5 2h34q16 0 23 -6t11 -17v3q0 -3 1 -4l591 -1422q0 -3 1.5 -10t1.5 -11q0 -17 -26 -20h-53q-4 -1 -10 -1q-20 0 -29 22l-29 70l-29 70l-40 99h-862zM736 1294
l-80 -193l-94.5 -229.5l-102 -247.5l-102.5 -247h767l-324 789z" />
    <glyph glyph-name="B.alt1910" horiz-adv-x="1357" 
d="M1064 428q0 -83 -30 -156t-81.5 -129t-120.5 -92t-146 -45q-30 -4 -61.5 -5t-63.5 -1h-374l-6 3q-17 3 -17 23v994v33t1 33q0 2 -1 3v370q0 28 24 28h347q60 0 112.5 -22.5t92 -61t62 -89.5t22.5 -109q0 -35 -9 -70t-25 -67t-39.5 -59.5t-51.5 -48.5q96 -32 165 -85.5
t113.5 -123t65.5 -152t21 -171.5zM415 901q-34 1 -68 1h-68v-790h284q41 0 78 4t71 12q55 11 99 38.5t75 67.5t47.5 90t16.5 107q0 100 -32 185.5t-98 148t-166.5 98.5t-238.5 38zM279 1018q45 -1 88.5 -1h88.5h48q43 0 78.5 13.5t61 38t39 58t13.5 73.5q0 37 -11.5 69
t-33 55.5t-53.5 37t-72 13.5h-247v-357z" />
    <glyph glyph-name="C.alt1910" horiz-adv-x="1247" 
d="M1124 0q-1 -16 -18 -16q-146 0 -278 37.5t-244 104t-202.5 159t-154 204t-98 237t-34.5 258.5q0 102 42 193t117 160t178.5 109.5t226.5 40.5q137 0 261.5 -42t227.5 -120q10 -7 10 -16q0 -2 -0.5 -3t-0.5 -2q0 -6 -3 -18.5t-7.5 -25.5t-11 -23t-14.5 -10q-2 0 -12.5 4
l-24 9t-28 11.5t-23.5 12.5q-82 52 -178 79.5t-196 27.5q-105 0 -188 -35t-140 -90.5t-87 -124t-30 -135.5q0 -117 30.5 -228.5t87 -210t136.5 -181t179 -142t214.5 -92.5t242.5 -33h8q11 -1 19.5 -9.5t8.5 -22.5q0 -20 -4.5 -37t-11.5 -30z" />
    <glyph glyph-name="D.alt1910" horiz-adv-x="1324" 
d="M198 0q-32 0 -32 32v1424q0 17 9 23.5t25 6.5h7q146 -1 277.5 -37t243.5 -101t202 -155.5t153.5 -200t97.5 -234t34 -257.5q0 -56 -17.5 -115t-50.5 -115t-80 -105t-106.5 -86t-130.5 -58.5t-151 -21.5h-481zM1096 499q0 111 -27.5 215.5t-79 197.5t-124.5 172
t-163.5 138t-197 96t-224.5 47v-1252h396q72 0 130.5 18t105.5 48.5t81.5 70.5t57.5 83t34 86t11 80z" />
    <glyph glyph-name="E.alt1910" horiz-adv-x="1085" 
d="M892 1486q33 0 33 -33v-50q0 -32 -34 -32h-643v-390h723q14 0 23 -7.5t9 -24.5v-52q0 -31 -32 -31h-723v-751h678q32 0 32 -32v-52q0 -31 -31 -31h-767q-11 0 -18.5 7.5t-7.5 21.5v1425q0 4 1 6.5t1 3.5q1 12 9 17t19 5h728z" />
    <glyph glyph-name="F.alt1910" horiz-adv-x="1076" 
d="M891 1486q33 0 33 -33v-50q0 -32 -33 -32h-643v-469h705q14 0 23 -7.5t9 -24.5v-51q0 -32 -32 -32h-705v-758q0 -29 -32 -29h-52q-31 0 -31 29v1425q0 32 31 32h727z" />
    <glyph glyph-name="G.alt1910" horiz-adv-x="1261" 
d="M1097 -16q-145 1 -276 39t-242 105t-200.5 159.5t-152.5 203.5t-97 236t-34 257q0 102 42 193t117 160t178.5 109.5t226.5 40.5q137 0 261.5 -42t227.5 -120q10 -7 10 -16q0 -2 -0.5 -3t-0.5 -2q0 -6 -3 -18.5t-7.5 -25.5t-11 -23t-14.5 -10q-2 0 -12.5 4l-24 9t-28 11.5
t-23.5 12.5q-82 52 -178 79.5t-196 27.5q-105 0 -188 -35t-140 -90.5t-87 -124t-30 -135.5q0 -113 28 -220t80.5 -202.5t126.5 -177t166 -142t199.5 -98t227.5 -45.5v1v582q0 31 30 31h53q14 0 23 -7.5t9 -23.5v-659q-2 -17 -13.5 -26.5t-28.5 -12.5q-4 -2 -9 -2h-3h-6v0z
" />
    <glyph glyph-name="H.alt1910" horiz-adv-x="1547" 
d="M1256 1455q0 31 31 31h51q14 0 23.5 -8t9.5 -23v-1424q0 -31 -33 -31h-51q-31 0 -31 31v673h-976v-673q0 -31 -32 -31h-52q-31 0 -31 31v1424q0 31 31 31h53q31 0 31 -31v-636h976v636z" />
    <glyph glyph-name="I.alt1910" horiz-adv-x="480" 
d="M188 1455q0 31 30 31h53q14 0 23 -8t9 -23v-1424q0 -31 -32 -31h-53q-30 0 -30 31v1424z" />
    <glyph glyph-name="J.alt1910" horiz-adv-x="532" 
d="M185 1457q0 13 7 21t23 8h54q31 0 31 -31v-1510q0 -74 -28 -136t-75 -107t-109.5 -70t-132.5 -25q-77 0 -147 25t-114 79l-2 2q-10 12 -10 21q0 10 11 21l33 34q5 0 12.5 6.5t13.5 6.5q9 0 24 -13t38 -28t57 -28t82 -13q51 0 93.5 19t73 50.5t47.5 72.5t18 85v1510z" />
    <glyph glyph-name="K.alt1910" horiz-adv-x="1217" 
d="M164 1448q0 17 9 28t29 11h37q17 0 27.5 -10.5t10.5 -28.5v-442l298.5 210l297.5 211q24 17 41 28t30 18t24 9.5t23 2.5l79 1q9 0 16.5 -3t10.5 -9t0 -14t-16 -17l-48 -36l-343 -247l423 -1105q2 -4 3 -12t1 -12q0 -29 -52 -29q-23 0 -45 8q-14 17 -28 38.5t-24 47.5
l-187 497.5l-187 498.5l-317 -227v-826q0 -39 -39 -39h-36q-38 0 -38 39v1409z" />
    <glyph glyph-name="L.alt1910" horiz-adv-x="1137" 
d="M1065 115q14 0 23 -8t9 -24v-52q0 -14 -9 -22.5t-23 -8.5h-881q-31 0 -31 31v1424q0 31 32 31h52q30 0 30 -31v-1340h798z" />
    <glyph glyph-name="M.alt1910" horiz-adv-x="1386" 
d="M322 1277l-107 -1260q0 -17 -17 -17h-71q-13 0 -19 9t-6 22l57.5 710.5l57.5 710.5q3 34 33 34h75h2q15 0 21 -7t7 -13l300 -662l298 659q5 12 17 17t27 6.5t31 1t30 -0.5t24.5 -7.5t11.5 -20.5v-7l57 -710l58 -710v-2q-1 -14 -8.5 -22t-22.5 -8h-52q-17 0 -23.5 8
t-8.5 24l-105 1245l-281 -642q-6 -14 -15 -19.5t-19.5 -7.5t-21.5 -1t-21 1q-8 0 -16 7t-13 20z" />
    <glyph glyph-name="N.alt1910" horiz-adv-x="1274" 
d="M966 1455q0 31 31 31h51q14 0 23 -8t9 -23v-1424q0 -31 -32 -31h-51q-31 0 -31 31v759l-683 523v-1282q0 -31 -32 -31h-52q-30 0 -30 31v1424q0 14 6.5 22.5t20.5 8.5h13h19t19.5 -0.5t14.5 -1.5q8 -4 19.5 -12t37 -28l71.5 -55.5l121.5 -94.5l186.5 -145l268 -207v513z
" />
    <glyph glyph-name="O.alt1910" horiz-adv-x="1758" 
d="M105 741q0 105 27 202.5t76.5 182t119 154.5t154.5 119.5t182 77t203 27.5q104 0 201.5 -27.5t182 -77t154.5 -119t119.5 -154.5t77 -183t27.5 -203t-27.5 -202t-77 -181.5t-119.5 -153.5t-154.5 -118.5t-182 -76.5t-202.5 -27t-202.5 27t-182 76.5t-154 119t-119 154
t-76.5 181.5t-27 202zM221 743q0 -134 50.5 -251t138.5 -205t205 -138.5t251 -50.5q133 0 250.5 50.5t205 138.5t138.5 205t51 251q0 133 -51 250.5t-138.5 205t-205 138.5t-250.5 51q-134 0 -251 -51t-205 -138.5t-138.5 -205t-50.5 -250.5z" />
    <glyph glyph-name="P.alt1910" horiz-adv-x="1197" 
d="M1075 1058q0 -79 -21.5 -161.5t-62.5 -160.5t-100 -148t-134 -125t-165 -90.5t-193 -45.5q-27 -4 -54 -5.5t-55 -2.5v-288q0 -31 -31 -31h-53q-31 0 -31 31v1428q0 20 17 24l6 3h435q93 0 174 -33.5t140.5 -91.5t93.5 -136t34 -167zM290 448q14 -1 26.5 -3t26.5 -2
q94 0 176.5 26t151 71t122.5 105t91.5 128t57 140t19.5 141q0 67 -22 125.5t-64.5 101.5t-104.5 67.5t-141 24.5h-339v-925z" />
    <glyph glyph-name="Q.alt1910" horiz-adv-x="1758" 
d="M1681 -507q-47 5 -96 24.5l-102 42.5l-231 98.5l-230 98.5q-72 30 -131 30q-116 0 -178 -106q-7 -5 -15 -10t-13 -5q-8 0 -17 6.5t-16.5 16t-13 20t-8.5 18.5q4 45 31 78.5t64.5 56t79.5 34t76 11.5q63 0 129 -25t139 -56l407 -174l95.5 -38t88.5 -19q84 -1 145 61
q7 7 15 18l15.5 21.5t15 17.5t13.5 7q8 0 17 -6.5t16.5 -16t13.5 -20t8 -19.5q-10 -59 -43.5 -95.5t-79 -54.5t-97.5 -20.5t-98 5.5zM110 741q0 105 27 202.5t76.5 182t119 154.5t154 119.5t182 77t202.5 27.5t202 -27.5t181.5 -77t154.5 -119t119.5 -154.5t77 -183
t27.5 -203t-27.5 -202t-77 -181.5t-119 -153.5t-154.5 -118.5t-182.5 -76.5t-202.5 -27q-158 0 -296.5 59.5t-241.5 163t-162.5 241.5t-59.5 296zM226 743q0 -134 50.5 -251t138 -205t204.5 -138.5t251 -50.5q89 0 171 23t154 65t131 101t101.5 130.5t65.5 154t23 171.5
q0 133 -51 250.5t-139 205t-205.5 138.5t-250.5 51q-134 0 -251 -51t-204.5 -138.5t-138 -205t-50.5 -250.5z" />
    <glyph glyph-name="R.alt1910" horiz-adv-x="1197" 
d="M1079 40q13 -20 4 -29t-24 -9q-2 0 -4 -0.5t-7.5 -0.5t-17 -0.5t-31.5 -0.5q-9 0 -17 2.5t-17.5 13.5t-23 32.5t-34.5 59.5l-87.5 158.5l-88.5 158.5q-35 -21 -77 -38t-88 -30t-93.5 -21.5t-91.5 -11.5q-16 -1 -26 -2t-19.5 -1.5l-19.5 -1t-26 -0.5v-288q0 -31 -31 -31
h-53q-31 0 -31 31v1428q0 20 17 24l6 3h476q93 0 174 -33.5t140.5 -91.5t93.5 -136.5t34 -167.5q0 -75 -20 -152.5t-57.5 -152t-92.5 -142t-124 -122.5zM290 441q165 0 296.5 53t224 139.5t142 196.5t49.5 224q0 67 -22 125t-64.5 101t-104.5 68t-141 25h-380v-932z" />
    <glyph glyph-name="S.alt1910" horiz-adv-x="579" 
d="M60 49q0 13 8.5 21.5t21.5 9.5q64 8 120.5 40t99 79t67 106t24.5 122q0 45 -20 84q-13 57 -46.5 106.5t-82.5 87.5q-85 66 -133 159.5t-48 201.5q0 82 29 156t79.5 132.5t118.5 99t147 55.5q11 3 22.5 5t23.5 2q13 0 22 -8.5t9 -23.5v-48q0 -14 -7.5 -22.5t-21.5 -8.5
q-65 -9 -122.5 -40.5t-100 -79t-67.5 -107t-25 -123.5q0 -31 7 -53q17 -123 130 -211q44 -32 80 -74t61.5 -90.5t39.5 -102t14 -108.5q0 -89 -33.5 -166.5t-90.5 -137t-133 -97t-162 -45.5q-6 0 -11.5 7t-10 18.5t-7 25.5t-2.5 28z" />
    <glyph glyph-name="T.alt1910" horiz-adv-x="1267" 
d="M1163 1486q31 0 34 -31v-51q0 -15 -8.5 -24t-25.5 -9h-469v-1339q0 -32 -31 -32h-52q-31 0 -31 32v1339h-472q-31 0 -31 33v51q0 31 31 31h1055z" />
    <glyph glyph-name="U.alt1910" horiz-adv-x="1437" 
d="M245 597q0 -107 36 -200t100.5 -161.5t155 -108t200.5 -39.5q113 0 204 39.5t155.5 108.5t99 161.5t34.5 199.5v858q0 31 33 31h48q15 0 24.5 -8t9.5 -23v-876q-1 -129 -49 -239.5t-130.5 -191.5t-192.5 -126.5t-236 -45.5q-84 0 -161.5 21.5t-145 61t-123 95t-95 123
t-61.5 145t-22 161.5v872q0 14 7.5 22.5t22.5 8.5h54q13 0 22.5 -8.5t9.5 -22.5v-858z" />
    <glyph glyph-name="V.alt1910" horiz-adv-x="1505" 
d="M713 180l74.5 180.5l89.5 217.5l97 237l97.5 238.5l90.5 222l77 188.5v-1q9 24 31 24h8h53q28 -5 28 -22q0 -3 -0.5 -8.5t-2.5 -10.5l-593 -1426l-1 -2l1 1q-5 -9 -11 -14.5t-22 -5.5h-34q-14 0 -25 6.5t-11 19.5q0 -1 1 -1l-594 1421q1 -1 -1 6t-2 15q0 15 27 20h54
q3 1 9 1q19 0 29 -21l77.5 -189l91.5 -223l98 -238.5l97.5 -237l90 -218z" />
    <glyph glyph-name="W.alt1910" horiz-adv-x="2053" 
d="M1092 1176q11 27 24 44l108 258q26 10 58 10q28 0 39.5 -5.5t11.5 -16.5q0 -2 -0.5 -3.5t-0.5 -3.5v-6l-237 -567l296 -712l532 1290q7 24 30 24q2 0 4.5 -0.5t4.5 -0.5h52q26 -4 26 -22q0 -2 -0.5 -3t-0.5 -3v-3l-598 -1433q-3 -6 -9.5 -15t-23.5 -9h-34q-31 0 -34 24
l-304 724l-151 -360.5l-150 -360.5q-4 -13 -11.5 -18.5t-16.5 -7.5t-19.5 -1.5t-20.5 0.5q-13 0 -20 4t-12 15l-597 1436q-2 0 -2.5 5.5t-0.5 7.5q0 15 23 19h56q3 1 9 1q19 0 28 -25l533 -1288l408 1002v0z" />
    <glyph glyph-name="X.alt1910" horiz-adv-x="1240" 
d="M618 838l407 602q19 28 34 36t40 8h38q32 0 34 -10.5t-19 -42.5l-469 -689l475 -701q28 -42 -12 -42h-52q-36 0 -56 31l-420 617l-420 -617q-20 -31 -56 -31h-52q-40 0 -12 42l475 701l-469 689q-21 32 -19 42.5t34 10.5h38q25 0 40 -8t34 -36zM618 838l407 602
q19 28 34 36t40 8h38q32 0 34 -10.5t-19 -42.5l-469 -689l475 -701q28 -42 -12 -42h-52q-36 0 -56 31l-420 617l-420 -617q-20 -31 -56 -31h-52q-40 0 -12 42l475 701l-469 689q-21 32 -19 42.5t34 10.5h38q25 0 40 -8t34 -36z" />
    <glyph glyph-name="Y.alt1910" horiz-adv-x="1397" 
d="M1041 1405q6 13 17 14l124 61q7 6 14 6t12 -5t5 -13t-6 -17l-81 -128.5l-80 -128.5l-335 -529v-632q0 -33 -30 -33h-55q-30 0 -30 33v629l-496 787q-4 3 -6 8.5t-2 9.5q0 7 6.5 13t13.5 6q6 0 15 -6l121 -62q7 -1 9.5 -3.5t10.5 -13.5l384 -617z" />
    <glyph glyph-name="Z.alt1910.001" horiz-adv-x="1364" 
 />
    <glyph glyph-name="ampersand.alt1910" 
d="M745 922q127 1 252.5 1h252.5q28 0 28 -26q0 1 -7.5 -12.5l-17 -30.5t-19.5 -31.5t-16 -14.5h-133v-778q0 -12 -7.5 -20.5t-18.5 -9.5h-446q-97 0 -180.5 37t-145.5 100t-97.5 146.5t-35.5 176.5q0 92 34 173.5t94 144t141.5 100.5t176.5 43l-353 499q-5 8 -8.5 17
t-3.5 21q0 14 9 24t26 10h690q36 0 36 -34v-46q0 -36 -36 -36h-539zM615 807q-72 0 -135 -27.5t-109.5 -74.5t-73.5 -110t-27 -134t27 -134t74 -110.5t109.5 -75t134.5 -27.5h354v693h-354z" />
    <glyph glyph-name="\.alt1910" 
 />
    <glyph glyph-name="].alt1910" 
 />
    <glyph glyph-name="^.alt1910" 
 />
    <glyph glyph-name="A.alt1920" horiz-adv-x="1509" 
d="M213 24q-10 -24 -31 -24q-5 0 -7 1h-54q-27 3 -27 22q0 4 1 7v9q0 2 1 3l595 1425v-1q5 5 7 9t4.5 7t7 5t15.5 2h34q16 0 23 -6t11 -17v3q0 -3 1 -4l591 -1422q0 -3 1.5 -10t1.5 -11q0 -17 -26 -20h-53q-4 -1 -10 -1q-20 0 -29 22l-29 70l-29 70l-40 99h-862zM736 1294
l-80 -193l-94.5 -229.5l-102 -247.5l-102.5 -247h767l-324 789z" />
    <glyph glyph-name="B.alt1920" horiz-adv-x="1357" 
d="M797 1486q82 0 153 -26.5t124 -74.5t83.5 -115.5t30.5 -149.5q0 -101 -47 -173t-125 -125q54 -21 101.5 -58t83 -88t55.5 -116t20 -142q0 -90 -32 -166t-86.5 -131.5t-128 -87.5t-155.5 -33h-681q-15 1 -23.5 9.5t-10.5 22.5v1414q0 33 28 35q3 5 8 5h602zM1161 417
q0 71 -24.5 131.5t-65 104.5t-93.5 69t-110 25h-594v-633h600q-1 0 -1 -1q57 1 109 22t92 60t63.5 95t23.5 127zM1074 1119q0 64 -25.5 112t-69.5 79.5t-103.5 47t-127.5 15.5h-474v-514h522q58 0 109 18.5t88.5 52.5t59 82t21.5 107z" />
    <glyph glyph-name="C.alt1920" horiz-adv-x="1465" 
d="M1344 1320q0 -32 -24 -68v1q-7 -9 -15 -12.5t-13 -3.5q-10 0 -21 11q-170 132 -389 138q-139 0 -259.5 -51.5t-209 -140t-139 -206t-50.5 -249.5q0 -136 51 -253t139 -203.5t204.5 -135.5t247.5 -49q106 0 202.5 33t181.5 95l21 13q15 9 23 9q5 0 15 -9t19.5 -22t17 -27
t7.5 -23q1 -7 -4.5 -14.5t-15.5 -14.5q-97 -73 -212.5 -115t-252.5 -42q-105 0 -202.5 27t-181.5 76.5t-153.5 118.5t-118.5 153.5t-76 182t-27 202.5t27 202t76.5 181.5t118.5 154.5t153.5 119.5t182 77t202.5 27.5q115 0 218.5 -32t196.5 -92q18 -12 33.5 -25t28.5 -28
q0 -4 -2 -6z" />
    <glyph glyph-name="D.alt1920" horiz-adv-x="1544" 
d="M165 1453q0 31 28 33h484q104 -1 199.5 -28t178 -75.5t150 -116t115.5 -149.5t74 -177.5t26 -198.5t-27 -198t-75.5 -177.5t-117 -150t-152 -115.5t-179.5 -74t-199 -26h-473q2 0 -2.5 0t-11 2.5t-12.5 7.5t-6 15v1428zM667 113q135 0 251.5 50t202.5 136.5t135 201.5
t49 245q0 135 -50 249.5t-136.5 198.5t-202 131t-246.5 47h-391v-1259h388z" />
    <glyph glyph-name="E.alt1920" horiz-adv-x="1245" 
d="M1140 1486q33 0 33 -33v-50q0 -32 -34 -32h-891q2 -188 3 -373.5l2 -373.5h722q14 0 23 -7.5t9 -24.5v-52q0 -31 -32 -31h-722l-2 -197t-3 -197h914q33 0 33 -32v-52q0 -31 -32 -31h-1004q-11 0 -18.5 8.5t-7.5 20.5v1425q0 4 1 6.5t1 3.5q2 12 10 17t19 5h976z" />
    <glyph glyph-name="F.alt1920" horiz-adv-x="1210" 
d="M1120 1485q33 0 33 -33v-50q0 -32 -33 -32h-874v-834q88 0 177.5 0.5t177.5 0.5h350q14 0 23 -7t9 -24v-52q0 -31 -32 -31h-705v-395q0 -29 -32 -29h-53q-30 0 -30 29v1425q0 32 30 32h959z" />
    <glyph glyph-name="G.alt1920" horiz-adv-x="1474" 
d="M1301 1250q-48 39 -104 60.5t-120 21.5q-6 -10 -12 -10q-3 0 -6.5 1t-8.5 6q-38 27 -81.5 42t-93.5 15q-136 0 -254.5 -52t-206 -140.5t-137.5 -206t-50 -247.5q0 -89 23 -171.5t65 -154.5t101 -130.5t130 -100.5t153 -65t170 -23q100 0 194.5 33.5t181.5 86.5v695
q0 31 31 31h52q14 0 23 -7.5t9 -23.5v-745q-1 -19 -22 -29l1 1q-97 -75 -215 -115.5t-253 -40.5q-105 0 -202.5 27t-181.5 76.5t-153.5 118.5t-118.5 153.5t-76 182t-27 202.5t27 202t76.5 181.5t118.5 154.5t153.5 119.5t182 77t202.5 27.5t199 -29t175 -81l40 -18.5
t35.5 -20t25 -21.5t9.5 -22q0 -9 -7 -18.5t-16 -18.5t-18.5 -15.5t-13.5 -8.5z" />
    <glyph glyph-name="H.alt1920" horiz-adv-x="1547" 
d="M1256 1455q0 31 31 31h51q14 0 23.5 -8t9.5 -23v-1424q0 -31 -33 -31h-51q-31 0 -31 31v440h-976v-440q0 -31 -32 -31h-52q-31 0 -31 31v1424q0 31 31 31h53q31 0 31 -31v-869h976v869z" />
    <glyph glyph-name="I.alt1920" horiz-adv-x="480" 
d="M188 1455q0 31 30 31h53q14 0 23 -8t9 -23v-1424q0 -31 -32 -31h-53q-30 0 -30 31v1424z" />
    <glyph glyph-name="J.alt1920" horiz-adv-x="532" 
d="M185 1457q0 13 7 21t23 8h54q31 0 31 -31v-1510q0 -74 -28 -136t-75 -107t-109.5 -70t-132.5 -25q-77 0 -147 25t-114 79l-2 2q-10 12 -10 21q0 10 11 21l33 34q5 0 12.5 6.5t13.5 6.5q9 0 24 -13t38 -28t57 -28t82 -13q51 0 93.5 19t73 50.5t47.5 72.5t18 85v1510z" />
    <glyph glyph-name="K.alt1920" horiz-adv-x="1505" 
d="M274 619l373 394.5l372 395.5q10 13 18 13l156 58q4 3 8 4t7 1q16 0 16 -14q0 -6 -7 -16l-279.5 -297.5l-281.5 -297.5l696 -825l-1 1q11 -14 11 -22q0 -7 -5.5 -10.5t-11.5 -3.5q-5 0 -13 5l-150 59q-9 0 -16 12l-294 351.5l-293 351.5l-305 -323v-425q0 -31 -31 -31
h-52q-31 0 -31 31v1424q0 31 31 31h52q31 0 31 -31v-836v0z" />
    <glyph glyph-name="L.alt1920" horiz-adv-x="1137" 
d="M1065 115q14 0 23 -8t9 -24v-52q0 -14 -9 -22.5t-23 -8.5h-881q-31 0 -31 31v1424q0 31 32 31h52q30 0 30 -31v-1340h798z" />
    <glyph glyph-name="M.alt1920" horiz-adv-x="2275" 
 />
    <glyph glyph-name="N.alt1920" horiz-adv-x="1492" 
d="M1171 1455q0 31 30 31h52q14 0 23 -8t9 -23v-1424q0 -31 -32 -31h-52q-30 0 -30 31v727l-444.5 283l-444.5 282v-1292q0 -31 -32 -31h-51q-31 0 -31 31v1424q0 14 6.5 22.5t20.5 8.5q9 0 18.5 -2l19.5 -4l106 -47q6 0 11 -1.5t5 -2.5l816 -530v556z" />
    <glyph glyph-name="O.alt1920" horiz-adv-x="1758" 
d="M105 741q0 105 27 202.5t76.5 182t119 154.5t154.5 119.5t182 77t203 27.5q104 0 201.5 -27.5t182 -77t154.5 -119t119.5 -154.5t77 -183t27.5 -203t-27.5 -202t-77 -181.5t-119.5 -153.5t-154.5 -118.5t-182 -76.5t-202.5 -27t-202.5 27t-182 76.5t-154 119t-119 154
t-76.5 181.5t-27 202zM221 743q0 -134 50.5 -251t138.5 -205t205 -138.5t251 -50.5q133 0 250.5 50.5t205 138.5t138.5 205t51 251q0 133 -51 250.5t-138.5 205t-205 138.5t-250.5 51q-134 0 -251 -51t-205 -138.5t-138.5 -205t-50.5 -250.5z" />
    <glyph glyph-name="P.alt1920" horiz-adv-x="1289" 
d="M1159 899q0 -73 -18.5 -145t-54 -137.5t-87 -121t-117 -96.5t-144 -64t-168.5 -23h-293v-273q0 -39 -39 -39h-36q-39 0 -39 39v1407q0 32 30 37l5 3h372q133 0 241.5 -50t186 -132t119.5 -187.5t42 -217.5zM570 426q109 0 197.5 40.5t150.5 107.5t95.5 151.5t33.5 173.5
q0 88 -33.5 173.5t-96 152t-152.5 107.5t-203 41h-285v-947h293z" />
    <glyph glyph-name="Q.alt1920" horiz-adv-x="1758" 
d="M121 741q0 105 27 202.5t76.5 182t119 154.5t154 119.5t182 77t202.5 27.5t202 -27.5t182 -77t154.5 -119t119.5 -154.5t77.5 -183t27.5 -203q0 -107 -29.5 -206.5t-82.5 -185t-126 -155.5t-161 -118q-68 -37 -146.5 -59.5t-160.5 -30.5v-241q-1 -31 -33 -31h-52
q-30 0 -30 32v240q-24 2 -51 6t-53 9t-48.5 11t-38.5 12q-112 38 -206 108t-162 163.5t-106 207t-38 239.5zM237 736q0 -89 23.5 -170.5t66 -152.5t101.5 -129t130 -99.5t152 -64t168 -22.5q91 0 175 24t156 67t131 102.5t101 131.5t64.5 154t22.5 169q0 91 -23.5 173.5
t-66 152.5t-101.5 127t-129 97t-149.5 61.5t-163.5 21.5q-51 0 -98 -17l1 1q-119 -14 -221.5 -68.5t-178 -138.5t-118.5 -191.5t-43 -228.5z" />
    </font>
</defs>
</svg>
